<svg width="30" height="31" viewBox="0 0 30 31" fill="none" xmlns="http://www.w3.org/2000/svg">
<rect y="0.5" width="30" height="30" rx="4" fill="#E1F5F6" fill-opacity="0.8"/>
<path d="M11.255 18.7208C11.2769 18.7999 11.3142 18.8739 11.3647 18.9386C11.4152 19.0034 11.4779 19.0575 11.5493 19.098C11.6208 19.1384 11.6995 19.1644 11.7809 19.1745C11.8624 19.1846 11.9451 19.1785 12.0242 19.1566C12.1033 19.1347 12.1773 19.0974 12.2421 19.0469C12.3068 18.9964 12.3609 18.9337 12.4014 18.8623C12.4419 18.7908 12.4679 18.7121 12.4779 18.6307C12.488 18.5492 12.4819 18.4665 12.46 18.3874L11.255 18.7208ZM7.66669 9.93742C7.58725 9.91422 7.50401 9.90702 7.42177 9.91625C7.33953 9.92548 7.25995 9.95094 7.18763 9.99117C7.11532 10.0314 7.05171 10.0856 7.0005 10.1506C6.94929 10.2156 6.9115 10.2901 6.88932 10.3698C6.86714 10.4496 6.86102 10.5329 6.8713 10.615C6.88158 10.6971 6.90807 10.7764 6.94922 10.8482C6.99037 10.92 7.04537 10.9829 7.11102 11.0332C7.17668 11.0836 7.25169 11.1204 7.33169 11.1416L7.66669 9.93742ZM21.8234 19.1041C21.9047 19.0853 21.9815 19.0503 22.0492 19.0013C22.1168 18.9523 22.174 18.8903 22.2172 18.8188C22.2605 18.7474 22.289 18.668 22.301 18.5853C22.3131 18.5027 22.3084 18.4184 22.2874 18.3376C22.2663 18.2568 22.2293 18.181 22.1784 18.1147C22.1276 18.0484 22.064 17.993 21.9913 17.9518C21.9187 17.9105 21.8386 17.8842 21.7556 17.8744C21.6726 17.8647 21.5886 17.8716 21.5084 17.8949L21.8234 19.1041ZM13.4975 20.6324C13.7559 21.5658 13.1892 22.5516 12.1859 22.8124L12.5 24.0216C14.1475 23.5941 15.1542 21.9366 14.7025 20.2991L13.4975 20.6324ZM12.1859 22.8124C11.1759 23.0749 10.1625 22.4883 9.90252 21.5466L8.69752 21.8799C9.14752 23.5091 10.8592 24.4483 12.5 24.0216L12.1859 22.8124ZM9.90252 21.5466C9.64419 20.6133 10.2109 19.6274 11.2142 19.3666L10.9 18.1583C9.25252 18.5858 8.24502 20.2424 8.69752 21.8799L9.90252 21.5466ZM11.2142 19.3666C12.2242 19.1041 13.2375 19.6908 13.4975 20.6324L14.7025 20.2991C14.2525 18.6699 12.5409 17.7308 10.9 18.1574L11.2142 19.3666ZM12.46 18.3874L10.6667 11.8958L9.46169 12.2291L11.255 18.7208L12.46 18.3874ZM9.08669 10.3308L7.66669 9.93742L7.33169 11.1416L8.75252 11.5358L9.08669 10.3308ZM10.6667 11.8958C10.5607 11.5207 10.3595 11.1795 10.0827 10.9053C9.80581 10.6311 9.46269 10.4331 9.08669 10.3308L8.75419 11.5358C9.10835 11.6341 9.37169 11.9033 9.46169 12.2291L10.6667 11.8958ZM14.2584 21.0708L21.8234 19.1041L21.5092 17.8949L13.9434 19.8616L14.2584 21.0708Z" fill="#539818"/>
<path d="M12.9709 13.275C12.5667 11.8125 12.365 11.0808 12.7084 10.505C13.0509 9.92829 13.805 9.73246 15.3134 9.33996L16.9134 8.92496C18.4217 8.53329 19.1759 8.33662 19.77 8.66912C20.3642 9.00246 20.5667 9.73329 20.97 11.1966L21.3992 12.7483C21.8034 14.2108 22.0059 14.9425 21.6625 15.5191C21.3192 16.095 20.565 16.2916 19.0567 16.6833L17.4567 17.0991C15.9484 17.4908 15.1942 17.6866 14.6 17.3541C14.0059 17.0208 13.8042 16.29 13.4 14.8275L12.9709 13.275Z" stroke="#539818" stroke-width="1.5"/>
</svg>
