<svg width="24" height="24" viewBox="0 0 24 24" fill="none" xmlns="http://www.w3.org/2000/svg">
<path d="M11.9991 16H12.0071M11.9991 9.99997V13M10.5741 5.21697L3.51608 17C3.37066 17.252 3.29374 17.5377 3.29297 17.8287C3.29221 18.1197 3.36762 18.4058 3.51172 18.6586C3.65581 18.9114 3.86357 19.1221 4.11433 19.2697C4.36509 19.4173 4.65012 19.4967 4.94108 19.5H19.0571C19.3482 19.497 19.6334 19.4178 19.8843 19.2702C20.1352 19.1227 20.3431 18.912 20.4873 18.6591C20.6314 18.4062 20.7068 18.1199 20.7059 17.8288C20.705 17.5377 20.6278 17.252 20.4821 17L13.4251 5.21697C13.2766 4.9719 13.0675 4.76925 12.8179 4.6286C12.5683 4.48796 12.2866 4.41406 12.0001 4.41406C11.7136 4.41406 11.4319 4.48796 11.1823 4.6286C10.9326 4.76925 10.7235 4.9719 10.5751 5.21697" stroke="#FF4D4D" stroke-width="1.5" stroke-miterlimit="10" stroke-linecap="round" stroke-linejoin="round"/>
</svg>
