<svg width="81" height="80" viewBox="0 0 81 80" fill="none" xmlns="http://www.w3.org/2000/svg">
<g clip-path="url(#clip0_2866_25759)">
<path d="M21.4714 79.8395C18.0885 79.8395 14.7056 79.8395 11.1535 79.8395C8.38023 79.7308 5.74392 78.6052 3.74739 76.6773C1.75085 74.7494 0.533736 72.1541 0.328125 69.3863C0.328125 67.4919 0.632607 66.3417 2.8315 66.5785C5.0304 66.8153 4.4215 65.8681 4.01555 64.5826C3.0527 61.7888 2.76914 58.8058 3.18835 55.8807C3.60756 52.9555 4.71743 50.1722 6.42617 47.7613C8.13491 45.3504 10.3934 43.3811 13.0145 42.0166C15.6356 40.652 18.5441 39.9314 21.4991 39.9144C24.4541 39.8974 27.3707 40.5844 30.0073 41.9187C32.644 43.253 34.9249 45.1961 36.6613 47.5872C38.3977 49.9783 39.5396 52.7486 39.9925 55.6687C40.4453 58.5889 40.1962 61.5749 39.2656 64.3796C38.7243 66.0034 38.6566 66.8153 40.6864 66.5785C42.7161 66.3417 42.9868 67.4919 42.9191 69.1495C42.7535 71.9564 41.5504 74.6014 39.5435 76.5707C37.5367 78.5401 34.8694 79.6931 32.0599 79.8057C28.677 79.9072 24.9896 79.8395 21.4714 79.8395Z" fill="#010101"/>
<path d="M73.0238 60.8286C73.0238 65.1925 73.0238 69.5904 73.0238 73.9882C73.1041 74.715 73.0314 75.4506 72.8105 76.1477C72.5896 76.8448 72.2253 77.488 71.7411 78.036C71.2568 78.5839 70.6634 79.0245 69.9987 79.3295C69.3341 79.6345 68.613 79.797 67.8818 79.8068C67.129 79.8154 66.383 79.665 65.6925 79.3653C65.0019 79.0656 64.3825 78.6234 63.8747 78.0677C63.3669 77.512 62.9822 76.8553 62.7458 76.1406C62.5094 75.4259 62.4266 74.6694 62.5029 73.9205C62.5029 67.1546 62.2661 60.3888 62.5029 53.8259C62.365 47.902 61.7655 41.9979 60.71 36.1671C60.336 33.9305 60.1324 31.6687 60.101 29.4013C60.0373 24.2443 58.8116 19.1681 56.5151 14.5502C54.2147 9.34053 55.3311 6.871 60.6762 4.70593C63.3336 3.56151 66.2277 3.07466 69.1133 3.28666C71.9989 3.49866 74.7908 4.40327 77.2525 5.92379C79.9926 7.54759 81.0752 9.81414 79.7896 12.419C76.6728 19.1144 75.0674 26.4137 75.0874 33.799C75.0874 38.366 73.4636 42.7976 73.1253 47.3307C72.787 51.8638 73.1253 56.2955 73.1253 60.8624L73.0238 60.8286Z" fill="#010101"/>
<path d="M59.1167 67.7956C58.8804 70.9711 58.8804 74.1598 59.1167 77.3354C59.1167 79.2637 58.4063 79.9402 56.5119 79.8726C53.704 79.8726 50.8624 79.8726 48.0207 79.8726C46.3631 79.8726 45.6865 79.2637 45.7203 77.606C45.2276 71.1828 45.3296 64.7278 46.0248 58.3234C46.6851 52.9915 47.0465 47.6268 47.1073 42.2545C47.0931 41.8642 47.1595 41.4751 47.3024 41.1116C47.4453 40.7481 47.6616 40.4179 47.9378 40.1418C48.214 39.8656 48.5441 39.6493 48.9076 39.5064C49.2711 39.3636 49.6602 39.2972 50.0505 39.3114C51.0426 39.2398 52.0386 39.3774 52.9741 39.7152C53.9096 40.053 54.7637 40.5834 55.4812 41.2723C56.1987 41.9611 56.7636 42.7929 57.1393 43.7138C57.515 44.6348 57.6931 45.6243 57.6621 46.6185C57.0532 53.7226 59.7933 60.6238 59.1167 67.7956Z" fill="#020202"/>
<path d="M44.2733 11.9766C44.572 12.002 44.8566 12.1151 45.0913 12.3017C45.326 12.4882 45.5004 12.74 45.5926 13.0253C46.3859 14.8658 47.8318 16.3478 49.6521 17.1863C51.3098 17.9982 51.2759 19.0807 49.6521 20.0617C47.9612 21.1322 46.5656 22.6092 45.5926 24.358C44.916 25.6097 43.7997 25.5082 43.1907 24.358C42.1153 22.577 40.6162 21.0894 38.8268 20.0279C37.3721 19.0469 37.2707 17.9982 38.9959 17.1863C40.8074 16.3464 42.2421 14.8634 43.0216 13.0253C43.1126 12.7517 43.2778 12.5087 43.4988 12.3235C43.7199 12.1384 43.988 12.0182 44.2733 11.9766Z" fill="#060606"/>
<path d="M29.9245 33.1551C29.5903 33.2103 29.2473 33.1499 28.952 32.9838C28.6568 32.8178 28.4271 32.556 28.3007 32.2417C27.3316 30.5119 25.9033 29.0836 24.1735 28.1145C22.5836 27.032 22.5159 25.9833 24.3427 25.1037C26.0608 24.2776 27.4367 22.8778 28.233 21.1457C29.0788 19.4542 30.1613 19.5219 30.9732 21.1457C31.838 22.9355 33.2965 24.3701 35.1004 25.2052C36.2844 25.7803 36.7242 26.7613 35.6078 27.6071C33.506 28.894 31.7703 30.6996 30.5673 32.8506C30.4658 32.8506 30.0598 33.0536 29.9245 33.1551Z" fill="#050505"/>
<path d="M41.4237 7.03977C41.2523 7.35127 41.0227 7.62691 40.7472 7.85168C38.813 9.00356 37.1967 10.6198 36.0449 12.5539C35.3683 13.7718 34.1843 13.4335 33.6092 12.3171C32.6212 10.6017 31.1974 9.17793 29.482 8.18997C27.8921 7.10743 27.8244 6.09257 29.685 5.21301C31.3938 4.3852 32.7584 2.98468 33.5415 1.25498C34.1505 -0.0305287 35.2668 -0.5718 36.0449 0.815198C37.0615 2.91371 38.7699 4.59811 40.8825 5.58512C41.3561 5.78809 41.5591 6.2617 41.4237 7.03977Z" fill="#040404"/>
<path d="M21.6754 77.1674C18.2925 77.1674 14.9096 77.1674 11.3237 77.1674C9.50965 77.1109 7.76011 76.4815 6.32589 75.3693C4.89166 74.2572 3.8464 72.7195 3.33997 70.9767C2.96785 69.7927 3.00168 69.2176 4.45634 69.2514C7.02736 69.2514 9.63224 69.2514 12.2033 69.2514C13.3196 69.2514 13.5564 69.5897 13.6917 70.7061C13.9962 73.4124 15.417 74.5287 18.191 74.5964C20.965 74.6641 22.8595 74.5964 25.1598 74.5964C25.6999 74.6687 26.2491 74.6248 26.7708 74.4675C27.2924 74.3102 27.7745 74.0432 28.1845 73.6844C28.5946 73.3256 28.9232 72.8833 29.1483 72.3872C29.3735 71.891 29.49 71.3524 29.49 70.8076C29.49 69.4882 30.0312 69.2514 31.1814 69.2852C33.5833 69.2852 35.9852 69.2852 38.4209 69.2852C40.3153 69.2852 40.2815 69.9957 39.774 71.4165C39.1802 73.091 38.0931 74.5465 36.6559 75.5912C35.2187 76.6358 33.4988 77.2208 31.7227 77.2689H21.5739L21.6754 77.1674Z" fill="#E54545"/>
<path d="M10.5837 66.2404C8.41859 67.0861 7.47137 66.2404 6.72713 64.4136C5.77443 61.9746 5.43622 59.3386 5.74223 56.7381C6.04824 54.1375 6.98908 51.6521 8.48193 49.5009C9.97477 47.3496 11.9738 45.5985 14.3028 44.4018C16.6319 43.2051 19.2195 42.5995 21.8377 42.6385C24.4559 42.6774 27.0243 43.3597 29.3168 44.6251C31.6092 45.8905 33.5552 47.7004 34.9834 49.8951C36.4116 52.0898 37.2781 54.6021 37.5067 57.2106C37.7352 59.8191 37.3187 62.4437 36.2939 64.8534C35.5496 66.6463 34.4333 66.8493 32.6065 66.2742C33.7855 64.481 34.5334 62.4393 34.7916 60.3088C35.0498 58.1784 34.8114 56.0171 34.095 53.9942C33.3592 51.9659 32.1395 50.1478 30.5419 48.6976C28.9443 47.2475 27.0169 46.209 24.9271 45.6724C22.8373 45.1358 20.648 45.1172 18.5494 45.6182C16.4507 46.1193 14.5061 47.1248 12.8841 48.5477C7.91117 52.8102 7.09925 58.9333 10.5837 66.2404Z" fill="#F9BF64"/>
<path d="M16.4766 66.4084L28.1476 51.5912C28.6889 50.9147 29.1625 51.0161 29.6023 51.5912C30.0421 52.1663 31.8012 53.5533 30.8202 54.9742C28.0436 58.7989 25.0741 62.4798 21.9231 66.0025C20.8405 67.3557 18.7093 66.4761 16.4766 66.4084Z" fill="#FCDE63"/>
<path d="M26.2059 49.7674L25.2248 51.0868C21.8419 55.4169 18.459 59.747 15.076 64.0095C14.6363 64.5846 14.298 65.904 13.2154 64.9906C12.9948 64.8556 12.8074 64.6727 12.667 64.4555C12.5266 64.2382 12.4368 63.9922 12.4043 63.7356C12.3718 63.479 12.3974 63.2184 12.4793 62.973C12.5611 62.7276 12.6971 62.5038 12.8772 62.3181C16.2601 57.9879 19.643 53.5901 22.7891 49.1585C23.4995 48.1436 24.3115 48.2789 25.2587 48.6511C26.2059 49.0232 26.2059 48.8202 26.2059 49.7674Z" fill="#FFCE01"/>
<path d="M20.0895 48.2109L11.3277 59.9158C11.1079 58.5686 11.1622 57.1909 11.4873 55.8652C11.8123 54.5394 12.4015 53.2929 13.2194 52.2001C14.0374 51.1073 15.0675 50.1908 16.2479 49.5054C17.4283 48.8199 18.735 48.3797 20.0895 48.2109Z" fill="#FCDE63"/>
<path d="M21.9096 71.8553H17.7824C17.6079 71.86 17.4342 71.8291 17.272 71.7644C17.1099 71.6998 16.9626 71.6028 16.8391 71.4793C16.7157 71.3558 16.6187 71.2085 16.554 71.0464C16.4894 70.8842 16.4584 70.7105 16.4631 70.536C16.4527 70.3616 16.4801 70.187 16.5432 70.024C16.6063 69.8611 16.7037 69.7136 16.8289 69.5917C16.9541 69.4697 17.104 69.3761 17.2685 69.3173C17.433 69.2584 17.6083 69.2356 17.7824 69.2505C20.3534 69.2505 22.9244 69.2505 25.4955 69.2505C26.2735 69.2505 26.8825 69.555 26.9501 70.4007C26.9707 70.5938 26.9484 70.7892 26.8847 70.9727C26.8211 71.1562 26.7178 71.3234 26.5821 71.4624C26.4463 71.6014 26.2816 71.7086 26.0996 71.7766C25.9176 71.8445 25.7229 71.8714 25.5293 71.8553H21.9096Z" fill="#FCDE63"/>
<path d="M25.3047 66.24L31.8676 57.918C32.9501 62.8232 29.804 67.018 25.3047 66.24Z" fill="#FCDE63"/>
<path d="M67.9531 21.248C67.2191 19.6356 66.7179 17.927 66.4646 16.1736C66.1601 15.3617 65.9233 14.3807 64.7731 14.7528C63.6229 15.1249 63.6906 15.9368 63.8936 16.8502C64.1004 17.6861 64.2585 18.5332 64.3672 19.3874C64.3672 20.0301 65.2129 21.0112 63.8936 21.2142C63.0817 21.2142 62.1006 21.5525 61.6608 20.4699C60.4768 17.4253 59.2589 14.4145 58.2779 11.336C57.8043 10.0167 58.5485 9.10331 59.6649 8.35906C62.1349 6.86685 64.9658 6.07812 67.8516 6.07812C70.7373 6.07812 73.5682 6.86685 76.0382 8.35906C76.3669 8.51404 76.6611 8.73365 76.9031 9.00476C77.1451 9.27587 77.33 9.59294 77.4468 9.93707C77.5636 10.2812 77.6099 10.6453 77.583 11.0077C77.556 11.3701 77.4563 11.7234 77.2899 12.0464C76.1735 14.6513 75.1248 17.29 74.1776 19.9287C74.1092 20.1768 73.99 20.408 73.8277 20.6077C73.6653 20.8074 73.4633 20.9713 73.2344 21.0889C73.0055 21.2065 72.7547 21.2754 72.4978 21.2912C72.2409 21.3069 71.9835 21.2692 71.7419 21.1803C70.3211 20.8759 71.133 19.8272 71.2007 19.1168C71.2683 18.4063 71.6066 17.2561 71.7419 16.3428C71.7975 16.1531 71.8108 15.9535 71.7809 15.7582C71.7511 15.5628 71.6788 15.3763 71.5692 15.2119C71.4596 15.0474 71.3152 14.909 71.1464 14.8063C70.9775 14.7036 70.7882 14.6392 70.5917 14.6175C69.746 14.6175 69.3401 15.2264 69.1709 15.8692C68.6635 17.5606 68.359 19.3197 67.9531 21.248Z" fill="#FCEFB9"/>
<path d="M67.9595 23.9184C73.1015 23.9184 73.0339 23.9184 72.9324 28.9928C72.9324 30.9887 72.6279 32.3758 70.1246 31.936C69.1097 31.936 67.8242 31.936 67.858 33.323C67.8918 34.71 69.0082 34.7438 69.9893 34.5747C72.4588 34.1687 72.4249 35.5219 72.0867 37.281C71.7484 39.0401 71.2409 41.4758 70.9703 43.607C70.9703 44.7572 70.4628 45.2647 69.2112 45.2309C64.0015 45.2309 64.9825 45.9413 64.103 41.1037C63.2234 36.2661 62.8851 31.4285 62.4453 26.5571C62.4453 24.3244 63.0204 23.614 65.1178 23.9184C66.0644 23.9692 67.013 23.9692 67.9595 23.9184Z" fill="#88E9FF"/>
<path d="M70.3555 61.8413C70.3555 65.8669 70.3555 69.9265 70.3555 73.986C70.3555 75.8127 69.7127 77.0644 67.7845 77.1321C65.8562 77.1997 65.0781 75.8804 65.0781 74.0875C65.0781 65.9008 65.0781 57.7141 65.0781 49.5613C65.0781 46.8549 67.0402 48.1404 68.2243 47.9036C69.4083 47.6668 70.4908 47.9037 70.4231 49.6966C70.254 53.7561 70.3555 57.7818 70.3555 61.8413Z" fill="#009ECF"/>
<path d="M56.2558 70.4712V71.2492C56.2558 77.6768 56.2558 77.6429 49.7606 77.2032C48.7119 77.2032 48.2045 76.9325 48.2383 75.7823C47.9891 72.2658 48.0457 68.7343 48.4075 65.2276C49.0164 62.0815 52.1287 64.5172 54.0231 63.9083C54.9027 63.6376 56.3912 63.4008 56.2897 65.3291C56.1882 67.2574 56.2558 68.7459 56.2558 70.4712Z" fill="#3B1160"/>
<path d="M49.5938 42.0859C54.0592 42.7287 54.905 43.6421 54.905 47.8369V52.7083C54.905 55.6514 53.0444 56.8693 50.2704 55.8544C49.5938 55.6176 49.5938 55.1778 49.5938 54.6704V42.0859Z" fill="#E22020"/>
<path d="M52.3583 61.1999H49.2798C48.3326 61.1999 48.1973 60.6586 48.2311 59.8805C48.265 59.1024 48.2312 58.5273 49.3137 58.5273C51.2081 58.5273 53.1026 58.5273 54.9632 58.5273C56.0119 58.5273 56.2487 58.9333 56.2825 59.9144C56.3163 60.8954 55.9103 61.2675 54.9293 61.2337C53.9483 61.1999 53.2379 61.1999 52.3583 61.1999Z" fill="#3B1160"/>
<path d="M46.7413 18.8812C45.7941 19.5578 45.3205 20.8771 44.2041 20.8095C43.6895 20.7477 43.2061 20.5298 42.819 20.1851C42.432 19.8403 42.1598 19.3853 42.0391 18.8812C42.0966 18.3233 42.3424 17.8016 42.7359 17.402C43.1294 17.0023 43.6472 16.7485 44.2041 16.6823C45.2528 16.6147 45.9294 17.8663 46.7413 18.8812Z" fill="#FFCE01"/>
<path d="M32.06 26.863C31.2142 27.5734 30.7068 28.9265 29.5566 28.7236C28.4064 28.5206 27.4592 27.641 27.5269 26.7615C27.6126 26.2191 27.8743 25.7199 28.2716 25.3409C28.669 24.9619 29.1799 24.7241 29.7257 24.6641C30.6391 24.6641 31.3157 25.8481 32.06 26.863Z" fill="#FFCE01"/>
<path d="M37.3362 6.7032C36.6596 7.65042 35.9492 8.73295 34.9682 8.80061C34.4619 8.75988 33.981 8.56189 33.5928 8.23433C33.2046 7.90678 32.9285 7.46606 32.8031 6.97383C32.6002 5.82364 33.8518 4.87642 34.799 4.7411C35.7463 4.60579 36.4567 5.78981 37.3362 6.7032Z" fill="#FFCE01"/>
</g>
<defs>
<clipPath id="clip0_2866_25759">
<rect width="80" height="80" fill="white" transform="translate(0.328125)"/>
</clipPath>
</defs>
</svg>
