<svg width="80" height="80" viewBox="0 0 80 80" fill="none" xmlns="http://www.w3.org/2000/svg">
<g clip-path="url(#clip0_2866_25761)">
<path d="M50.6291 43.5461C50.7447 43.343 50.8448 43.1316 50.9287 42.9135C49.2971 33.9895 56.2232 28.9282 60.1191 22.535C60.8516 21.3695 61.8173 21.6692 62.5498 22.535L71.1408 34.7887C71.5422 35.5194 71.6942 36.3612 71.5737 37.1862C71.5737 41.6814 71.5737 46.1767 71.5737 50.5055C71.5737 52.1038 72.0065 52.5366 73.5382 52.4367C75.07 52.3368 76.8681 52.4367 78.533 52.4367C80.1979 52.4367 80.6641 53.0028 80.6641 54.5012C80.6641 59.9954 80.6641 65.4897 80.6641 71.1504C80.6641 73.1149 79.5652 73.2814 78.0668 73.2481C69.5758 73.2481 61.0847 73.2481 52.5937 73.2481C51.8355 73.1511 51.0657 73.2832 50.3833 73.6274C49.7008 73.9716 49.137 74.5121 48.7644 75.1794C48.0372 76.4057 47.0386 77.4488 45.8452 78.2287C44.6518 79.0086 43.2955 79.5044 41.8805 79.6781C40.4655 79.8517 39.0296 79.6986 37.683 79.2304C36.3365 78.7623 35.1152 77.9915 34.1132 76.9775C33.2141 76.2117 32.5148 75.8787 31.4826 76.4781H31.0164C28.2527 77.477 25.5888 76.1451 23.0248 76.1784C20.4609 76.2117 18.7959 79.5082 15.8324 79.5082C14.1028 79.5274 12.3923 79.1454 10.8353 78.392C9.27822 77.6387 7.91705 76.5346 6.85869 75.1665C5.80033 73.7983 5.0736 72.2034 4.73558 70.5071C4.39756 68.8107 4.45747 67.0591 4.91059 65.3898C5.41007 63.3586 5.60987 62.0599 3.44549 60.7613C2.41227 60.0211 1.61241 59.0008 1.14038 57.8207C0.668357 56.6407 0.543872 55.3502 0.78162 54.1017C0.964729 51.0511 1.87289 48.0882 3.43073 45.459C4.98856 42.8298 7.15113 40.6101 9.73885 38.9843C11.0708 38.1185 11.4038 37.619 10.4048 36.1872C8.9162 34.0181 7.90081 31.5599 7.42465 28.9726C6.94849 26.3853 7.02221 23.7267 7.64105 21.1697C7.85876 20.5719 7.86873 19.9183 7.66937 19.3142C7.47001 18.71 7.07295 18.1907 6.54222 17.8399C5.58033 17.0387 4.79702 16.0449 4.24286 14.9224C3.6887 13.7999 3.37598 12.5737 3.32487 11.3229C3.27375 10.0722 3.48539 8.82456 3.94611 7.6606C4.40683 6.49664 5.10641 5.44216 5.99974 4.56521C6.89306 3.68826 7.96029 3.0083 9.13257 2.56918C10.3049 2.13006 11.5562 1.94153 12.8058 2.01576C14.0554 2.09 15.2756 2.42534 16.3876 3.00016C17.4997 3.57499 18.4789 4.37651 19.2621 5.35306C19.5778 5.86913 20.0597 6.26242 20.6286 6.46819C21.1974 6.67395 21.8194 6.67995 22.3922 6.48521C25.9526 5.56891 29.687 5.56891 33.2474 6.48521C33.7813 6.68098 34.366 6.6887 34.9049 6.50706C35.4438 6.32541 35.9045 5.96529 36.2109 5.48625C36.984 4.49018 37.9587 3.66856 39.0712 3.07511C40.1836 2.48166 41.4089 2.12976 42.6667 2.04244C43.9245 1.95512 45.1867 2.13434 46.3705 2.56839C47.5543 3.00243 48.6331 3.68152 49.5364 4.56122C50.4397 5.44092 51.1471 6.50141 51.6123 7.67333C52.0775 8.84524 52.29 10.1022 52.236 11.3619C52.182 12.6216 51.8626 13.8557 51.2988 14.9835C50.735 16.1113 49.9394 17.1074 48.9642 17.9065C48.4406 18.2627 48.0533 18.786 47.8658 19.3909C47.6783 19.9958 47.7016 20.6464 47.9319 21.2363C48.5226 23.7993 48.576 26.4568 48.0889 29.0414C47.6018 31.626 46.5846 34.0817 45.1016 36.2538C44.2691 37.5192 44.2691 38.1518 45.6676 38.9177C47.6012 40.1303 49.2852 41.7013 50.6291 43.5461Z" fill="#010101"/>
<path d="M27.6562 42.3825C13.7043 42.3825 5.41302 29.4961 11.6731 17.5753C15.3359 10.5827 24.1266 7.31946 33.3835 9.55045C36.7054 10.4341 39.6723 12.3242 41.877 14.9614C44.0817 17.5986 45.4161 20.8535 45.697 24.2794C45.978 27.7052 45.1917 31.134 43.446 34.0952C41.7004 37.0563 39.081 39.4045 35.9475 40.8175C33.3201 41.9016 30.498 42.4343 27.6562 42.3825Z" fill="#F9BF64"/>
<path d="M27.6943 74.615C24.3645 74.615 24.0648 74.0822 24.8307 71.0854C25.5789 68.2941 25.2727 65.3251 23.9705 62.7453C22.6684 60.1655 20.4615 58.1558 17.7714 57.1001C16.7059 56.7005 16.0399 56.3343 16.273 55.0023C16.7547 51.6272 17.9957 48.4052 19.9025 45.5789C20.1934 45.0807 20.6459 44.6968 21.1849 44.4909C21.7239 44.2849 22.317 44.2694 22.8661 44.4468C26.1438 45.2798 29.5778 45.2798 32.8555 44.4468C33.411 44.2799 34.0073 44.3116 34.542 44.5364C35.0767 44.7612 35.5164 45.1651 35.7858 45.6788C37.7064 48.504 38.9276 51.7454 39.3487 55.1355C39.5485 56.5008 38.7493 56.7671 37.7504 57.1667C35.1118 58.2441 32.9528 60.241 31.6733 62.7878C30.3938 65.3346 30.0804 68.2587 30.7911 71.0188C31.457 74.0156 30.9243 74.615 27.6943 74.615Z" fill="#FCDE63"/>
<path d="M7.17407 67.9215C7.08114 65.7411 7.83794 63.6098 9.28511 61.9763C10.7323 60.3428 12.7569 59.3346 14.9326 59.1641C17.1909 59.3995 19.2642 60.5193 20.6993 62.2789C22.1344 64.0384 22.8146 66.2946 22.5912 68.5542C22.6553 70.7323 21.8661 72.8494 20.392 74.4541C18.9178 76.0589 16.8752 77.0245 14.6995 77.1451C12.4898 76.8932 10.466 75.7877 9.06008 74.0645C7.65413 72.3412 6.97732 70.1368 7.17407 67.9215Z" fill="#F9BF64"/>
<path d="M32.9455 68.0866C32.9455 61.8932 38.2732 57.5644 43.2013 59.7288C44.7815 60.4062 46.1166 61.551 47.0273 63.0093C47.938 64.4676 48.3807 66.1696 48.2959 67.8868C48.4783 69.6008 48.1367 71.3297 47.3163 72.8456C46.496 74.3615 45.2354 75.5931 43.7008 76.3779C38.6062 79.0417 32.9122 74.6131 32.9455 68.0866Z" fill="#F9BF64"/>
<path d="M70.109 70.7162C68.1111 70.7162 66.1132 70.7162 64.1486 70.7162C63.0498 70.7162 62.4837 70.7162 62.517 69.2844C62.517 65.1332 62.517 60.9709 62.517 56.7975C62.517 55.399 63.0831 55.1992 64.2818 55.1992C68.2776 55.1992 72.2734 55.1992 76.2359 55.1992C77.701 55.1992 78.0673 55.6987 78.034 57.0639C78.034 61.0597 78.034 65.0555 78.034 69.018C78.034 70.3499 77.6344 70.7828 76.3358 70.7162C74.3046 70.6496 72.2401 70.7162 70.109 70.7162Z" fill="#FFCE01"/>
<path d="M52.2208 55.2334C52.2273 56.0275 52.0468 56.8121 51.694 57.5236C51.3411 58.2351 50.8258 58.8536 50.1896 59.3291C49.1574 60.1282 48.1917 60.4612 47.1595 59.3291C46.6726 58.6416 45.9691 58.1374 45.1616 57.8972C41.8318 57.3645 41.6653 55.0336 41.299 52.5029C40.8686 49.6144 39.724 46.879 37.9692 44.5446C37.2699 43.579 37.3365 43.1794 38.3688 42.5134C42.5643 39.9495 43.197 39.9495 46.8265 43.3459C50.095 46.4612 52.0286 50.7222 52.2208 55.2334Z" fill="#F9BF64"/>
<path d="M13.5044 40.25C15.0361 41.1824 16.6011 42.0814 18.0995 43.147C18.6323 43.5132 18.0995 44.0127 17.6999 44.379C15.5364 47.5492 14.2079 51.2142 13.8373 55.0344C13.8373 56.2332 13.3046 56.8325 12.1724 57.0989C10.8864 57.3748 9.7207 58.0509 8.8426 59.0302C7.21099 60.8949 5.94567 59.9293 4.74694 58.5973C4.31865 58.159 3.98526 57.6371 3.76757 57.0642C3.54987 56.4913 3.45251 55.8797 3.48159 55.2675C3.58107 52.3029 4.45388 49.4157 6.0134 46.8924C7.57293 44.3691 9.76501 42.2974 12.3722 40.8827C12.5387 40.583 12.9383 40.4498 13.5044 40.25Z" fill="#F9BF64"/>
<path d="M61.6507 37.2197C63.7485 37.4861 67.045 36.0876 68.6101 37.7525C70.1751 39.4174 68.943 42.4808 69.0096 44.9782C69.0096 46.9428 69.0096 48.9407 69.0096 50.9386C69.0096 52.1373 68.8431 52.77 67.4113 52.7367C63.6153 52.7367 59.786 52.7367 55.9567 52.7367C54.8912 52.7367 54.425 52.4037 54.1253 51.2716C53.4768 47.0087 53.2759 42.6898 53.5259 38.3852C53.5259 37.3196 54.1253 37.2197 54.9578 37.253L61.6507 37.2197Z" fill="#D1FFA1"/>
<path d="M12.3039 5.02043C13.2292 4.98072 14.1485 5.18756 14.9677 5.6198C16.0666 6.11928 17.2653 6.78524 17.4651 7.88408C17.6649 8.98293 16.1331 9.18272 15.3673 9.7155C13.1452 11.186 11.2888 13.145 9.93968 15.4428C9.04063 17.0744 8.27478 16.7747 7.37573 15.4428C6.59547 14.5404 6.09241 13.4319 5.92701 12.2505C5.76162 11.0691 5.9409 9.8651 6.44336 8.78315C6.94139 7.64876 7.76318 6.68658 8.8057 6.01723C9.84822 5.34789 11.0651 5.00114 12.3039 5.02043Z" fill="#F9BF64"/>
<path d="M49.6848 12.1468C49.5736 12.8553 49.3487 13.5412 49.0188 14.178C48.5526 15.1769 47.9533 16.309 46.921 16.5421C45.8888 16.7752 45.5891 15.2768 45.0563 14.5442C43.5148 12.3621 41.5145 10.5437 39.1958 9.21653C37.3977 8.28418 37.8639 7.45173 39.1958 6.51938C40.1356 5.67929 41.3127 5.15129 42.5651 5.00817C43.8175 4.86504 45.0834 5.11381 46.1884 5.7202C47.3349 6.33322 48.2768 7.26841 48.8981 8.41039C49.5194 9.55237 49.7929 10.8512 49.6848 12.1468Z" fill="#F9BF64"/>
<path d="M60.1266 63.1263C60.1266 65.1242 60.1266 67.122 60.1266 69.0866C60.1266 70.1855 60.1266 70.8181 58.6615 70.7515C56.5304 70.7515 54.366 70.7515 52.2016 70.7515C51.5357 70.7515 50.8364 70.7515 50.9696 69.7193C51.1028 68.6871 50.9696 68.1543 52.3015 68.121C53.6334 68.0877 55.931 68.9534 57.0299 67.5549C58.1287 66.1564 57.3295 64.0253 57.496 62.2272C57.496 61.5612 57.496 60.8953 57.496 60.2293C57.496 58.9307 57.3295 57.8984 55.6979 57.8651C54.0663 57.8318 54.5991 57.0327 54.8655 56.3001C54.9836 55.8909 55.2432 55.5369 55.598 55.3012C56.0309 55.0015 56.2973 55.3012 58.0621 55.3012C59.1276 55.3012 59.394 55.3012 59.6937 55.5342C59.8616 55.7023 59.9882 55.9071 60.0633 56.1325C60.1384 56.3579 60.1601 56.5977 60.1266 56.8329C60.1266 58.7975 60.1266 60.9619 60.1266 63.1263Z" fill="#BE7CF7"/>
<path d="M54.8984 34.421C56.863 31.6239 58.6944 29.0932 60.4259 26.496C61.2251 25.3305 61.658 25.83 62.224 26.496L67.6849 34.2878L54.8984 34.421Z" fill="#F9629F"/>
<path d="M54.8015 62.9573C54.8015 64.5889 55.201 65.8542 52.8702 65.8209C50.5393 65.7876 49.8733 64.8553 50.0398 63.3569C50.2063 61.8585 52.071 60.8262 53.636 60.6597C55.7671 60.2934 54.4019 62.1914 54.8015 62.9573Z" fill="#E84586"/>
<path d="M27.7509 24.3325H29.2493C29.9777 24.2561 30.7097 24.4375 31.3181 24.8451C31.9266 25.2527 32.3728 25.8608 32.5791 26.5635C32.8009 27.2478 32.7719 27.9888 32.4973 28.6538C32.2228 29.3187 31.7207 29.8643 31.0807 30.193C30.2491 30.5702 29.5749 31.2252 29.1738 32.0455C28.7727 32.8659 28.6699 33.8003 28.883 34.6882C28.883 35.5873 29.2826 35.8204 30.1483 35.5873C31.3365 35.3447 32.4358 34.7823 33.3277 33.9607C34.2197 33.1392 34.8704 32.0897 35.2097 30.9255C35.4761 29.9932 35.3762 28.6612 36.8746 29.0275C38.373 29.3938 37.9401 30.6924 37.707 31.7247C36.7793 34.199 34.9601 36.237 32.6065 37.4384C30.2529 38.6398 27.5352 38.9178 24.9871 38.2178C23.2277 37.9424 21.584 37.1688 20.2504 35.9886C18.9168 34.8085 17.9491 33.271 17.4617 31.5582C17.1953 30.5592 16.829 29.194 18.3275 28.861C19.8259 28.5281 19.7593 29.8267 19.9924 30.8256C20.1685 31.7172 20.5657 32.5502 21.1475 33.2484C21.7293 33.9465 22.477 34.4874 23.3222 34.8214C24.1547 35.1877 25.42 36.1866 25.9528 35.1544C26.3098 34.5391 26.4604 33.8257 26.3825 33.1186C26.3046 32.4115 26.0023 31.748 25.5199 31.2252C25.1423 30.9074 24.7416 30.618 24.3212 30.3594C22.9226 29.3938 21.8904 28.1618 22.4897 26.3637C22.7545 25.6126 23.2796 24.9812 23.97 24.5841C24.6603 24.187 25.4701 24.0505 26.2525 24.1993L27.7509 24.3325Z" fill="#040404"/>
<path d="M20.1577 21.7031C21.0235 21.7031 21.523 22.3691 21.4231 23.2015C21.4195 23.368 21.3813 23.5319 21.3108 23.6828C21.2404 23.8336 21.1393 23.9682 21.014 24.0778C20.8887 24.1875 20.7419 24.2698 20.583 24.3196C20.4241 24.3694 20.2566 24.3855 20.0912 24.367C19.7613 24.3671 19.4444 24.2384 19.208 24.0082C18.9716 23.7781 18.8345 23.4647 18.8258 23.1349C18.6593 22.2359 19.2254 21.8363 20.1577 21.7031Z" fill="#000500"/>
<path d="M36.82 23.0013C36.82 23.7339 36.4204 24.2666 35.6546 24.3332C35.4894 24.3616 35.3201 24.3549 35.1576 24.3138C34.9952 24.2727 34.8431 24.1979 34.7113 24.0943C34.5796 23.9908 34.4709 23.8607 34.3925 23.7126C34.3141 23.5645 34.2676 23.4016 34.2561 23.2344C34.2148 23.0491 34.2168 22.8567 34.2622 22.6724C34.3075 22.488 34.3948 22.3166 34.5173 22.1715C34.6398 22.0265 34.7941 21.9117 34.9683 21.8361C35.1425 21.7606 35.3318 21.7263 35.5214 21.736C36.2872 21.736 36.82 22.2687 36.82 23.0013Z" fill="#000500"/>
<path d="M70.1111 68.1851C64.4171 68.1851 64.4171 68.1851 66.9478 63.1237C67.6137 61.7585 68.2464 60.4266 68.9456 59.0946C69.6449 57.7627 70.8103 57.463 71.6761 59.0946C72.9081 61.3589 74.0403 63.6565 75.0059 65.9874C75.7052 67.4858 75.0059 68.1851 73.4742 68.2184L70.1111 68.1851Z" fill="#040404"/>
<path d="M61.3468 39.8164C62.3745 39.8238 63.3766 40.1378 64.2247 40.7183C65.0728 41.2987 65.7283 42.1192 66.1072 43.0745C66.4862 44.0298 66.5713 45.0765 66.3517 46.0804C66.132 47.0844 65.6177 48 64.8745 48.7098C64.1313 49.4196 63.1931 49.8914 62.1801 50.0648C61.1671 50.2381 60.1255 50.1051 59.1885 49.6827C58.2516 49.2604 57.4622 48.5679 56.9212 47.694C56.3803 46.8202 56.1125 45.8048 56.1523 44.7778C56.2123 43.441 56.786 42.1788 57.7538 41.2545C58.7215 40.3302 60.0086 39.8151 61.3468 39.8164Z" fill="#060606"/>
<path d="M30.1523 27.7954C29.9047 28.1964 29.5749 28.5403 29.1846 28.8044C28.7942 29.0684 28.3523 29.2466 27.888 29.3272C27.361 29.2539 26.8593 29.0555 26.4247 28.7484C25.9902 28.4413 25.6356 28.0346 25.3906 27.5624C25.3906 27.2627 25.3906 26.963 25.9567 26.9297H29.6861C29.9525 26.963 30.1523 27.1961 30.1523 27.7954Z" fill="#895018"/>
<path d="M68.7422 65.3904C69.1751 64.3582 69.1418 62.9264 70.3072 62.7266C70.7401 62.7266 71.7723 64.225 71.7723 65.457C70.7779 65.7345 69.7235 65.7114 68.7422 65.3904Z" fill="#76CD26"/>
<path d="M61.2889 42.4141C62.8872 42.6139 63.8529 43.4796 63.7863 45.0446C63.8031 45.3828 63.746 45.7205 63.619 46.0343C63.492 46.3482 63.2982 46.6306 63.051 46.8619C62.8038 47.0933 62.5092 47.268 62.1877 47.3739C61.8661 47.4799 61.5253 47.5145 61.189 47.4754C60.8525 47.4973 60.5153 47.4449 60.2014 47.3218C59.8874 47.1988 59.6044 47.0081 59.3724 46.7634C59.1404 46.5187 58.9651 46.2259 58.859 45.9058C58.7528 45.5858 58.7184 45.2463 58.7583 44.9114C58.7916 43.3131 59.8238 42.5806 61.2889 42.4141Z" fill="#88E9FF"/>
</g>
<defs>
<clipPath id="clip0_2866_25761">
<rect width="80" height="80" fill="white"/>
</clipPath>
</defs>
</svg>
