<svg width="81" height="80" viewBox="0 0 81 80" fill="none" xmlns="http://www.w3.org/2000/svg">
<g clip-path="url(#clip0_2866_25760)">
<path d="M25.4688 19.5316C27.2393 19.4276 29.0008 19.2046 30.7414 18.8642C30.7414 18.8642 34.0785 24.0701 34.7125 23.97C36.2465 23.0768 37.6982 22.0494 39.0507 20.8998L42.3878 11.9564L39.6848 4.74833L35.7804 3.91406H31.7758C31.7758 3.91406 29.4399 6.45025 29.2397 6.58373C29.0395 6.71722 26.6034 10.0877 26.6034 10.0877L25.4688 14.2924V19.5316Z" fill="#F9629F"/>
<path d="M75.4199 17.0299C75.3914 17.22 75.3005 17.3952 75.1616 17.5281C75.0227 17.661 74.8436 17.744 74.6524 17.764C73.0645 18.1599 71.5978 18.9391 70.3809 20.0332C68.851 21.4358 67.7027 23.2042 67.0438 25.1723V25.5728C66.9758 25.7558 66.8433 25.9076 66.6713 25.9998C66.4992 26.092 66.2994 26.1181 66.1094 26.0734C66.0113 26.0513 65.9191 26.0084 65.8391 25.9475C65.759 25.8866 65.693 25.8092 65.6455 25.7206C65.5981 25.632 65.5702 25.5341 65.5639 25.4338C65.5576 25.3334 65.5729 25.2329 65.6089 25.139C65.92 24.1416 66.3106 23.1707 66.7769 22.2357C67.5343 20.7688 68.5957 19.4802 69.8905 18.4559C71.1852 17.4317 72.6835 16.6952 74.2853 16.2957C74.9194 16.1288 75.4199 16.4292 75.4199 17.0299Z" fill="black" stroke="black" stroke-width="0.417136" stroke-miterlimit="10"/>
<path d="M32.9938 41.2578H31.392C30.2574 41.2578 29.2229 41.2578 28.0549 41.2578C27.6887 41.2735 27.3425 41.4288 27.0871 41.6917L21.5809 47.2646C21.3952 47.4568 21.2565 47.6893 21.1754 47.944C21.0944 48.1987 21.0733 48.4687 21.1138 48.7329C21.1138 56.6752 21.1138 64.6508 21.1138 72.6265C21.1138 74.9291 21.5476 75.6966 22.7823 75.6966H31.2585H32.8603H38.9338V41.2578H32.9938Z" fill="#FCDE63"/>
<path d="M49.6863 40.5888H48.0844C48.0844 40.5888 46.9832 40.5888 45.8486 40.5888C42.5115 40.5888 41.8107 39.888 41.2768 40.5888C40.7429 41.2896 41.6105 43.1584 40.9431 47.0628C40.9431 47.7636 40.6094 48.1974 40.6094 48.5311C40.6094 56.5401 40.6094 64.5269 40.6094 72.4914C40.6094 74.8273 40.9097 75.5949 41.7774 75.5949H47.7174H48.852H53.0234V41.1561C51.9556 40.7625 50.8241 40.5701 49.6863 40.5888Z" fill="#F9629F"/>
<path d="M54.25 75.5948V40.4219H69.2669C70.4015 40.4219 70.4683 40.4219 70.4683 41.7901V72.7583C70.4683 74.7605 69.7674 75.6616 68.0989 75.6616H54.7505L54.25 75.5948Z" fill="#FCDE63"/>
<path d="M20.8499 22.8676L18.0467 26.0044C16.3114 25.6707 14.4427 25.2703 12.5739 24.9699C12.3544 24.9187 12.126 24.9187 11.9065 24.9699C11.6604 25.0595 11.4481 25.2231 11.2987 25.4382C11.1493 25.6533 11.0702 25.9094 11.0722 26.1713C11.1461 26.4594 11.3097 26.7165 11.5394 26.9054C11.7177 27.0445 11.9219 27.1465 12.1401 27.2058C12.5698 27.3542 13.0204 27.433 13.4749 27.4394C15.4772 27.4394 16.812 27.4394 17.2125 27.9399C17.6129 28.4405 17.2125 28.4739 17.5462 29.1747C17.6758 29.4387 17.8206 29.695 17.98 29.9422C18.3805 31.2103 18.9811 32.445 19.5484 33.8466C19.0323 34.2268 18.4574 34.5198 17.8465 34.7142C14.8591 35.2143 11.7905 34.8075 9.0366 33.5462C7.61156 32.8247 6.41435 31.7223 5.57786 30.3616C4.74138 29.0008 4.29835 27.4349 4.29794 25.8376C4.28056 24.8253 4.47663 23.8207 4.87336 22.8892C5.27009 21.9578 5.85857 21.1203 6.60051 20.4315C7.83417 19.4844 9.35017 18.9791 10.9054 18.9965C14.5927 18.9707 18.1504 20.3556 20.8499 22.8676Z" fill="#F9629F"/>
<path d="M20.724 35.3164L24.6951 43.4589L22.9264 44.5935L10.8462 52.1353C9.61145 52.9029 9.0775 52.736 8.41009 51.4012L6.0074 46.4957C5.50684 45.4278 5.64031 44.727 6.54132 44.1597L20.457 35.3832L20.724 35.3164Z" fill="#FCDE63"/>
<path d="M40.2403 33.7136L36.3359 25.7713L37.0367 25.2707L50.3851 17.0948C51.7199 16.2939 52.2539 16.4608 52.9547 17.8957C53.6554 19.3307 54.5898 21.2328 55.3573 22.6678C55.4941 22.8474 55.5896 23.0549 55.6369 23.2756C55.6843 23.4962 55.6825 23.7247 55.6315 23.9445C55.5805 24.1644 55.4816 24.3704 55.342 24.5477C55.2023 24.725 55.0252 24.8693 54.8234 24.9704L40.7075 33.6802L40.2403 33.7136Z" fill="#FCDE63"/>
<path d="M21.9219 34.3166L34.5361 26.5078L38.6741 34.7504L26.0599 42.5592L21.9219 34.3166Z" fill="#F9629F"/>
<path d="M33.6332 24.4378L21.0523 32.28C20.5492 31.3693 20.0926 30.4337 19.6841 29.4768C19.4533 28.8856 19.43 28.2336 19.6179 27.6274C19.8058 27.0212 20.1939 26.4967 20.7186 26.1397C23.4884 24.3377 26.2915 22.569 29.1281 20.8671C29.3907 20.7102 29.6828 20.6089 29.9862 20.5695C30.2895 20.53 30.5978 20.5532 30.8918 20.6377C31.1859 20.7221 31.4594 20.866 31.6956 21.0605C31.9318 21.2549 32.1256 21.4958 32.2649 21.7681C32.2649 22.0351 32.5653 22.302 32.6988 22.569L33.6332 24.4378Z" fill="#F9629F"/>
<path d="M76.9085 34.7811C76.4392 34.6391 75.9818 34.4605 75.5403 34.2472C75.0535 33.8993 74.4701 33.7123 73.8718 33.7123C73.2734 33.7123 72.69 33.8993 72.2032 34.2472C71.863 34.4366 71.5054 34.593 71.1354 34.7144C70.9513 34.7775 70.7538 34.7907 70.5629 34.7527C70.3721 34.7147 70.1947 34.6267 70.0489 34.4979C69.9031 34.369 69.794 34.2038 69.7328 34.0191C69.6716 33.8344 69.6604 33.6367 69.7004 33.4463C69.7004 32.6454 69.7004 31.8111 69.9006 31.0102C69.894 30.7225 69.801 30.4435 69.6337 30.2093L68.1987 28.4406C67.4312 27.5396 67.7315 26.7054 68.8661 26.405C70.0007 26.1047 70.2677 26.1047 70.9018 25.9044C71.226 25.7949 71.5067 25.5844 71.7027 25.3038C72.1365 24.7365 72.4368 24.1024 72.8373 23.4684C73.2377 22.8343 74.3723 22.4673 75.0397 23.4684C75.7072 24.4695 75.7405 24.7031 76.1744 25.3038C76.3565 25.5548 76.6136 25.7418 76.9085 25.8377C77.6093 26.0713 78.3435 26.2048 79.0443 26.405C79.7451 26.6052 80.4125 27.5063 79.6783 28.3739C79.2506 28.9528 78.794 29.5097 78.3101 30.0425C78.1765 30.1831 78.077 30.3525 78.0191 30.5376C77.9613 30.7227 77.9467 30.9187 77.9764 31.1103C77.9764 31.8779 77.9764 32.6454 78.1432 33.4463C78.3101 34.2472 77.8095 34.7811 76.9085 34.7811ZM73.9719 25.237C73.5842 25.9734 73.0894 26.6482 72.5035 27.2393C71.7138 27.6365 70.8708 27.9175 70.0007 28.0736C70.7342 28.5682 71.2849 29.29 71.5683 30.128C71.8516 30.966 71.852 31.8739 71.5692 32.7121C72.2665 32.2023 73.108 31.9275 73.9719 31.9275C74.8357 31.9275 75.6772 32.2023 76.3746 32.7121C76.0885 31.8774 76.0837 30.972 76.3609 30.1343C76.6381 29.2966 77.1821 28.5728 77.9096 28.0736C77.05 27.918 76.218 27.6369 75.4402 27.2393C74.8517 26.6505 74.3565 25.9753 73.9719 25.237Z" fill="black" stroke="black" stroke-width="0.417136" stroke-miterlimit="10"/>
<path d="M73.979 25.2383C74.3636 25.9766 74.8588 26.6518 75.4473 27.2405C76.2251 27.6382 77.0571 27.9193 77.9167 28.0748C77.1892 28.5741 76.6452 29.2979 76.368 30.1356C76.0908 30.9732 76.0956 31.8787 76.3817 32.7134C75.6843 32.2035 74.8428 31.9288 73.979 31.9288C73.1151 31.9288 72.2736 32.2035 71.5762 32.7134C71.859 31.8751 71.8587 30.9672 71.5754 30.1292C71.292 29.2912 70.7413 28.5694 70.0078 28.0748C70.8779 27.9187 71.7209 27.6377 72.5106 27.2405C73.0964 26.6494 73.5913 25.9747 73.979 25.2383Z" fill="#88E9FF"/>
<path d="M62.2915 33.4474L61.4906 33.1137H61.0568L60.4227 33.3807C60.2351 33.4137 60.0431 33.4137 59.8554 33.3807C59.7371 33.3817 59.6198 33.3586 59.5108 33.3127C59.4018 33.2668 59.3033 33.1991 59.2214 33.1137C59.0362 32.8774 58.9522 32.5775 58.9878 32.2794L59.4216 31.9457H59.0211C59.0046 31.7458 59.0046 31.5449 59.0211 31.345C58.7542 30.9446 58.5206 30.6776 58.3203 30.4106C58.2098 30.2922 58.1333 30.1461 58.0988 29.9878C58.0643 29.8295 58.0731 29.6647 58.1243 29.511C58.1756 29.3573 58.2673 29.2203 58.3899 29.1143C58.5125 29.0084 58.6614 28.9374 58.8209 28.909L59.7887 28.642C59.959 28.474 60.105 28.2831 60.2225 28.0747V27.7744C60.3016 27.6096 60.4242 27.4696 60.5772 27.3696C60.7301 27.2696 60.9075 27.2134 61.0901 27.207C61.2653 27.2089 61.4363 27.26 61.5838 27.3544C61.7314 27.4488 61.8494 27.5827 61.9244 27.741L62.1246 28.1081C62.2144 28.3064 62.3386 28.4872 62.4917 28.642L63.059 28.8088H63.4595C63.6304 28.8414 63.7903 28.9166 63.9245 29.0275C64.0587 29.1383 64.1627 29.2812 64.227 29.4429C64.2668 29.6112 64.2664 29.7865 64.2258 29.9547C64.1852 30.1228 64.1056 30.279 63.9934 30.4106L63.326 31.1782C63.326 31.4785 63.326 31.6787 63.326 31.9123V32.2794C63.3469 32.4219 63.3369 32.5672 63.2966 32.7054C63.2563 32.8436 63.1866 32.9715 63.0924 33.0803C62.9247 33.2497 62.6967 33.3457 62.4583 33.3473L62.2915 33.4474ZM60.3226 30.3105C60.5542 30.659 60.6921 31.0613 60.723 31.4785H61.2904H61.8577C61.8732 31.0583 62.0125 30.6519 62.2581 30.3105C62.0546 30.256 61.8625 30.1656 61.6908 30.0436C61.5321 29.9245 61.3964 29.7774 61.2904 29.6097C61.1939 29.7846 61.0565 29.9335 60.8899 30.0436C60.7291 30.2132 60.5363 30.3493 60.3226 30.444V30.3105Z" fill="black"/>
<path d="M61.291 27.8744C61.3956 27.8842 61.496 27.9198 61.5834 27.9781C61.6707 28.0363 61.7423 28.1154 61.7916 28.2081C61.9515 28.5795 62.1777 28.9187 62.459 29.2092C62.8074 29.3683 63.1793 29.4697 63.5602 29.5096C64.0942 29.6764 64.1943 30.0101 63.8606 30.4439L63.1932 31.2448C63.1742 31.3441 63.1742 31.446 63.1932 31.5452V32.6131C63.1932 33.0135 63.1932 33.2471 62.726 33.2471H62.4256C62.1752 33.1616 61.93 33.0613 61.6914 32.9468C61.5595 32.9178 61.4229 32.9178 61.291 32.9468C61.1475 32.9218 61.0007 32.9218 60.8572 32.9468L60.1898 33.2137H59.8561C59.5557 33.2137 59.3889 32.9801 59.4222 32.5463C59.4057 32.2796 59.4057 32.0121 59.4222 31.7454C59.4401 31.6516 59.4307 31.5546 59.3953 31.4659C59.3598 31.3772 59.2997 31.3005 59.222 31.2448L58.6213 30.4773C58.321 30.1102 58.6213 29.7765 58.8883 29.643L59.8894 29.3761C59.9604 29.357 60.0267 29.3234 60.0842 29.2774C60.1416 29.2315 60.1889 29.1742 60.2231 29.1091C60.4093 28.8547 60.5766 28.587 60.7237 28.3082C60.7704 28.2135 60.8413 28.1328 60.9292 28.0742C61.0171 28.0156 61.1188 27.9812 61.2243 27.9745M60.1564 32.4128C60.4689 32.1888 60.8401 32.0612 61.2243 32.0458C61.6096 32.0551 61.9825 32.1833 62.2921 32.4128C62.1075 32.0063 62.0803 31.5456 62.216 31.1202C62.3516 30.6948 62.6404 30.3349 63.0263 30.1102C62.6362 30.013 62.2563 29.8789 61.8917 29.7098C61.6358 29.4434 61.422 29.1396 61.2576 28.8088C61.0899 29.1376 60.8765 29.4409 60.6236 29.7098C60.3282 29.8781 60.0148 30.0124 59.6892 30.1102C60.0123 30.3345 60.2548 30.6566 60.3809 31.0291C60.5071 31.4016 60.5103 31.8048 60.39 32.1792M61.4579 26.9066C61.2091 26.9049 60.9648 26.9727 60.7525 27.1024C60.5402 27.2322 60.3684 27.4186 60.2565 27.6408L60.0563 27.9745L59.7893 28.4083H59.4222H58.9217C58.7023 28.464 58.4997 28.5721 58.3311 28.7232C58.1626 28.8743 58.0332 29.0639 57.9539 29.276C57.8902 29.4983 57.8812 29.7328 57.9277 29.9595C57.9742 30.1861 58.0748 30.3981 58.2209 30.5774C58.4211 30.811 58.6213 31.078 58.8549 31.3116C59.0885 31.5452 58.8549 31.6453 58.8549 31.8122V32.0458C58.8152 32.2739 58.8244 32.508 58.8819 32.7323C58.9395 32.9567 59.044 33.1663 59.1886 33.3472C59.3056 33.4782 59.45 33.5819 59.6114 33.6511C59.7728 33.7203 59.9475 33.7533 60.123 33.7477C60.3334 33.7757 60.5466 33.7757 60.7571 33.7477L61.5246 33.4139L62.2921 33.7143C62.5229 33.766 62.7622 33.766 62.9929 33.7143C63.345 33.7093 63.6808 33.5653 63.9273 33.3138C64.0627 33.1598 64.1652 32.9797 64.2283 32.7845C64.2914 32.5894 64.3139 32.3834 64.2944 32.1792V31.8122C64.2944 31.6119 64.2944 31.4451 64.2944 31.2782L64.6281 30.9111L64.8617 30.6108C65.0249 30.4274 65.1407 30.2068 65.1989 29.9682C65.2571 29.7297 65.2559 29.4805 65.1954 29.2426C65.1119 29.018 64.9735 28.8178 64.7928 28.6604C64.6121 28.5031 64.3948 28.3934 64.1609 28.3416H63.6937H63.2933L63.093 27.9411L62.8594 27.574C62.7475 27.3519 62.5757 27.1654 62.3634 27.0357C62.1511 26.906 61.9068 26.8381 61.6581 26.8399L61.4579 26.9066ZM61.0908 30.5107H61.291H61.5246C61.5104 30.6772 61.5104 30.8447 61.5246 31.0112H61.1242V30.5107H61.0908Z" fill="black"/>
<path d="M63.0324 30.1101C63.1384 30.4783 63.1286 30.8703 63.0043 31.2328C62.8801 31.5953 62.6474 31.9108 62.3378 32.1366C62.0282 32.3625 61.6566 32.4876 61.2735 32.4952C60.8904 32.5028 60.5142 32.3925 60.1959 32.1791C60.3378 31.8249 60.3659 31.4354 60.2762 31.0646C60.1865 30.6938 59.9834 30.3601 59.6953 30.1101C60.0897 30.0279 60.4713 29.8932 60.8299 29.7096C61.0828 29.4407 61.2963 29.1374 61.464 28.8086C61.6283 29.1394 61.8421 29.4432 62.098 29.7096C62.3983 29.8679 62.7107 30.0018 63.0324 30.1101Z" fill="#BE7CF7"/>
<path d="M65.4621 16.7613C64.69 16.748 63.9393 16.5061 63.3047 16.0661C62.6701 15.6262 62.1803 15.0079 61.8971 14.2895C61.6139 13.5712 61.55 12.785 61.7136 12.0303C61.8772 11.2757 62.2609 10.5865 62.8161 10.0499C63.3714 9.51332 64.0733 9.15342 64.8331 9.01571C65.5929 8.87801 66.3765 8.96869 67.0847 9.27628C67.793 9.58388 68.3941 10.0946 68.8122 10.7438C69.2302 11.393 69.4463 12.1516 69.4332 12.9237C69.4245 13.4364 69.3149 13.9425 69.1106 14.4128C68.9064 14.8832 68.6114 15.3088 68.2426 15.6651C67.8739 16.0215 67.4385 16.3017 66.9614 16.4898C66.4843 16.6779 65.9749 16.7702 65.4621 16.7613ZM65.4621 15.1929C65.9226 15.1863 66.3709 15.0437 66.7507 14.7831C67.1304 14.5225 67.4246 14.1554 67.5963 13.728C67.768 13.3006 67.8095 12.832 67.7157 12.3811C67.6218 11.9302 67.3967 11.5171 67.0687 11.1937C66.7407 10.8704 66.3245 10.6512 65.8723 10.5637C65.4201 10.4763 64.9521 10.5244 64.5272 10.7022C64.1023 10.8799 63.7395 11.1793 63.4842 11.5627C63.229 11.9461 63.0928 12.3964 63.0927 12.857C63.0782 13.1836 63.1324 13.5097 63.2518 13.814C63.3712 14.1184 63.5531 14.3944 63.7859 14.624C64.0187 14.8536 64.297 15.0318 64.603 15.147C64.909 15.2623 65.2358 15.312 65.5622 15.293L65.4621 15.1929Z" fill="black" stroke="black" stroke-width="0.417136" stroke-miterlimit="10"/>
<path d="M65.5725 15.2928C65.2629 15.2972 64.9555 15.24 64.6683 15.1246C64.381 15.0092 64.1195 14.8379 63.899 14.6205C63.6786 14.4031 63.5035 14.1441 63.3841 13.8585C63.2646 13.5729 63.2031 13.2664 63.2031 12.9568C63.2032 12.4962 63.3394 12.046 63.5946 11.6626C63.8498 11.2792 64.2127 10.9798 64.6376 10.802C65.0625 10.6243 65.5305 10.5761 65.9827 10.6636C66.4349 10.7511 66.8511 10.9702 67.1791 11.2936C67.5071 11.617 67.7322 12.0301 67.826 12.481C67.9199 12.9319 67.8784 13.4005 67.7067 13.8279C67.535 14.2553 67.2407 14.6223 66.861 14.883C66.4813 15.1436 66.033 15.2862 65.5725 15.2928Z" fill="#FFCE01"/>
<path d="M73.0466 41.8571C73.1023 40.9878 72.8158 40.1312 72.2484 39.4702C71.681 38.8093 70.8776 38.3964 70.0099 38.3198H38.2408C38.4105 38.0387 38.6525 37.8082 38.9416 37.6524L55.0931 27.6411C55.6727 27.3437 56.182 26.9259 56.5869 26.4156C56.9919 25.9054 57.2831 25.3144 57.4411 24.6825C57.5991 24.0505 57.6202 23.3921 57.503 22.7513C57.3858 22.1105 57.1331 21.5021 56.7617 20.967L54.5925 16.7622C54.4059 16.2059 54.0909 15.7014 53.6731 15.2894C53.2553 14.8775 52.7463 14.5697 52.1874 14.391C51.6286 14.2123 51.0354 14.1677 50.4561 14.2608C49.8768 14.3538 49.3275 14.582 48.8527 14.9268L42.579 18.8312L41.9116 19.1316L42.4122 17.8301C43.3447 15.3628 43.6653 12.7063 43.3465 10.088C43.2483 8.71554 42.8263 7.38584 42.1151 6.20789C41.4038 5.02994 40.4236 4.03727 39.2548 3.31121C38.0859 2.58514 36.7616 2.14634 35.3905 2.03077C34.0193 1.91521 32.6403 2.12616 31.3664 2.64633C31.1208 2.76607 30.8955 2.92373 30.699 3.11352C28.7266 4.47769 27.1403 6.32843 26.0938 8.48624L25.8936 9.02017C24.668 12.4149 24.2121 16.0396 24.5587 19.6321C24.6144 19.9582 24.5633 20.2935 24.413 20.5881C24.2626 20.8828 24.0211 21.121 23.7245 21.2673C23.1238 21.6344 22.7567 21.2673 22.2895 21.0671C19.5421 18.7522 16.2225 17.2192 12.6787 16.6287C10.2105 16.3164 7.71897 16.9941 5.74908 18.5137C3.7792 20.0333 2.49125 22.2712 2.16686 24.7379C2.12409 24.8446 2.06802 24.9455 2 25.0382V27.7412V28.0082C2.23845 29.7363 2.92433 31.3721 3.98965 32.7535C5.05496 34.1349 6.46274 35.214 8.0735 35.8838C9.47508 36.4844 10.9768 36.8181 12.4785 37.3187L11.8111 37.7859C9.64194 39.1207 7.43946 40.4556 5.13687 41.8238C4.20765 42.4051 3.53072 43.3143 3.24023 44.3712C2.94974 45.4281 3.06688 46.5556 3.56844 47.5302C4.43608 49.399 5.33709 51.2344 6.30485 53.003C6.50896 53.4586 6.80633 53.8663 7.17777 54.1998C7.54921 54.5334 7.98647 54.7853 8.46131 54.9394C8.93614 55.0935 9.43799 55.1463 9.9345 55.0944C10.431 55.0425 10.9111 54.8871 11.3439 54.6382C12.1781 54.171 12.979 53.6371 13.7799 53.1365L19.9869 49.3322V50.5002C19.9869 57.8418 19.9869 65.1834 19.9869 72.4916C19.8682 73.622 20.1327 74.7596 20.7378 75.7217C21.3429 76.6839 22.2537 77.415 23.324 77.7976C23.9336 77.9592 24.5622 78.0378 25.1928 78.0312H68.7084C69.3361 77.9767 69.9467 77.7986 70.5051 77.5069C71.0636 77.2153 71.5587 76.816 71.962 76.332C72.3653 75.848 72.6688 75.289 72.855 74.6871C73.0411 74.0853 73.1063 73.4525 73.0466 72.8253C73.0466 62.4804 73.0466 52.1576 73.0466 41.8571ZM26.3274 41.8571L22.4897 34.1818L34.2363 26.907L38.0739 34.5823L26.3274 41.8571ZM49.687 17.2962C50.9217 16.4953 51.4557 16.6621 52.1231 18.0303C52.7905 19.3985 53.6582 21.0337 54.3923 22.5687C54.5235 22.7399 54.6154 22.9378 54.6614 23.1484C54.7075 23.359 54.7065 23.5772 54.6588 23.7874C54.611 23.9977 54.5175 24.1948 54.3849 24.3648C54.2524 24.5349 54.084 24.6736 53.8918 24.7712L40.5434 33.0472H40.2764L36.4721 25.5054L37.1729 25.0382C41.5111 22.5465 45.7715 20.0103 49.954 17.4296L49.687 17.2962ZM27.2284 12.9246C27.5279 11.5577 27.9409 10.2182 28.4631 8.92006C29.394 7.32796 30.7 5.98757 32.2674 5.01566C32.8567 4.78205 33.4735 4.62504 34.1028 4.54847C35.1269 4.5491 36.1371 4.78537 37.0552 5.23901C37.9734 5.69265 38.7748 6.35149 39.3974 7.16452C40.0201 7.97755 40.4474 8.92296 40.6461 9.92758C40.8448 10.9322 40.8097 11.9691 40.5434 12.9579C40.0975 15.8895 38.9529 18.6708 37.2063 21.0671C36.6074 21.7996 35.9366 22.4704 35.2041 23.0693C34.4699 21.8012 33.9693 20.7334 33.3019 19.7322C33.1128 19.5235 32.9847 19.2668 32.9317 18.9901C32.8788 18.7135 32.9029 18.4276 33.0016 18.1638C33.5355 16.6287 34.0361 15.0603 34.6367 13.5252C35.0038 12.5909 34.8703 11.7566 34.2029 11.3561C34.0402 11.2628 33.8584 11.2078 33.6712 11.1953C33.4841 11.1828 33.2966 11.213 33.1229 11.2838C32.9492 11.3546 32.7939 11.464 32.6688 11.6037C32.5437 11.7435 32.4521 11.9099 32.4009 12.0903C31.6 13.9257 30.9326 15.8278 30.2318 17.6632L26.5944 18.5643C27.1283 16.7622 27.1617 14.9268 27.4954 13.058L27.2284 12.9246ZM20.8212 25.9392C23.4241 24.2707 26.027 22.6021 28.6967 21.0671C28.939 20.9253 29.2072 20.8336 29.4856 20.7972C29.7639 20.7608 30.0467 20.7805 30.3173 20.8551C30.5879 20.9298 30.8408 21.0578 31.0611 21.2318C31.2814 21.4058 31.4646 21.6221 31.6 21.868C31.7532 22.113 31.8871 22.3697 32.0004 22.6355C32.3008 23.1694 32.5677 23.7367 32.8681 24.3708L21.3885 31.7791C20.9547 30.8447 20.4875 30.0438 20.1538 29.1762C19.9229 28.6312 19.8899 28.0225 20.0605 27.4557C20.2312 26.8889 20.5947 26.3997 21.0882 26.0727L20.8212 25.9392ZM8.6408 32.847C7.48813 32.2892 6.50755 31.4304 5.80268 30.3614C5.0978 29.2923 4.69481 28.0527 4.6363 26.7735C4.55842 25.899 4.65384 25.0177 4.9171 24.1802C5.18036 23.3426 5.60628 22.5652 6.17047 21.8925C6.73466 21.2198 7.42601 20.6651 8.20495 20.26C8.98389 19.855 9.8351 19.6076 10.7098 19.532C14.2416 19.5106 17.6596 20.7804 20.3206 23.1027L17.6176 26.0059C15.949 25.7056 14.2805 25.3385 12.3116 25.0716C12.139 25.0431 11.9623 25.0515 11.7933 25.0965C11.6242 25.1414 11.4666 25.2217 11.3309 25.3322C11.1953 25.4426 11.0846 25.5806 11.0063 25.737C10.9279 25.8935 10.8838 26.0647 10.8767 26.2395C10.8154 26.5966 10.8914 26.9635 11.0895 27.2668C11.2876 27.5701 11.593 27.7873 11.9445 27.8747H12.6119L16.6832 28.7757C16.9021 28.8202 17.1024 28.9302 17.2574 29.0911C17.4123 29.252 17.5147 29.4563 17.5509 29.6768C17.9513 30.8781 18.5186 32.0127 19.0525 33.3142C18.559 33.6835 18.006 33.9656 17.4174 34.1485C14.5277 34.6019 11.5684 34.1957 8.90777 32.9805L8.6408 32.847ZM10.6431 51.5347C9.47509 52.2355 8.97452 52.0686 8.34048 50.8005C7.70643 49.5324 6.77205 47.7304 6.00452 46.1954C5.53733 45.1942 5.6708 44.5602 6.53844 44.0262L19.8868 35.7169H20.1204L24.2584 43.4589L22.5898 44.4934L10.6431 51.5347ZM38.9082 73.7263V74.861H25.5598C23.5576 74.861 22.8902 74.0934 22.8902 71.8242C22.8902 64.0154 22.8902 56.2289 22.8902 48.4646C22.8548 48.1794 22.9059 47.8901 23.0368 47.6343C23.1677 47.3784 23.3724 47.1678 23.6244 47.0296C26.5944 45.261 29.531 43.3922 32.501 41.5902C32.9701 41.3236 33.4968 41.1747 34.0361 41.1563C35.738 41.1563 37.3732 41.1563 39.2086 41.1563V51.1676C39.2086 52.0686 39.2086 52.9363 39.2086 53.8373V73.8598L38.9082 73.7263ZM51.2888 74.7942H41.5112V62.5471V52.8028V41.2564H51.2888V74.7942ZM70.2101 72.0578C70.2101 73.9933 69.5093 74.861 67.8408 74.861H54.4924H53.8918V41.1897H68.9087C70.0433 41.1897 70.11 41.1897 70.11 42.4912L70.2101 72.0578Z" fill="black"/>
</g>
<defs>
<clipPath id="clip0_2866_25760">
<rect width="80" height="80" fill="white" transform="translate(0.671875)"/>
</clipPath>
</defs>
</svg>
