<svg width="81" height="80" viewBox="0 0 81 80" fill="none" xmlns="http://www.w3.org/2000/svg">
<path d="M27.2439 22.9061C27.2439 19.657 27.2439 16.4079 27.2439 13.1588C27.2439 9.90973 29.1284 7.79783 28.6085 4.84116C28.6085 4.25633 29.2583 3.80145 30.0056 3.80145H31.8901C35.919 3.80145 35.1392 3.80145 36.1139 7.86282C38.1608 17.2527 36.6013 26.675 37.1536 36.0649C37.1536 37.0071 37.3161 37.5595 38.4857 37.5595C39.6554 37.5595 39.6554 36.5523 39.6554 35.74C39.6554 24.9205 39.6554 14.101 39.6554 3.24909C39.6554 0 39.6554 0 42.9045 0C46.1536 0 48.7204 0 51.6121 0C53.9189 0 54.8612 0.552364 54.6987 2.98918C54.6987 9.25992 54.6987 15.5307 54.6987 21.6389C55.1536 22.0613 55.381 21.8339 55.446 21.6389C56.6157 17.935 60.1897 16.018 61.9442 12.7689C62.4103 12.046 63.1441 11.5375 63.9846 11.3548C64.8251 11.1721 65.7038 11.3301 66.4279 11.7942C67.2578 12.2323 67.8904 12.9691 68.1979 13.8556C68.5055 14.7422 68.4651 15.7125 68.085 16.5704C67.1664 18.1343 66.5802 19.8708 66.3629 21.6714C66.2565 22.2248 66.3479 22.798 66.621 23.2909C66.8942 23.7838 67.3319 24.1651 67.8575 24.3682C69.6445 25.2454 69.9044 26.3501 68.8322 28.0072C67.76 29.6642 66.3304 32.3609 65.1283 34.5053C64.7059 35.2201 64.2835 35.5775 63.4388 35.0252C62.594 34.4728 62.464 34.018 62.9189 33.2382C63.9586 31.4187 64.9333 29.5667 66.168 27.7797C66.7528 26.87 66.5904 26.3826 65.7131 25.8627C64.8359 25.3429 64.4459 25.8628 64.0561 26.6101L58.7276 36.0974C58.1427 37.1046 58.3377 37.527 59.5723 37.4945C61.5218 37.4945 63.4387 37.4945 65.3882 37.4945C66.7203 37.4945 67.3052 38.0793 67.2727 39.4115C67.2727 41.2526 67.2727 43.1046 67.2727 44.9674C67.2727 46.267 67.2727 47.3717 65.5182 47.5342C63.7637 47.6966 64.8034 48.8013 64.8034 49.4836C64.8034 57.1515 64.8034 64.8194 64.8034 72.4872C64.8034 77.5883 62.464 79.9601 57.4604 79.9601H24.4172C23.4509 80.0677 22.4727 79.957 21.5548 79.6364C20.637 79.3157 19.8028 78.7931 19.1137 78.1071C18.4246 77.4212 17.8982 76.5893 17.5734 75.6729C17.2485 74.7565 17.1335 73.7789 17.2367 72.8121V49.5486C17.2367 48.5414 17.5616 47.4042 15.8396 47.3717C14.8649 47.3717 14.7349 46.397 14.7349 45.5197C14.7349 43.6678 14.7349 41.8158 14.7349 39.9638C14.7349 38.1118 15.1898 37.2995 17.0743 37.4945C18.9587 37.6894 18.4389 36.8447 18.0815 35.7725C16.2945 30.5739 14.5075 25.4079 12.818 20.1768C12.4815 19.3601 12.3151 18.4833 12.3289 17.6C12.3428 16.7168 12.5365 15.8456 12.8984 15.0398C13.2602 14.234 13.7826 13.5104 14.4336 12.9132C15.0845 12.3161 15.8504 11.8579 16.6844 11.5668C17.498 11.3349 18.3506 11.2736 19.189 11.3867C20.0274 11.4999 20.8334 11.785 21.5564 12.2243C22.2794 12.6636 22.9038 13.2475 23.3905 13.9395C23.8772 14.6315 24.2157 15.4165 24.3847 16.2454C25.197 18.4873 25.9767 20.7292 26.7565 22.9711L27.2439 22.9061Z" fill="black"/>
<path d="M41.1537 47.5C47.457 47.5 53.7602 47.5 60.0634 47.5C61.6555 47.5 62.2728 47.8249 62.2728 49.6119C62.2728 57.3447 62.2728 65.1101 62.2728 72.8429C62.2728 76.092 60.9406 77.4891 57.5616 77.5216H24.3234C21.0743 77.5216 19.7422 76.1895 19.7422 73.0054C19.7422 65.24 19.7422 57.5072 19.7422 49.7419C19.7422 47.7924 20.392 47.5325 22.0815 47.5325C28.4173 47.565 34.7855 47.5 41.1537 47.5Z" fill="#FCDE63"/>
<path d="M52.2097 15.3048C52.112 16.5917 52.112 17.8842 52.2097 19.1712C53.2494 25.6694 50.6177 31.0629 47.3036 36.3589C46.069 38.2758 44.4119 37.5285 42.9823 37.4311C41.5527 37.3336 42.3975 35.904 42.235 35.0592C42.0726 34.2145 42.4625 33.6621 43.4372 33.7921C44.4119 33.922 44.7693 33.5646 44.7368 32.5899C44.7043 31.6152 44.4769 31.1603 43.5022 31.2903C42.5275 31.4203 42.2025 30.8029 42.2025 29.8607C42.2025 28.9185 43.1448 28.821 43.8596 28.7885C44.5744 28.756 45.3217 28.7885 46.0365 28.7885C46.7513 28.7885 47.1737 28.2686 47.2062 27.4239C47.2387 26.5791 46.8812 26.2867 46.069 26.2867H43.4047C42.6249 26.2867 42.17 26.0268 42.2025 25.182C42.235 24.3372 42.2025 23.7849 43.0798 23.7849C43.9571 23.7849 44.8018 23.7849 44.7368 22.3878C44.6718 20.9907 43.8921 21.2506 43.0798 21.2181C42.2675 21.1856 42.235 20.5033 42.2025 19.8535C42.17 19.2037 42.5924 18.7163 43.3722 18.7488C44.152 18.7813 44.9968 18.7488 45.809 18.7488C46.6213 18.7488 47.2711 18.5539 47.2386 17.4167C47.2061 16.2795 46.7188 16.2145 45.874 16.247C45.0293 16.2795 44.4119 16.247 43.6971 16.247C42.9823 16.247 42.2025 16.442 42.2025 15.2723C42.2025 14.1026 42.2026 13.6152 43.4372 13.7452C44.6719 13.8752 44.7368 13.5178 44.7368 12.543C44.7368 11.5683 44.4119 11.1784 43.4697 11.2759C42.5274 11.3734 42.2025 10.6586 42.2025 9.78131C42.2025 8.90406 43.0148 8.7741 43.7296 8.7741H45.9065C46.7838 8.7741 47.2387 8.54666 47.2062 7.57193C47.1737 6.59721 46.9787 6.17484 46.004 6.23982C45.0292 6.3048 44.8668 6.23982 44.3145 6.23982C42.8849 6.23982 42.1375 6.23981 42.1375 4.35534C42.1375 2.47087 42.9174 2.43837 44.3145 2.47086C46.3939 2.47086 48.5058 2.47086 50.5852 2.47086C51.8848 2.47086 52.2422 2.86075 52.2097 4.09541C52.1772 7.89684 52.2097 11.6008 52.2097 15.3048Z" fill="#E84586"/>
<path d="M40.7379 44.9995C33.5574 44.9995 26.3769 44.9995 19.164 44.9995C16.8896 44.9995 17.247 43.7973 17.247 42.4652C17.247 41.1331 16.9221 39.8984 19.1964 39.8984C33.7307 40.0284 48.2541 40.0284 62.7667 39.8984C65.0411 39.8984 64.7162 41.1006 64.7162 42.4652C64.7162 43.8298 65.0411 45.0645 62.7667 44.9995C55.4238 44.9021 48.1458 44.9995 40.7379 44.9995Z" fill="#FFCE01"/>
<path d="M63.5981 22.0948C63.3707 22.5497 63.2083 22.9071 63.0133 23.232L57.2624 33.5966C56.7751 34.5063 56.1902 35.3836 55.183 34.2464C54.1758 33.1092 51.674 33.5641 53.0386 30.9973C54.9556 27.5533 56.8725 24.1092 58.822 20.6977C59.1469 20.1129 59.3743 19.0731 60.3166 19.6255C61.6054 20.1513 62.7359 21.0021 63.5981 22.0948Z" fill="#D1FFA1"/>
<path d="M34.7165 30.8328C34.7165 32.4573 34.7165 34.0818 34.7165 35.6739C34.7165 36.3237 35.2689 37.4609 33.8718 37.5259C32.4747 37.5908 31.7924 37.7858 31.11 36.3237C29.8394 32.6647 29.3632 28.7769 29.713 24.9194C29.713 24.1396 30.0378 23.8472 30.8501 23.7497C34.4241 23.2949 34.7165 23.5223 34.7165 27.2263V30.8328Z" fill="#6E3E90"/>
<path d="M14.7529 18.3926C14.6265 17.4274 14.8536 16.449 15.3921 15.6381C15.9306 14.8272 16.7442 14.2384 17.6829 13.9804C18.115 13.8351 18.5717 13.7771 19.0265 13.8095C19.4812 13.842 19.9251 13.9644 20.3322 14.1696C20.7394 14.3747 21.1018 14.6587 21.3984 15.0049C21.6951 15.3511 21.9202 15.7527 22.0605 16.1865C24.5424 21.2881 24.439 21.357 19.234 23.4597C17.3381 24.2525 16.304 24.1836 15.787 21.943C15.5278 20.7363 15.1822 19.5498 14.7529 18.3926Z" fill="#FCEFB9"/>
<path d="M29.7576 16.8292C29.8063 16.3431 29.8063 15.8533 29.7576 15.3672C29.3677 13.1253 30.1475 12.313 32.5518 12.443C34.3388 12.443 35.0536 12.8978 34.7937 14.7173C34.7335 15.7995 34.7335 16.8842 34.7937 17.9664C34.7937 21.2155 34.7937 21.2155 31.5446 21.2155C30.115 21.2155 29.4327 20.9231 29.6602 19.3635C29.7531 18.5222 29.7856 17.6752 29.7576 16.8292Z" fill="#6E3E90"/>
<path d="M28.6536 36.7785C28.6536 37.3309 28.3611 37.5258 27.9388 37.5258C27.5164 37.5258 26.3792 37.7533 26.0543 36.876C25.2745 34.6017 24.5597 32.3273 23.7799 30.0529C23.7219 29.9234 23.6961 29.7818 23.7048 29.6401C23.7135 29.4985 23.7564 29.3611 23.8299 29.2397C23.9033 29.1183 24.0052 29.0165 24.1267 28.9431C24.2481 28.8697 24.3856 28.8269 24.5272 28.8183C25.0146 28.8183 25.6319 28.2334 25.9243 29.0782C26.9965 31.645 27.8738 34.2117 28.6536 36.7785Z" fill="#88E9FF"/>
<path d="M24.7811 25.1143C24.9435 25.8941 24.7811 26.1865 24.1313 26.3815L19.2252 28.2335C18.4454 28.5259 18.023 28.2335 17.7956 27.4212C17.5681 26.6089 17.4706 26.1215 18.2504 25.7966C19.94 25.1143 21.4995 24.3995 23.384 23.8472C24.5537 23.4898 24.5861 24.5945 24.7811 25.1143Z" fill="#FF7503"/>
<path d="M20.5762 30.3477C21.9083 30.3477 21.7458 31.4198 21.9083 32.0372C22.3956 33.8242 23.8578 35.2863 23.1755 37.3657C23.1755 37.7881 21.356 37.983 20.9336 36.5859C20.5112 35.1888 19.9264 33.5318 19.3415 32.0372C18.7567 30.5426 19.8939 30.6726 20.5762 30.3477Z" fill="#009ECF"/>
<path d="M64.3746 13.7773C65.4143 13.7773 65.9667 14.2647 65.9017 14.947C65.8521 15.6919 65.6331 16.4157 65.2615 17.0632C64.8899 17.7107 64.3754 18.2648 63.7573 18.6835C63.2699 18.9434 62.0027 18.3261 62.2302 17.3838C62.5265 15.9776 63.2807 14.7093 64.3746 13.7773Z" fill="#2C5F2D"/>
<path d="M33.4924 8.22188C33.4924 9.2291 33.6873 10.0739 32.2577 10.0739C30.8281 10.0739 30.9906 9.06665 30.9581 8.15691C30.9256 7.24716 30.7631 6.20745 32.3227 6.27243C33.8823 6.33741 33.3299 7.50708 33.4924 8.22188Z" fill="#3B1160"/>
<path d="M55.0895 37.5933H51.3855C50.8657 37.5933 50.1184 37.8857 49.8909 37.2684C49.6635 36.651 50.3133 35.9362 50.6707 35.3839C50.7553 35.2697 50.8655 35.1768 50.9925 35.1129C51.1194 35.0489 51.2596 35.0156 51.4018 35.0156C51.5439 35.0156 51.6841 35.0489 51.811 35.1129C51.938 35.1768 52.0482 35.2697 52.1328 35.3839C52.9776 35.9037 54.1472 36.1637 55.0895 37.5933Z" fill="#D1FFA1"/>
<path d="M22.1455 62.8376C22.1455 60.6607 22.1455 58.5163 22.1455 56.3394C22.1455 55.2672 22.5353 54.9423 23.5426 54.9748C24.5498 55.0073 24.7448 55.4297 24.7448 56.307C24.7448 60.7907 24.7448 65.3069 24.7448 69.7907C24.7448 70.7329 24.7448 71.3178 23.4776 71.3178C22.2105 71.3178 22.113 70.8304 22.1455 69.8232C22.1455 67.5163 22.1455 65.177 22.1455 62.8376Z" fill="#151515"/>
<path d="M24.6984 51.3348C24.6984 52.3095 24.2761 52.537 23.3988 52.537C22.5216 52.537 22.2292 52.0496 22.1967 51.2048C22.1642 50.3601 22.7165 50.0352 23.5288 50.0352C24.341 50.0352 24.8284 50.4251 24.6984 51.3348Z" fill="black"/>
</svg>
