<svg width="81" height="80" viewBox="0 0 81 80" fill="none" xmlns="http://www.w3.org/2000/svg">
<path d="M21.4922 35.0344V77.6269H53.5964L53.253 36.0448L50.5633 33.9609L48.0454 35.4765L43.5245 33.9609L40.2053 36.0448L36.1708 33.9609L32.8803 36.6447L29.5897 33.9609L26.7284 36.1711L22.465 33.9609L21.4922 35.0344Z" fill="#FCDE63"/>
<path d="M65.0265 2.51172L66.2283 2.8906C67.1944 3.24025 68.0861 3.80226 68.8499 4.54272C69.6136 5.28318 70.2335 6.18673 70.6721 7.19883C71.1106 8.21093 71.3588 9.3106 71.4015 10.4314C71.4443 11.5523 71.2808 12.6711 70.9209 13.7203C69.5761 17.7617 68.2026 21.7715 66.8292 25.7813C66.0566 27.9914 65.3127 30.2016 64.5688 32.4433C64.5253 32.7784 64.5253 33.1186 64.5688 33.4536C64.5688 33.7378 64.5688 33.9904 64.5688 34.2745V70.9944C64.6099 71.8771 64.4826 72.7595 64.1952 73.5844C63.9077 74.4094 63.4665 75.1586 62.9001 75.7836C62.3338 76.4086 61.6548 76.8954 60.9072 77.2125C60.1595 77.5297 59.3599 77.6702 58.5599 77.6248H27.0852V75.1621H52.0361V37.7476C52.0652 37.4988 52.0228 37.2462 51.9151 37.0253C51.8073 36.8045 51.6394 36.6264 51.4352 36.5163C50.8629 36.1689 50.2907 35.4428 49.747 35.4743C49.2034 35.5059 48.6311 36.1374 48.0588 36.5478C46.2562 37.9055 46.4851 37.9055 44.6538 36.5478C44.0816 36.1058 43.5093 35.4428 42.9084 35.4428C42.3075 35.4428 41.7925 36.1374 41.2488 36.5163C39.4176 37.9055 39.6179 37.8423 37.8438 36.5163C37.2716 36.1058 36.7279 35.4428 36.1556 35.4112C35.5834 35.3796 35.0397 36.1058 34.4961 36.5163C32.6076 37.8739 32.8651 37.8739 31.0052 36.5163C30.4616 36.1058 29.8893 35.4428 29.3457 35.4428C28.802 35.4428 28.2011 36.1058 27.6575 36.5163C25.769 37.9055 26.0265 37.8423 24.1953 36.5163L23.6802 36.1689V55.113H21.3911V54.1974C21.3911 47.8827 21.3911 41.568 21.3911 35.2533C21.4142 34.6729 21.2292 34.1057 20.8761 33.6747C20.4254 33.124 20.005 32.5442 19.6171 31.9381C18.855 30.8826 18.3983 29.5984 18.3065 28.2526C18.2146 26.9068 18.4919 25.5617 19.1021 24.3921L19.2738 23.9816L14.9531 19.5614L16.4697 17.7301L17.7 18.9615C18.6157 19.9087 19.5599 20.8243 20.5614 21.8031C20.8475 22.0872 21.0764 22.2135 21.4484 21.8031L18.587 15.8988L20.5614 14.7306L21.7345 17.0671L23.1652 15.2042L23.5085 15.4568L22.6215 14.4465C21.9848 13.7706 21.5951 12.8602 21.5265 11.8882C21.458 10.9162 21.7152 9.9502 22.2495 9.17371C22.7709 8.39792 23.541 7.87111 24.4026 7.70092C25.2641 7.53074 26.1521 7.73004 26.8849 8.25808L27.2283 8.41594C26.9994 5.70063 27.4858 3.49049 30.0896 2.79588H30.8908C33.5805 3.55364 34.0669 5.73221 33.7521 8.51067C34.4208 7.95731 35.234 7.65818 36.0698 7.65818C36.9056 7.65818 37.7189 7.95731 38.3875 8.51067C38.3875 7.81605 38.3875 7.2793 38.3875 6.71098C38.3875 5.63748 38.7881 5.19546 39.761 5.19546H51.7213C52.6942 5.19546 53.0948 5.63748 53.1234 6.71098V10.3735C53.1234 10.5945 53.1234 10.9102 53.2664 11.0365C53.8673 11.7943 54.5254 12.4573 55.2122 13.2467C55.2122 12.8994 55.4125 12.6784 55.4983 12.4573C56.0134 10.9418 56.5284 9.3 57.072 7.8792C57.4707 6.72318 58.1073 5.68512 58.9316 4.84683C59.7558 4.00854 60.7452 3.39291 61.8219 3.04847C62.2224 3.04847 62.6517 2.82746 63.0522 2.70116L65.0265 2.51172ZM54.3824 75.1305H58.3883C58.9219 75.2138 59.4658 75.1596 59.9772 74.9721C60.4887 74.7847 60.9539 74.4691 61.3364 74.0501C61.7189 73.6311 62.0082 73.1201 62.1818 72.5571C62.3554 71.9941 62.4085 71.3944 62.3369 70.8049V36.0742L61.8219 36.39C59.8761 37.8108 60.1909 37.7792 58.2452 36.39C57.7301 36.0111 57.1579 35.348 56.6142 35.3796C56.0706 35.4112 55.5269 36.1058 54.9547 36.4531C54.7603 36.5571 54.6005 36.7258 54.4978 36.9354C54.3951 37.145 54.3548 37.385 54.3824 37.6213V75.1305ZM60.1051 34.8744C60.6773 34.3061 61.5643 33.8641 61.8219 33.1379C64.1968 26.3812 66.5145 19.5613 68.8035 12.7415C69.2664 11.3305 69.2024 9.77441 68.6256 8.4155C68.0487 7.0566 67.0063 6.00621 65.7276 5.49541C64.4489 4.98461 63.0386 5.05524 61.8071 5.69176C60.5756 6.32829 59.6237 7.47856 59.1608 8.88954L51.6927 30.8015L50.9202 33.1063C51.6069 33.6115 52.2364 34.0535 52.8659 34.5587C52.9666 34.663 53.0997 34.7211 53.2378 34.7211C53.376 34.7211 53.509 34.663 53.6098 34.5587C54.3252 33.9904 55.0977 33.4852 55.8131 32.9169C56.0409 32.7171 56.3233 32.6083 56.6142 32.6083C56.9052 32.6083 57.1876 32.7171 57.4154 32.9169L60.1051 34.8744ZM32.0353 29.3807C32.2912 29.2073 32.4988 28.9593 32.6351 28.664C32.7714 28.3687 32.8312 28.0377 32.8079 27.7073C32.8079 24.5499 32.8079 21.2032 32.8079 17.9511C32.8008 17.6588 32.848 17.3681 32.9464 17.0966C33.0448 16.8251 33.1924 16.5787 33.3801 16.3724C34.5819 15.0464 35.7551 13.6887 36.9282 12.331C37.0575 12.2009 37.1608 12.0424 37.2314 11.8657C37.302 11.689 37.3385 11.498 37.3385 11.3049C37.3385 11.1118 37.302 10.9208 37.2314 10.7441C37.1608 10.5674 37.0575 10.409 36.9282 10.2788C36.8128 10.1369 36.6716 10.0235 36.5139 9.9458C36.3561 9.86813 36.1853 9.82799 36.0126 9.82799C35.8398 9.82799 35.669 9.86813 35.5113 9.9458C35.3535 10.0235 35.2124 10.1369 35.097 10.2788C34.6392 10.7524 34.1813 11.2575 33.7521 11.7943C33.5874 12.0449 33.3515 12.2276 33.082 12.3134C32.8124 12.3992 32.5246 12.3832 32.2642 12.2679C31.692 12.0153 31.5775 11.4786 31.5775 10.8471C31.5775 9.31053 31.5775 7.76343 31.5775 6.20581C31.5952 6.01685 31.5719 5.82598 31.5096 5.64889C31.4474 5.4718 31.3479 5.31355 31.2194 5.18716C31.0909 5.06077 30.937 4.96986 30.7705 4.9219C30.6039 4.87394 30.4294 4.87031 30.2613 4.9113C29.9987 4.97215 29.7657 5.13802 29.6072 5.377C29.4488 5.61597 29.376 5.91118 29.4029 6.20581V11.2891C29.4288 11.5576 29.3762 11.8281 29.2526 12.0611C29.129 12.294 28.941 12.4772 28.7162 12.5836C28.4775 12.6855 28.2155 12.7006 27.9685 12.6268C27.7215 12.553 27.5022 12.3941 27.3427 12.1732C26.7991 11.5733 26.284 10.9734 25.7404 10.4051C25.5886 10.199 25.3729 10.0624 25.1351 10.0215C24.8973 9.98072 24.6542 10.0386 24.4528 10.1841C24.1052 10.4768 23.8539 10.8871 23.7375 11.3523C23.7616 11.8322 23.9332 12.2888 24.2239 12.6468C25.1109 13.7203 26.0551 14.699 26.9421 15.8041C27.0677 15.9166 27.1689 16.0586 27.2385 16.2197C27.308 16.3809 27.3441 16.5571 27.3441 16.7355C27.3441 16.914 27.308 17.0902 27.2385 17.2513C27.1689 17.4125 27.0677 17.5545 26.9421 17.6669C26.7396 17.8335 26.4937 17.9235 26.2411 17.9235C25.9885 17.9235 25.7427 17.8335 25.5401 17.6669C25.3756 17.5494 25.1875 17.4781 24.9923 17.4592C24.797 17.4403 24.6006 17.4743 24.42 17.5584C24.2394 17.6425 24.0802 17.774 23.9563 17.9415C23.8323 18.109 23.7474 18.3074 23.7089 18.5194C23.666 19.0237 23.7861 19.5284 24.0479 19.9444C24.3097 20.3604 24.6964 20.6609 25.1395 20.7927C26.2241 20.945 27.253 21.4106 28.1222 22.1424C28.9914 22.8742 29.6701 23.8463 30.0896 24.9604C30.7763 26.3812 31.4345 27.8651 32.064 29.3807H32.0353ZM35.097 26.8232C40.8196 25.5919 43.0801 27.0758 45.2261 33.1379V18.8352H35.097V26.8232ZM52.0933 13.0257L48.0302 17.6038C47.8746 17.7507 47.7521 17.9356 47.6726 18.1439C47.5932 18.3522 47.5589 18.5781 47.5724 18.8036C47.5724 23.6027 47.5724 28.2756 47.5724 33.1695V33.8641H47.8013C48.1174 33.5109 48.3958 33.1189 48.6311 32.6959C48.8705 32.0984 49.0807 31.4871 49.2606 30.8646L54.1821 16.3409C54.281 16.1386 54.3123 15.9044 54.2705 15.6793C54.2286 15.4541 54.1163 15.2524 53.9532 15.1095C53.3809 14.4465 52.8086 13.7834 52.1219 13.0257H52.0933ZM30.5188 33.1695H30.6905C30.7336 32.8555 30.7336 32.5362 30.6905 32.2223C29.7176 29.8858 28.7734 27.5178 27.6861 25.2761C27.3387 24.5615 26.7926 23.9887 26.1282 23.642C25.4637 23.2953 24.716 23.193 23.995 23.3502C23.229 23.4415 22.5081 23.7951 21.9334 24.3613C21.3587 24.9275 20.959 25.678 20.7903 26.5075C20.582 27.263 20.568 28.0675 20.7499 28.8313C20.9318 29.5951 21.3024 30.2881 21.8204 30.833L24.6817 28.3387L26.0551 30.3279L23.0507 32.8853L25.9121 35.0007C26.656 34.464 27.4 33.9588 28.0867 33.3905C28.7734 32.8222 29.7177 32.2854 30.5475 33.1695H30.5188ZM32.8651 34.7481C33.7235 34.1167 34.5247 33.5799 35.2972 32.9485C35.5444 32.7022 35.8656 32.5659 36.1986 32.5659C36.5316 32.5659 36.8527 32.7022 37.0999 32.9485C37.8152 33.4852 38.5306 34.022 39.2745 34.4956C39.3718 34.5509 39.4797 34.5798 39.5892 34.5798C39.6988 34.5798 39.8067 34.5509 39.904 34.4956L42.7653 32.4749C42.3676 31.2023 41.5648 30.1322 40.506 29.4636C39.4472 28.7949 38.2044 28.5731 37.0086 28.8394C35.8127 29.1056 34.7451 29.8417 34.0041 30.9111C33.2631 31.9804 32.899 33.3102 32.9796 34.6534L32.8651 34.7481ZM36.6421 16.2777C39.5034 16.2777 41.9356 16.2777 44.4822 16.2777C44.9498 16.3284 45.4215 16.2511 45.8557 16.0529C46.2898 15.8547 46.673 15.5415 46.9715 15.1411C47.6582 14.257 48.4594 13.4677 49.2606 12.6152H49.0603H40.4763C40.3037 12.6145 40.1346 12.6693 39.9898 12.7731L36.6421 16.2777ZM50.9488 7.53189H40.8482V9.96304H50.9488V7.53189Z" fill="black"/>
<path d="M16.9992 58.6504C17.1709 56.5665 16.7131 55.8088 14.8246 55.1773V52.7777C15.4876 52.7688 16.1436 52.9262 16.7434 53.238C17.3432 53.5497 17.8709 54.0077 18.2868 54.5774C18.6899 55.1314 18.9887 55.7687 19.1656 56.4519C19.3424 57.135 19.3939 57.8502 19.3169 58.5556C20.1287 58.244 20.9609 58.0012 21.8063 57.8294C22.6533 57.7206 23.5116 57.8138 24.3231 58.1028C25.1346 58.3918 25.8803 58.8698 26.5098 59.5046C27.1393 60.1393 27.6378 60.9159 27.9716 61.7817C28.3054 62.6475 28.4667 63.5824 28.4446 64.523C28.3435 67.9495 27.5414 71.3063 26.0983 74.3423C25.8156 75.0433 25.4044 75.6721 24.8907 76.1891C24.3769 76.7061 23.7717 77.1001 23.1132 77.3463C22.4546 77.5925 21.757 77.6855 21.0642 77.6195C20.3715 77.5535 19.6986 77.33 19.088 76.9629C18.8261 76.7997 18.5304 76.7139 18.2296 76.7139C17.9288 76.7139 17.6331 76.7997 17.3712 76.9629C16.7597 77.3252 16.0873 77.5449 15.3956 77.6085C14.7039 77.672 14.0078 77.578 13.3504 77.3322C12.693 77.0865 12.0885 76.6943 11.5742 76.18C11.0599 75.6656 10.647 75.0401 10.3609 74.3423C8.93166 71.3456 8.12989 68.0333 8.01465 64.6493C7.94029 63.4791 8.14998 62.3081 8.62214 61.257C9.09431 60.206 9.81187 59.3128 10.7009 58.6695C11.5899 58.0262 12.6183 57.6561 13.6801 57.5972C14.7419 57.5384 15.7987 57.7929 16.7417 58.3346L16.9992 58.6504ZM25.9838 64.965C25.9977 64.7864 25.9977 64.6069 25.9838 64.4283C26.0497 63.5872 25.8771 62.7443 25.4898 62.0163C25.1026 61.2882 24.5199 60.7109 23.8224 60.3641C23.1248 60.0174 22.3469 59.9184 21.5961 60.0809C20.8454 60.2433 20.1589 60.6592 19.6317 61.2709C18.0866 62.9128 18.0293 62.9128 16.4556 61.2709C15.9449 60.6674 15.2779 60.2526 14.5455 60.083C13.8132 59.9135 13.0513 59.9976 12.3639 60.3237C11.6661 60.6558 11.0761 61.2141 10.6724 61.9246C10.2687 62.6351 10.0703 63.4642 10.1034 64.302C10.1666 67.4881 10.9326 70.6093 12.3353 73.3951C12.6927 74.1059 13.2849 74.6372 13.9885 74.8783C14.692 75.1195 15.4527 75.0519 16.1122 74.6896C18.2869 73.553 17.686 73.4267 19.9464 74.6896C20.2855 74.8839 20.6564 75.0012 21.0372 75.0348C21.418 75.0683 21.801 75.0174 22.1637 74.885C22.5264 74.7525 22.8614 74.5413 23.1489 74.2637C23.4364 73.9862 23.6707 73.6479 23.8378 73.2688C25.1229 70.7201 25.8574 67.8783 25.9838 64.965Z" fill="black"/>
<path d="M54.3835 75.1327V37.7183C54.3558 37.4819 54.3962 37.242 54.4989 37.0324C54.6016 36.8227 54.7614 36.654 54.9557 36.5501C55.528 36.2028 56.0717 35.4766 56.6153 35.4766C57.159 35.4766 57.7312 36.108 58.2462 36.4869C60.192 37.9077 59.8772 37.9393 61.8229 36.4869L62.338 36.1712V70.9019C62.4096 71.4913 62.3564 72.091 62.1829 72.6541C62.0093 73.2171 61.7199 73.7281 61.3375 74.1471C60.955 74.5661 60.4898 74.8816 59.9783 75.0691C59.4668 75.2565 58.923 75.3107 58.3893 75.2275L54.3835 75.1327Z" fill="#FCDE63"/>
<path d="M60.138 34.8774L57.4484 32.8883C57.2206 32.6885 56.9382 32.5797 56.6472 32.5797C56.3562 32.5797 56.0738 32.6885 55.846 32.8883C55.1307 33.4566 54.3581 33.9618 53.6428 34.5301C53.542 34.6344 53.409 34.6925 53.2708 34.6925C53.1326 34.6925 52.9996 34.6344 52.8989 34.5301C52.2694 34.0249 51.6398 33.5829 50.9531 33.0777L51.7257 30.7729L59.1938 8.86093C59.423 8.16229 59.7747 7.5203 60.2287 6.97162C60.6828 6.42295 61.2304 5.97833 61.8401 5.66315C62.4499 5.34798 63.11 5.16842 63.7826 5.13473C64.4553 5.10104 65.1274 5.21388 65.7606 5.4668C66.3937 5.71972 66.9755 6.10777 67.4727 6.6088C67.97 7.10983 68.3729 7.71403 68.6586 8.38689C68.9442 9.05976 69.1069 9.78811 69.1374 10.5304C69.168 11.2726 69.0657 12.0142 68.8365 12.7129C66.5474 19.5327 64.2297 26.3526 61.8548 33.1093C61.5973 33.8671 60.7103 34.3091 60.138 34.8774ZM62.1982 13.4075L60.0522 14.1653L62.2554 21.6797L64.4014 20.8904L62.1982 13.4075ZM61.0823 29.6678L58.8504 22.1533L56.7044 22.9427L58.9363 30.4256L61.0823 29.6678Z" fill="#F9BF64"/>
<path d="M32.0713 29.3831C31.4418 27.8675 30.7837 26.3836 30.1828 24.8996C29.7593 23.7915 29.0789 22.8258 28.21 22.0998C27.341 21.3737 26.3142 20.9129 25.2327 20.7635C24.7896 20.6317 24.4029 20.3312 24.1411 19.9152C23.8793 19.4992 23.7593 18.9945 23.8021 18.4903C23.8403 18.2849 23.9221 18.0926 24.0407 17.9289C24.1594 17.7652 24.3115 17.6349 24.4846 17.5486C24.6577 17.4623 24.8469 17.4226 25.0366 17.4326C25.2264 17.4426 25.4112 17.5021 25.5761 17.6062C25.7786 17.7728 26.0245 17.8627 26.2771 17.8627C26.5297 17.8627 26.7756 17.7728 26.9782 17.6062C27.1037 17.4937 27.205 17.3517 27.2745 17.1906C27.344 17.0295 27.3801 16.8532 27.3801 16.6748C27.3801 16.4963 27.344 16.3201 27.2745 16.159C27.205 15.9978 27.1037 15.8559 26.9782 15.7434C26.0912 14.6699 25.1469 13.6911 24.2599 12.586C23.9691 12.228 23.7976 11.7715 23.7734 11.2915C23.8899 10.8264 24.1411 10.4161 24.4888 10.1233C24.6902 9.97786 24.9332 9.91996 25.1711 9.96079C25.4089 10.0016 25.6246 10.1383 25.7764 10.3443C26.3201 10.9126 26.8351 11.5125 27.3788 12.1124C27.5382 12.3333 27.7575 12.4922 28.0045 12.5661C28.2515 12.6399 28.5135 12.6248 28.7522 12.5229C28.977 12.4164 29.165 12.2333 29.2886 12.0003C29.4121 11.7673 29.4649 11.4968 29.4389 11.2284V6.3345C29.412 6.03987 29.4848 5.74467 29.6432 5.50569C29.8017 5.26671 30.0347 5.10084 30.2973 5.03999C30.4654 4.999 30.6399 5.00263 30.8065 5.05059C30.973 5.09855 31.1269 5.18946 31.2554 5.31585C31.3839 5.44224 31.4834 5.60049 31.5456 5.77758C31.6079 5.95467 31.6312 6.14555 31.6135 6.3345C31.6135 7.89212 31.6135 9.43921 31.6135 10.9758C31.6135 11.6072 31.6135 12.144 32.3003 12.3966C32.5606 12.5119 32.8484 12.5279 33.118 12.4421C33.3875 12.3563 33.6234 12.1736 33.7881 11.923C34.2173 11.3862 34.6751 10.8811 35.133 10.4075C35.2483 10.2656 35.3895 10.1522 35.5473 10.0745C35.705 9.99682 35.8759 9.95668 36.0486 9.95668C36.2213 9.95668 36.3922 9.99682 36.5499 10.0745C36.7077 10.1522 36.8488 10.2656 36.9642 10.4075C37.0935 10.5376 37.1967 10.6961 37.2674 10.8728C37.338 11.0495 37.3745 11.2405 37.3745 11.4336C37.3745 11.6267 37.338 11.8177 37.2674 11.9944C37.1967 12.1711 37.0935 12.3296 36.9642 12.4597C35.7911 13.8174 34.6179 15.175 33.4162 16.5011C33.2284 16.7074 33.0808 16.9538 32.9824 17.2253C32.884 17.4967 32.8368 17.7875 32.8439 18.0798C32.8439 21.2371 32.8439 24.5839 32.8439 27.836C32.8465 28.1454 32.7768 28.4503 32.6415 28.7213C32.5061 28.9923 32.3098 29.2202 32.0713 29.3831Z" fill="#76CD26"/>
<path d="M35.1328 26.824V18.8359H45.262V33.1071C43.116 27.0766 40.741 25.5926 35.1328 26.824Z" fill="#88E9FF"/>
<path d="M52.1305 13.0273C52.8172 13.7851 53.3895 14.4797 54.019 15.1112C54.1821 15.2541 54.2944 15.4558 54.3363 15.681C54.3781 15.9061 54.3469 16.1403 54.2479 16.3426L49.2692 30.9295C49.0893 31.5519 48.8791 32.1632 48.6397 32.7607C48.4044 33.1838 48.126 33.5757 47.8099 33.9289H47.581V33.2343C47.581 28.4352 47.581 23.7623 47.581 18.8684C47.5675 18.6429 47.6018 18.417 47.6813 18.2088C47.7607 18.0005 47.8832 17.8155 48.0388 17.6686L52.1305 13.0273Z" fill="#88E9FF"/>
<path d="M30.5417 33.1708C29.7119 32.2867 28.9679 32.5393 28.1668 33.1708C27.3656 33.8022 26.7361 34.2442 25.9921 34.781L23.1308 32.6656L26.1352 30.1081L24.7618 28.119L21.9004 30.6133C21.3824 30.0684 21.0118 29.3754 20.83 28.6116C20.6481 27.8478 20.6621 27.0433 20.8703 26.2878C21.0391 25.4583 21.4388 24.7078 22.0135 24.1416C22.5882 23.5754 23.3091 23.2218 24.075 23.1304C24.7961 22.9733 25.5438 23.0755 26.2082 23.4222C26.8727 23.7689 27.4188 24.3417 27.7662 25.0564C28.8535 27.2981 29.7977 29.6661 30.7706 32.0025C30.8138 32.3165 30.8138 32.6358 30.7706 32.9497L30.5417 33.1708Z" fill="#FF7503"/>
<path d="M32.9016 34.7481C32.8211 33.4049 33.1851 32.0751 33.9262 31.0057C34.6672 29.9364 35.7348 29.2002 36.9306 28.934C38.1265 28.6678 39.3692 28.8896 40.428 29.5582C41.4868 30.2269 42.2897 31.2969 42.6874 32.5695L39.8261 34.5902C39.7287 34.6456 39.6208 34.6745 39.5113 34.6745C39.4018 34.6745 39.2939 34.6456 39.1966 34.5902C38.4526 34.1166 37.7373 33.5798 37.022 33.0431C36.7748 32.7968 36.4536 32.6605 36.1206 32.6605C35.7876 32.6605 35.4664 32.7968 35.2193 33.0431C34.5612 33.5798 33.76 34.1166 32.9016 34.7481Z" fill="#E84586"/>
<path d="M36.6875 16.2807L39.8922 12.6813C40.037 12.5776 40.206 12.5227 40.3786 12.5234H48.9626H49.1629C48.3618 13.3759 47.5606 14.1653 46.8739 15.0493C46.5754 15.4497 46.1921 15.7629 45.758 15.9611C45.3238 16.1594 44.8521 16.2366 44.3845 16.186C41.981 16.2491 39.4344 16.2807 36.6875 16.2807Z" fill="#88E9FF"/>
<path d="M50.9365 7.53125V9.9624H40.8359V7.53125H50.9365Z" fill="#88E9FF"/>
<path d="M25.9725 64.9635C25.8549 67.8743 25.1303 70.7159 23.8551 73.2673C23.688 73.6464 23.4538 73.9847 23.1663 74.2623C22.8787 74.5398 22.5438 74.7511 22.1811 74.8835C21.8184 75.0159 21.4353 75.0668 21.0545 75.0333C20.6737 74.9997 20.3028 74.8824 19.9637 74.6881C17.7033 73.4568 18.3041 73.5831 16.1295 74.6881C15.47 75.0504 14.7093 75.118 14.0058 74.8768C13.3022 74.6357 12.7101 74.1044 12.3526 73.3936C10.95 70.6078 10.1839 67.4866 10.1207 64.3005C10.0876 63.4627 10.2861 62.6336 10.6898 61.9231C11.0935 61.2126 11.6833 60.6543 12.3812 60.3222C13.0686 59.9961 13.8305 59.912 14.5629 60.0815C15.2952 60.2511 15.9623 60.6659 16.4729 61.2695C18.0467 62.9428 18.1038 62.9428 19.649 61.2695C20.1762 60.6577 20.8627 60.2418 21.6134 60.0794C22.3642 59.9169 23.1421 60.0159 23.8397 60.3626C24.5372 60.7094 25.1199 61.2867 25.5072 62.0148C25.8944 62.7429 26.067 63.5857 26.0011 64.4268C26.0055 64.6063 25.9959 64.7858 25.9725 64.9635Z" fill="#E54545"/>
<path d="M62.1929 13.4062L64.3961 20.8891L62.2501 21.6785L60.0469 14.164L62.1929 13.4062Z" fill="black"/>
<path d="M61.0888 29.6668L58.9428 30.4246L56.7109 22.9417L58.8569 22.1523L61.0888 29.6668Z" fill="black"/>
</svg>
