<svg width="80" height="80" viewBox="0 0 80 80" fill="none" xmlns="http://www.w3.org/2000/svg">
<g clip-path="url(#clip0_2866_25763)">
<path d="M36.3429 32.7604H49.6182L54.9947 23.4013C54.9947 23.4013 61.931 15.8675 62.7939 15.237C63.9559 14.2579 65.0638 13.2165 66.1128 12.1173L63.3249 6.50845L57.9816 4.01933C57.9816 4.01933 52.6383 5.97743 52.406 5.87787C51.1238 5.32542 49.8719 4.70503 48.6557 4.01933C46.6964 3.75807 44.7243 3.60296 42.7482 3.55469L40.2259 7.60366L39.6285 9.69452L34.6835 12.5819C34.6835 12.5819 35.2809 16.2658 34.6835 16.4981C34.0861 16.7304 34.1524 19.8169 34.3184 19.8169L36.8075 23.3017L37.5045 24.9611L38.9979 24.7952L36.3429 32.7604Z" fill="#76CD26"/>
<path d="M31.7645 72.9194C31.758 74.001 31.4312 75.0565 30.8255 75.9526C30.2199 76.8488 29.3623 77.5455 28.3612 77.9549C27.36 78.3643 26.26 78.468 25.1999 78.253C24.1399 78.038 23.1672 77.5138 22.4047 76.7467C21.6422 75.9795 21.1239 75.0037 20.9153 73.9424C20.7067 72.8811 20.8171 71.7817 21.2325 70.783C21.6479 69.7843 22.3498 68.931 23.2496 68.3308C24.1494 67.7305 25.2068 67.4102 26.2885 67.4102C27.0104 67.4101 27.7252 67.5529 28.3917 67.8301C29.0583 68.1074 29.6635 68.5137 30.1724 69.0258C30.6813 69.5378 31.084 70.1454 31.3573 70.8136C31.6305 71.4818 31.7689 72.1975 31.7645 72.9194ZM29.0099 72.9194C29.0104 72.2058 28.7339 71.5198 28.2386 71.006C27.7434 70.4921 27.068 70.1906 26.3548 70.1648C25.8062 70.1449 25.2642 70.2895 24.7983 70.5798C24.3324 70.8702 23.9639 71.2932 23.74 71.7944C23.5162 72.2957 23.4472 72.8524 23.542 73.3932C23.6368 73.9339 23.891 74.434 24.272 74.8292C24.6529 75.2245 25.1433 75.4969 25.6802 75.6115C26.2171 75.7261 26.776 75.6777 27.2851 75.4725C27.7943 75.2672 28.2305 74.9145 28.5378 74.4596C28.8452 74.0047 29.0095 73.4684 29.0099 72.9194Z" fill="black"/>
<path d="M64.6904 72.7515C64.6904 73.8411 64.3673 74.9062 63.7619 75.8122C63.1565 76.7182 62.2961 77.4243 61.2894 77.8413C60.2827 78.2583 59.175 78.3674 58.1063 78.1548C57.0376 77.9423 56.056 77.4176 55.2855 76.6471C54.515 75.8766 53.9903 74.8949 53.7777 73.8263C53.5652 72.7576 53.6743 71.6498 54.0912 70.6431C54.5082 69.6365 55.2144 68.776 56.1204 68.1707C57.0263 67.5653 58.0915 67.2422 59.1811 67.2422C60.6423 67.2422 62.0436 67.8226 63.0767 68.8558C64.1099 69.889 64.6904 71.2903 64.6904 72.7515ZM61.9357 72.7515C61.9357 72.0297 61.649 71.3375 61.1387 70.8271C60.6283 70.3167 59.9361 70.03 59.2143 70.03C58.8294 69.9876 58.4399 70.0267 58.0712 70.145C57.7025 70.2632 57.3629 70.4579 57.0744 70.7163C56.786 70.9746 56.5553 71.2909 56.3974 71.6444C56.2394 71.998 56.1578 72.3808 56.1578 72.768C56.1578 73.1553 56.2394 73.5381 56.3974 73.8917C56.5553 74.2452 56.786 74.5615 57.0744 74.8198C57.3629 75.0782 57.7025 75.2728 58.0712 75.3911C58.4399 75.5093 58.8294 75.5485 59.2143 75.5061C59.5761 75.5017 59.9334 75.4262 60.266 75.2837C60.5985 75.1413 60.8998 74.9347 61.1525 74.6758C61.4052 74.417 61.6044 74.1108 61.7388 73.775C61.8732 73.4391 61.9401 73.08 61.9357 72.7183V72.7515Z" fill="black"/>
<path d="M46.406 14.6736C46.406 15.4701 45.0121 17.5942 44.3483 17.7269C43.8519 17.8184 43.3394 17.7111 42.9212 17.4282C42.7643 17.2234 42.6583 16.9841 42.6122 16.7302C42.566 16.4762 42.5809 16.215 42.6557 15.968C42.9266 15.2205 43.3569 14.541 43.9169 13.9767C44.1135 13.8158 44.3444 13.7022 44.5918 13.6447C44.8392 13.5872 45.0966 13.5872 45.344 13.6448C45.7754 13.7444 46.0741 14.3086 46.406 14.6736Z" fill="black"/>
<path d="M20.3529 56.9547L14.7109 34.3867H70.8987L69.5047 37.9047C68.2104 41.2235 66.8497 44.3432 65.6549 47.5956C65.1843 49.0742 64.2687 50.3713 63.0331 51.3099C61.7976 52.2484 60.3023 52.7826 58.7518 52.8394C48.7953 53.8682 38.8388 54.9966 28.8823 56.1582C25.9617 56.3905 23.1739 56.656 20.3529 56.9547ZM26.3268 46.0026V40.1615C26.3268 39.0994 25.7958 38.4689 24.9661 38.4689C24.1364 38.4689 23.5722 39.0994 23.5722 40.1615V51.7442C23.5722 52.8394 24.1032 53.47 24.9661 53.47C25.829 53.47 26.3268 52.8394 26.3268 51.7442V46.0026ZM31.8029 45.2393V50.5494C31.8029 51.545 32.3671 52.1756 33.1968 52.1756C34.0265 52.1756 34.5575 51.545 34.5575 50.5494V40.0951C34.5575 39.0663 33.9933 38.4689 33.1968 38.4689C32.4003 38.4689 31.8361 39.0663 31.8029 40.0951V45.2393ZM42.7882 44.7083V40.0951C42.7882 39.0663 42.224 38.4689 41.3943 38.4689C40.5646 38.4689 40.0336 39.0663 40.0336 40.0951V49.1555C40.0336 50.1843 40.5978 50.7817 41.3943 50.7817C42.1908 50.7817 42.755 50.1843 42.7882 49.1555V44.7083ZM48.2643 43.8786V47.828C48.2643 48.8236 48.8285 49.4542 49.6582 49.421C49.8517 49.4128 50.0414 49.3654 50.216 49.2816C50.3905 49.1977 50.5462 49.0792 50.6735 48.9333C50.8008 48.7874 50.8971 48.6171 50.9565 48.4327C51.0158 48.2484 51.0371 48.054 51.0189 47.8612V40.0619C51.0189 39.0663 50.4215 38.4357 49.5918 38.4689C48.7621 38.5021 48.2975 39.0663 48.2643 40.0287V43.8786ZM59.2496 43.2812V39.9623C59.2496 38.9999 58.6522 38.3693 57.8225 38.4025C57.6302 38.4103 57.4417 38.4578 57.2687 38.542C57.0957 38.6262 56.942 38.7453 56.8173 38.8918C56.6926 39.0384 56.5996 39.2091 56.5441 39.3934C56.4886 39.5776 56.4719 39.7713 56.495 39.9623V46.4009C56.4714 46.6017 56.4909 46.8053 56.552 46.9981C56.6131 47.1908 56.7145 47.3684 56.8494 47.5191C56.9844 47.6697 57.1498 47.7899 57.3347 47.8718C57.5196 47.9537 57.7198 47.9953 57.9221 47.9939C58.6854 47.9939 59.2164 47.3633 59.2496 46.4009V43.2812Z" fill="#88E9FF"/>
<path d="M67.5377 12.9787C68.0023 13.7753 68.301 14.3727 68.6993 14.9369C68.7916 15.1148 68.9203 15.2714 69.0772 15.3963C69.234 15.5212 69.4154 15.6116 69.6096 15.6617C69.8037 15.7118 70.0062 15.7205 70.2039 15.6871C70.4016 15.6537 70.5901 15.579 70.757 15.4679C71.4207 15.0032 71.4871 14.2731 70.9893 13.4102C70.4915 12.5473 70.2923 12.1822 69.9273 11.5185C71.7322 10.318 73.7662 9.50442 75.9011 9.12891C77.0627 9.12891 77.4278 9.36122 77.0959 10.4564C76.6648 11.9326 76.0982 13.3658 75.4033 14.7377C72.1901 20.501 68.5979 26.0445 64.6503 31.3319C64.5664 31.4384 64.4609 31.526 64.3408 31.5889C64.2207 31.6518 64.0887 31.6886 63.9534 31.6969H51.375L54.6938 26.42C55.6895 27.3825 56.5856 28.3117 57.548 29.1082C57.993 29.3861 58.5239 29.4923 59.0415 29.4069C60.0703 29.1414 60.1699 27.8471 59.3402 27.0506C58.5105 26.2541 57.7803 25.4243 56.9838 24.6278C56.894 24.5563 56.8214 24.4655 56.7715 24.3621C56.7216 24.2586 56.6957 24.1453 56.6957 24.0304C56.6957 23.9156 56.7216 23.8022 56.7715 23.6988C56.8214 23.5954 56.894 23.5045 56.9838 23.433L60.6013 19.2181C61.1323 20.1142 61.597 20.9439 62.128 21.7073C62.659 22.4706 63.5219 22.7693 64.2189 22.2715C64.9158 21.7736 64.9158 20.9771 64.2189 20.081C63.7243 19.2802 63.2809 18.4488 62.8913 17.5919C62.8331 17.479 62.8027 17.3539 62.8027 17.2268C62.8027 17.0998 62.8331 16.9747 62.8913 16.8618C64.4844 15.5011 65.9778 14.2731 67.5377 12.9787Z" fill="#FFCE01"/>
<path d="M20.811 13.8086H26.287V16.4305C26.2549 16.7616 26.3452 17.0931 26.5409 17.3621C26.7366 17.6312 27.0241 17.8193 27.3491 17.8907C28.7098 18.3886 29.0749 18.9528 29.0085 20.6122H23.8975C22.6695 20.6122 22.1717 21.11 22.1717 22.3048V28.511C22.1717 29.6726 22.6695 30.1372 23.8643 30.1704H28.9753V31.4316H18.0895C18.0895 31.1992 18.0895 30.9337 18.0895 30.7014V20.2803C18.0025 19.7485 18.1275 19.2037 18.4378 18.7631C18.7481 18.3225 19.2189 18.0212 19.749 17.9239C20.0881 17.8382 20.3851 17.6336 20.5861 17.3473C20.7871 17.0611 20.8787 16.7122 20.8442 16.3641L20.811 13.8086Z" fill="#BE7CF7"/>
<path d="M25 23.4023H28.9826V27.4513H25V23.4023Z" fill="#FFCE01"/>
<path d="M19.4609 10.9565V9.69531H27.6252V10.9565H19.4609Z" fill="#6E3E90"/>
<path d="M29.0014 72.9166C29.0011 73.4656 28.8367 74.0019 28.5294 74.4568C28.2221 74.9117 27.7858 75.2644 27.2767 75.4697C26.7675 75.6749 26.2086 75.7233 25.6717 75.6087C25.1348 75.4941 24.6445 75.2217 24.2635 74.8264C23.8825 74.4312 23.6283 73.9311 23.5336 73.3903C23.4388 72.8496 23.5077 72.2929 23.7316 71.7916C23.9554 71.2903 24.3239 70.8674 24.7898 70.577C25.2557 70.2867 25.7978 70.1421 26.3464 70.162C27.0596 70.1878 27.7349 70.4893 28.2302 71.0031C28.7254 71.517 29.0019 72.2029 29.0014 72.9166Z" fill="#009ECF"/>
<path d="M61.938 72.7175C61.9804 73.1024 61.9412 73.4919 61.823 73.8606C61.7047 74.2293 61.5101 74.569 61.2517 74.8574C60.9934 75.1458 60.6771 75.3765 60.3236 75.5345C59.97 75.6924 59.5872 75.7741 59.2 75.7741C58.8127 75.7741 58.4299 75.6924 58.0763 75.5345C57.7228 75.3765 57.4065 75.1458 57.1482 74.8574C56.8898 74.569 56.6952 74.2293 56.5769 73.8606C56.4587 73.4919 56.4195 73.1024 56.4619 72.7175C56.4791 71.9954 56.7758 71.3082 57.2896 70.8005C57.8035 70.2929 58.4943 70.0045 59.2165 69.9961C59.9383 69.9961 60.6305 70.2828 61.1409 70.7932C61.6512 71.3036 61.938 71.9958 61.938 72.7175Z" fill="#009ECF"/>
<path d="M26.2859 46.0025V51.7441C26.2859 52.8393 25.7549 53.4699 24.9252 53.4699C24.0955 53.4699 23.6641 52.9056 23.6641 51.7441V40.1613C23.6641 39.0993 24.1951 38.4688 25.058 38.4688C25.9209 38.4688 26.4187 39.0993 26.4187 40.1613L26.2859 46.0025Z" fill="black"/>
<path d="M31.7656 45.1064V40.095C31.7656 39.0661 32.3298 38.4688 33.1595 38.4688C33.9892 38.4688 34.5202 39.0661 34.5202 40.095V50.5493C34.5202 51.5449 33.956 52.1755 33.1595 52.1755C32.363 52.1755 31.7988 51.5449 31.7656 50.5493V45.1064Z" fill="black"/>
<path d="M42.7468 44.7081V49.1554C42.7468 50.1842 42.1826 50.7816 41.3529 50.7816C40.5232 50.7816 39.9922 50.1842 39.9922 49.1554V40.095C39.9922 39.0661 40.5564 38.4688 41.3529 38.4688C42.1494 38.4688 42.7468 39.0661 42.7468 40.095V44.7081Z" fill="black"/>
<path d="M48.2188 43.8784V40.0286C48.2188 39.0661 48.7498 38.4688 49.5463 38.4688C50.3428 38.4688 50.9402 39.0661 50.9734 40.0618V47.861C50.9916 48.0538 50.9703 48.2483 50.9109 48.4326C50.8516 48.6169 50.7553 48.7872 50.628 48.9332C50.5007 49.0791 50.345 49.1976 50.1705 49.2814C49.9959 49.3653 49.8061 49.4127 49.6127 49.4209C48.7829 49.4209 48.2188 48.8235 48.2188 47.8278V43.8784Z" fill="black"/>
<path d="M59.2178 43.2811V46.5999C59.2178 47.5623 58.6536 48.1597 57.8903 48.1929C57.688 48.1943 57.4878 48.1527 57.3029 48.0708C57.118 47.9889 56.9526 47.8687 56.8176 47.7181C56.6827 47.5674 56.5813 47.3899 56.5202 47.1971C56.4591 47.0043 56.4397 46.8007 56.4632 46.5999V40.0286C56.4401 39.8376 56.4568 39.6439 56.5123 39.4596C56.5678 39.2754 56.6608 39.1046 56.7855 38.9581C56.9102 38.8116 57.0639 38.6925 57.2369 38.6082C57.4099 38.524 57.5985 38.4765 57.7907 38.4688C58.6204 38.4688 59.1846 39.0661 59.2178 40.0286V43.2811Z" fill="black"/>
<path d="M75.9388 6.37544C73.7969 6.57849 71.7302 7.27115 69.8985 8.39993C68.6661 9.06651 67.4696 9.79767 66.3142 10.5904C65.8609 9.25044 65.2947 7.95143 64.6216 6.70733C63.9331 5.30969 62.7878 4.18914 61.3755 3.53126C59.9632 2.87338 58.3685 2.71764 56.8556 3.0898C55.4323 3.5273 54.0359 4.04815 52.6738 4.64965C52.4083 4.45052 52.0764 4.11864 51.7114 3.85313C50.4115 2.82818 48.8443 2.19873 47.1967 2.03985C45.549 1.88096 43.8904 2.19935 42.4187 2.95705C41.3177 3.51183 40.3554 4.30685 39.6029 5.28339C38.8504 6.25994 38.3269 7.39305 38.071 8.59906C38.071 8.93094 37.7391 9.39558 37.4736 9.49514C36.5115 9.76584 35.6148 10.2303 34.8386 10.8601C34.0624 11.4899 33.4232 12.2717 32.9601 13.1574C32.497 14.0432 32.2199 15.0143 32.1457 16.011C32.0715 17.0078 32.2017 18.0092 32.5285 18.9538C33.2787 21.7213 35.06 24.0965 37.5068 25.5915L35.8806 31.4326H31.7652V20.0158C31.7849 19.1957 31.59 18.3846 31.2001 17.6628C30.8101 16.941 30.2384 16.3336 29.5416 15.9005C28.9774 15.5022 28.7119 13.6769 29.2429 13.2454C29.6771 12.853 30.0097 12.3612 30.212 11.812C30.4143 11.2629 30.4804 10.6728 30.4045 10.0925C30.4871 9.63855 30.4583 9.17131 30.3208 8.73086C30.1832 8.29042 29.9409 7.88989 29.6146 7.56361C29.2883 7.23733 28.8878 6.99503 28.4473 6.85745C28.0069 6.71988 27.5397 6.69114 27.0857 6.7737C24.6629 6.7737 22.2402 6.7737 19.8174 6.7737C19.2182 6.7372 18.6231 6.89513 18.1208 7.22402C17.6185 7.55291 17.2358 8.03517 17.0296 8.59906C16.7064 9.25987 16.5725 9.9973 16.6428 10.7296C16.7131 11.4618 16.9848 12.1603 17.4279 12.7476C17.7252 13.0825 17.9424 13.4806 18.0631 13.9119C18.1838 14.3431 18.205 14.7961 18.1249 15.2367C18.0975 15.4719 17.9782 15.6866 17.793 15.8341C17.0033 16.3028 16.3607 16.9835 15.9383 17.7989C15.516 18.6143 15.3307 19.5318 15.4034 20.4473C15.4034 23.7661 15.4034 27.284 15.4034 30.7024V31.6317H14.0759C13.8104 30.6693 13.6112 29.7732 13.3457 28.8439C13.0361 27.675 12.3461 26.6426 11.3846 25.9094C10.423 25.1762 9.24473 24.7841 8.03561 24.7949H2.06172C0.966503 24.7949 0.335938 25.3259 0.335938 26.1557C0.335938 26.9854 0.966503 27.5496 2.06172 27.5496H7.07315C9.4959 27.5496 10.1929 28.1138 10.7571 30.4701C13.2462 40.4266 15.7685 50.3831 18.2576 60.3396C18.5766 61.9759 19.4797 63.4405 20.7986 64.4602C22.1175 65.48 23.7623 65.9853 25.4263 65.882H61.9334C62.2765 65.8404 62.591 65.6697 62.8129 65.4047C63.0348 65.1396 63.1475 64.8001 63.1281 64.4549C63.1202 64.1198 62.9857 63.8001 62.7518 63.56C62.5179 63.3199 62.2018 63.1772 61.867 63.1606H24.8289C23.8917 63.1236 23.0002 62.7457 22.3219 62.098C21.6436 61.4502 21.2251 60.5771 21.145 59.6426L28.7119 58.8461L59.6766 55.5273C61.4589 55.4034 63.1686 54.7719 64.6036 53.7074C66.0386 52.643 67.1389 51.19 67.7745 49.5202C69.8986 44.3428 71.9562 39.0991 74.0471 33.8885C74.5781 32.5278 74.0471 31.6981 72.5536 31.6981H67.8409L68.4051 30.802C71.2925 26.4212 74.213 22.0735 77.034 17.5267C78.3918 15.5233 79.3289 13.2652 79.7887 10.889C80.028 10.322 80.105 9.69956 80.011 9.09128C79.9169 8.48301 79.6556 7.91286 79.2562 7.44457C78.8567 6.97627 78.335 6.62828 77.7491 6.43948C77.1633 6.25068 76.5365 6.22851 75.9388 6.37544ZM35.0177 16.8629C34.9338 16.2888 34.9657 15.7036 35.1115 15.1419C35.2574 14.5803 35.5141 14.0535 35.8667 13.5927C36.2193 13.1318 36.6606 12.7462 37.1646 12.4586C37.6686 12.1709 38.225 11.9871 38.8011 11.9179C39.2658 11.9179 39.7636 11.9179 40.2282 11.9179C40.6929 11.9179 41.4562 11.6192 41.5226 10.9886C41.4799 10.4854 41.3566 9.99239 41.1575 9.52833C41.1575 9.26282 40.8588 8.93094 40.9252 8.73181C41.1542 7.90606 41.5737 7.14557 42.1502 6.51151C42.7266 5.87745 43.4437 5.38751 44.244 5.0811C45.4399 4.74727 46.7077 4.7739 47.8885 5.15766C49.0693 5.54142 50.1105 6.26523 50.8817 7.23834C51.7777 8.30036 52.3088 8.30036 53.4372 7.57022C54.2891 6.98689 55.2015 6.49729 56.1586 6.10994C56.6678 5.84795 57.2251 5.69248 57.7963 5.653C58.3676 5.61352 58.941 5.69087 59.4814 5.88032C60.0218 6.06977 60.5179 6.36735 60.9394 6.7549C61.361 7.14245 61.6992 7.61184 61.9334 8.13442V8.43312C61.9512 8.52072 61.9512 8.61102 61.9334 8.69862V8.96413C62.6303 10.4244 63.1945 11.6524 63.46 12.283C60.7449 14.4615 58.2344 16.8832 55.9595 19.518C52.87 23.0494 50.1973 26.9248 47.9943 31.0675C47.9943 31.2998 47.596 31.6317 47.3637 31.6317C45.7707 31.6317 44.0449 31.6317 42.485 31.6317C42.6206 31.2912 42.7758 30.9587 42.9497 30.6361C44.2846 28.1377 45.96 25.8368 47.9279 23.7993C48.0911 23.6781 48.2258 23.5226 48.3225 23.3439C48.4193 23.1651 48.4758 22.9674 48.4881 22.7645C48.5003 22.5616 48.4681 22.3585 48.3936 22.1694C48.3191 21.9803 48.2041 21.8097 48.0568 21.6697C47.9094 21.5297 47.7332 21.4237 47.5405 21.359C47.3478 21.2942 47.1433 21.2724 46.9413 21.2951C46.7393 21.3178 46.5447 21.3843 46.3712 21.4901C46.1976 21.5959 46.0493 21.7384 45.9366 21.9076C43.4226 24.5013 41.3588 27.4962 39.83 30.7688C39.3653 31.7645 39.3322 31.7977 38.1706 31.4658C38.8828 27.9783 40.1252 24.6205 41.8545 21.5093C42.3523 20.5468 42.1863 19.7503 41.3898 19.3521C40.5933 18.9538 39.9295 19.3521 39.3985 20.2481L38.0046 23.0691C37.0759 22.3225 36.3257 21.3778 35.8089 20.304C35.2921 19.2303 35.0218 18.0546 35.0177 16.8629ZM19.4524 9.69427H27.6167V10.9554H19.4524V9.69427ZM19.7179 17.925C20.057 17.8392 20.3541 17.6346 20.555 17.3483C20.756 17.0621 20.8476 16.7132 20.8131 16.3651V13.8096H26.2892V16.4315C26.257 16.7626 26.3474 17.0941 26.5431 17.3632C26.7387 17.6322 27.0262 17.8203 27.3512 17.8918C28.7119 18.3896 29.077 18.9538 29.0106 20.6132H23.8996C22.6716 20.6132 22.1738 21.111 22.1738 22.3058V28.512C22.1738 29.6736 22.6716 30.1382 23.8664 30.1714H28.9774V31.4326H18.0917C18.0917 31.2003 18.0917 30.9348 18.0917 30.7024V20.2813C18.0037 19.7543 18.1243 19.2137 18.4278 18.7739C18.7313 18.3342 19.1939 18.0297 19.7179 17.925ZM28.9774 23.401V27.45H24.9948V23.401H28.9774ZM70.861 34.3863L69.4671 37.9043C68.1728 41.2231 66.812 44.3428 65.6173 47.5953C65.1467 49.0738 64.231 50.371 62.9955 51.3095C61.7599 52.2481 60.2647 52.7822 58.7141 52.839C48.7576 53.8679 38.8011 54.9963 28.8446 56.1579C26.0568 56.4897 23.269 56.7552 20.4148 57.0539L14.7728 34.4859L70.861 34.3863ZM77.1004 10.4576C76.6693 11.9338 76.1027 13.367 75.4078 14.7389C72.1946 20.5021 68.6024 26.0457 64.6548 31.333C64.5709 31.4395 64.4654 31.5271 64.3453 31.59C64.2252 31.6529 64.0932 31.6898 63.9578 31.6981H51.3795L54.6983 26.4212C55.694 27.3836 56.59 28.3129 57.5525 29.1094C57.9975 29.3872 58.5284 29.4934 59.046 29.4081C60.0748 29.1426 60.1744 27.8482 59.3447 27.0517C58.515 26.2552 57.7848 25.4255 56.9883 24.629C56.8984 24.5575 56.8259 24.4667 56.776 24.3632C56.7261 24.2598 56.7002 24.1464 56.7002 24.0316C56.7002 23.9168 56.7261 23.8034 56.776 23.7C56.8259 23.5965 56.8984 23.5057 56.9883 23.4342L60.6058 19.2193C61.1368 20.1154 61.6015 20.9451 62.1325 21.7084C62.6635 22.4718 63.5264 22.7704 64.2234 22.2726C64.9203 21.7748 64.9203 20.9783 64.2234 20.0822C63.7288 19.2813 63.2854 18.45 62.8958 17.5931C62.8376 17.4802 62.8072 17.355 62.8072 17.228C62.8072 17.101 62.8376 16.9758 62.8958 16.8629C64.3561 15.6018 65.8496 14.3738 67.4094 13.0795C67.8741 13.876 68.1728 14.4734 68.571 15.0376C68.6633 15.2156 68.7921 15.3721 68.9489 15.497C69.1058 15.6219 69.2872 15.7123 69.4813 15.7624C69.6755 15.8125 69.878 15.8212 70.0757 15.7878C70.2734 15.7544 70.4618 15.6797 70.6287 15.5686C71.2925 15.104 71.3588 14.3738 70.861 13.5109C70.3632 12.648 70.1641 12.283 69.799 11.6192C71.6039 10.4188 73.6379 9.60515 75.7729 9.22964C77.0672 9.03051 77.4323 9.36238 77.1004 10.4576Z" fill="black"/>
</g>
<defs>
<clipPath id="clip0_2866_25763">
<rect width="80" height="80" fill="white"/>
</clipPath>
</defs>
</svg>
