<svg width="60" height="60" viewBox="0 0 60 60" fill="none" xmlns="http://www.w3.org/2000/svg">
<path d="M17.4904 39.1204C16.6504 39.0104 16.3804 39.6303 16.3104 40.2403C16.2748 40.4028 16.2757 40.5711 16.3132 40.7331C16.3508 40.8951 16.4239 41.0467 16.5273 41.1769C16.6307 41.3072 16.7618 41.4127 16.9111 41.486C17.0604 41.5592 17.2241 41.5983 17.3904 41.6003C17.5559 41.6243 17.7247 41.6112 17.8846 41.562C18.0444 41.5127 18.1914 41.4287 18.3148 41.3158C18.4382 41.2029 18.535 41.064 18.5982 40.9092C18.6615 40.7543 18.6895 40.5874 18.6804 40.4204C18.7007 40.2541 18.6848 40.0855 18.6337 39.926C18.5827 39.7665 18.4977 39.62 18.3846 39.4965C18.2715 39.3729 18.1331 39.2754 17.9787 39.2104C17.8244 39.1455 17.6578 39.1148 17.4904 39.1204ZM17.4904 39.1204C16.6504 39.0104 16.3804 39.6303 16.3104 40.2403C16.2748 40.4028 16.2757 40.5711 16.3132 40.7331C16.3508 40.8951 16.4239 41.0467 16.5273 41.1769C16.6307 41.3072 16.7618 41.4127 16.9111 41.486C17.0604 41.5592 17.2241 41.5983 17.3904 41.6003C17.5559 41.6243 17.7247 41.6112 17.8846 41.562C18.0444 41.5127 18.1914 41.4287 18.3148 41.3158C18.4382 41.2029 18.535 41.064 18.5982 40.9092C18.6615 40.7543 18.6895 40.5874 18.6804 40.4204C18.7007 40.2541 18.6848 40.0855 18.6337 39.926C18.5827 39.7665 18.4977 39.62 18.3846 39.4965C18.2715 39.3729 18.1331 39.2754 17.9787 39.2104C17.8244 39.1455 17.6578 39.1148 17.4904 39.1204ZM17.4904 39.1204C16.6504 39.0104 16.3804 39.6303 16.3104 40.2403C16.2748 40.4028 16.2757 40.5711 16.3132 40.7331C16.3508 40.8951 16.4239 41.0467 16.5273 41.1769C16.6307 41.3072 16.7618 41.4127 16.9111 41.486C17.0604 41.5592 17.2241 41.5983 17.3904 41.6003C17.5559 41.6243 17.7247 41.6112 17.8846 41.562C18.0444 41.5127 18.1914 41.4287 18.3148 41.3158C18.4382 41.2029 18.535 41.064 18.5982 40.9092C18.6615 40.7543 18.6895 40.5874 18.6804 40.4204C18.7007 40.2541 18.6848 40.0855 18.6337 39.926C18.5827 39.7665 18.4977 39.62 18.3846 39.4965C18.2715 39.3729 18.1331 39.2754 17.9787 39.2104C17.8244 39.1455 17.6578 39.1148 17.4904 39.1204ZM17.4904 39.1204C16.6504 39.0104 16.3804 39.6303 16.3104 40.2403C16.2748 40.4028 16.2757 40.5711 16.3132 40.7331C16.3508 40.8951 16.4239 41.0467 16.5273 41.1769C16.6307 41.3072 16.7618 41.4127 16.9111 41.486C17.0604 41.5592 17.2241 41.5983 17.3904 41.6003C17.5559 41.6243 17.7247 41.6112 17.8846 41.562C18.0444 41.5127 18.1914 41.4287 18.3148 41.3158C18.4382 41.2029 18.535 41.064 18.5982 40.9092C18.6615 40.7543 18.6895 40.5874 18.6804 40.4204C18.7007 40.2541 18.6848 40.0855 18.6337 39.926C18.5827 39.7665 18.4977 39.62 18.3846 39.4965C18.2715 39.3729 18.1331 39.2754 17.9787 39.2104C17.8244 39.1455 17.6578 39.1148 17.4904 39.1204ZM55.2104 27.5004C53.4104 24.8304 51.5904 22.1704 49.8304 19.5004C49.6779 19.2377 49.4516 19.0257 49.1796 18.8905C48.9076 18.7554 48.6018 18.7032 48.3004 18.7403C44.9304 18.7403 41.5604 18.7403 38.1904 18.7403C37.0704 18.7403 36.7604 18.3903 36.9204 17.3803C36.9304 17.2272 36.9304 17.0735 36.9204 16.9204C36.9204 15.0404 36.9204 15.0004 34.9204 15.0004H7.06041C6.64041 15.0004 6.21042 15.0004 5.79042 15.0004C5.68277 14.9971 5.57565 15.0167 5.47616 15.0579C5.37667 15.0991 5.28708 15.1611 5.21333 15.2395C5.13958 15.318 5.08335 15.4113 5.04837 15.5131C5.01338 15.615 5.00045 15.7231 5.01042 15.8303C4.99751 15.937 5.00764 16.0451 5.04014 16.1475C5.07265 16.2499 5.12676 16.3441 5.19882 16.4237C5.27088 16.5033 5.35921 16.5666 5.45782 16.6091C5.55643 16.6517 5.66303 16.6726 5.77041 16.6704C6.15349 16.6903 6.53733 16.6903 6.92041 16.6704C15.8671 16.6704 24.8137 16.6704 33.7604 16.6704C35.2404 16.6704 35.2204 16.6703 35.2604 18.1903C35.2604 18.9503 34.9304 19.8803 36.0104 20.2703C36.1845 20.3538 36.379 20.385 36.5704 20.3604C38.9504 20.3104 41.3204 20.3604 43.6904 20.4704C43.0562 20.4875 42.4242 20.5544 41.8004 20.6704C41.0704 20.8304 41.1304 21.4203 41.1304 21.9603C41.1304 23.9603 41.1304 25.9004 41.1304 27.8704C41.1304 28.9304 41.4804 29.3204 42.5404 29.3104C45.7104 29.3104 48.8904 29.3104 52.0604 29.3104C53.9504 29.3104 53.9204 29.3103 53.9504 31.1903C53.9504 31.9403 53.8304 32.2904 52.9504 32.2804C51.1204 32.2804 51.1204 32.2803 51.1504 34.1603C51.1504 34.6603 51.0704 35.2404 51.7504 35.3604C52.4304 35.4804 52.7504 35.0303 52.7504 34.4103C52.7504 33.7903 53.0804 34.0004 53.3904 33.9804C53.7004 33.9604 53.9204 34.1604 53.9104 34.5403C53.9104 35.3503 53.9104 36.1604 53.9104 36.9704C53.9104 39.3704 54.2004 39.5404 51.4004 39.5604C51.0138 39.6247 50.6173 39.5352 50.2958 39.3109C49.9744 39.0866 49.7535 38.7454 49.6804 38.3604C49.4124 37.4664 48.8927 36.6685 48.1834 36.0621C47.4741 35.4556 46.6051 35.0662 45.6804 34.9403C44.3489 34.6371 42.9517 34.8656 41.7862 35.5773C40.6207 36.2889 39.779 37.4274 39.4404 38.7504C39.394 39.0076 39.2486 39.2364 39.0355 39.3878C38.8225 39.5392 38.5586 39.6011 38.3004 39.5604C33.4604 39.5604 28.6304 39.5604 23.7904 39.5604C23.0504 39.5604 22.7904 39.3004 22.6204 38.6504C22.365 37.5525 21.7042 36.5917 20.7704 35.9603C18.6104 34.3703 16.4004 34.5303 14.1804 35.8303C13.2188 36.6487 12.5226 37.7349 12.1804 38.9504C12.0304 39.4704 11.7604 39.5804 11.2804 39.5403C10.8004 39.5003 10.8504 39.0903 10.8504 38.7703C10.8504 37.7703 10.9704 36.7704 9.4504 36.9004C9.1504 36.9004 9.17041 36.5904 9.17041 36.3704C9.17041 35.9704 9.49041 36.0004 9.75041 36.0004C10.6804 36.0004 11.6004 36.0004 12.5204 36.0004C12.9799 36.0409 13.4424 35.9723 13.8704 35.8003C14.0604 34.5003 13.8704 34.2604 12.6104 34.2504C10.5171 34.2504 8.42709 34.2504 6.34042 34.2504C5.75042 34.2504 5.02041 34.1903 5.00041 35.1303C4.98041 36.0703 5.70041 36.0604 6.30041 35.9804C7.37041 35.8304 7.65041 36.2604 7.55041 37.2504C7.49041 37.8004 7.44042 38.5604 8.26042 38.5904C9.08042 38.6204 9.11041 39.0304 9.07042 39.5904C8.98042 40.6504 9.46041 41.2903 10.5504 41.1003C11.6404 40.9103 12.1804 41.5104 12.5504 42.5004C12.9978 43.4676 13.7219 44.2806 14.6312 44.8364C15.5405 45.3923 16.5941 45.6661 17.659 45.6233C18.7239 45.5805 19.7522 45.223 20.6139 44.5959C21.4756 43.9689 22.1321 43.1004 22.5004 42.1003C22.5497 41.7882 22.7202 41.508 22.9748 41.3208C23.2295 41.1336 23.5477 41.0543 23.8604 41.1003C28.5271 41.1603 33.2137 41.1603 37.9204 41.1003C38.9204 41.1003 39.4204 41.3103 39.6004 42.3003C39.7944 43.0149 40.2113 43.649 40.7904 44.1104C41.387 44.7168 42.12 45.1717 42.9283 45.437C43.7366 45.7022 44.5967 45.7701 45.4366 45.635C46.2765 45.4999 47.0719 45.1658 47.7563 44.6604C48.4406 44.1551 48.9941 43.4933 49.3704 42.7304C49.9604 41.4604 50.5604 40.9004 51.9004 41.1504C52.0531 41.1704 52.2077 41.1704 52.3604 41.1504C54.6704 41.0704 55.5504 40.1503 55.5604 37.8303C55.5604 34.8303 55.5604 31.8304 55.5604 28.8904C55.5737 28.4037 55.4526 27.9227 55.2104 27.5004ZM43.5204 27.6603C43.0004 27.6603 42.7404 27.5404 42.7604 26.9504C42.8004 25.7104 42.8004 24.4704 42.7604 23.2304C42.7604 22.6604 42.9804 22.5104 43.5104 22.5104C45.4104 22.5104 47.3104 22.5104 49.2104 22.5104C49.4023 22.4871 49.5969 22.5167 49.7731 22.596C49.9494 22.6753 50.1006 22.8013 50.2104 22.9603C51.2104 24.4703 52.2104 25.9604 53.2604 27.6404C49.8704 27.6504 46.7004 27.6403 43.5204 27.6603ZM17.4304 44.0803C16.9379 44.0985 16.4469 44.015 15.988 43.8351C15.5291 43.6552 15.1122 43.3827 14.7632 43.0347C14.4142 42.6867 14.1407 42.2705 13.9595 41.8121C13.7784 41.3537 13.6936 40.8629 13.7104 40.3704C13.7011 39.8782 13.7903 39.3892 13.9728 38.9321C14.1553 38.4749 14.4274 38.059 14.7731 37.7086C15.1188 37.3582 15.5311 37.0806 15.9858 36.8919C16.4404 36.7033 16.9282 36.6076 17.4204 36.6104C18.4319 36.6096 19.4044 37.0009 20.1335 37.702C20.8626 38.4032 21.2916 39.3596 21.3304 40.3704C21.3241 40.8719 21.2175 41.3671 21.0169 41.8268C20.8162 42.2866 20.5257 42.7015 20.1622 43.0472C19.7988 43.3929 19.3699 43.6625 18.9007 43.8399C18.4316 44.0173 17.9317 44.0991 17.4304 44.0803ZM44.5804 44.0803C43.8433 44.0607 43.1283 43.8242 42.525 43.4003C41.9216 42.9765 41.4565 42.3842 41.188 41.6975C40.9194 41.0107 40.8593 40.2601 41.0151 39.5394C41.1709 38.8187 41.5357 38.1599 42.0639 37.6454C42.5921 37.1309 43.2603 36.7835 43.9848 36.6468C44.7094 36.51 45.4582 36.5899 46.1376 36.8764C46.817 37.1629 47.3969 37.6434 47.8047 38.2577C48.2125 38.8721 48.4302 39.593 48.4304 40.3303C48.4402 40.8359 48.3469 41.3381 48.1561 41.8063C47.9653 42.2745 47.6811 42.699 47.3208 43.0537C46.9605 43.4084 46.5317 43.6859 46.0605 43.8693C45.5893 44.0527 45.0857 44.1381 44.5804 44.1204V44.0803ZM17.4904 39.0803C16.6504 38.9703 16.3804 39.5904 16.3104 40.2004C16.2748 40.3628 16.2757 40.5311 16.3132 40.6931C16.3508 40.8551 16.4239 41.0067 16.5273 41.1369C16.6307 41.2672 16.7618 41.3727 16.9111 41.446C17.0604 41.5192 17.2241 41.5583 17.3904 41.5604C17.5559 41.5843 17.7247 41.5712 17.8846 41.5219C18.0444 41.4727 18.1914 41.3887 18.3148 41.2758C18.4382 41.1629 18.535 41.024 18.5982 40.8691C18.6615 40.7143 18.6895 40.5474 18.6804 40.3803C18.6946 40.2173 18.6741 40.053 18.6203 39.8984C18.5665 39.7438 18.4805 39.6024 18.3681 39.4834C18.2557 39.3643 18.1194 39.2705 17.9681 39.2079C17.8168 39.1453 17.654 39.1155 17.4904 39.1204V39.0803ZM17.4904 39.0803C16.6504 38.9703 16.3804 39.5904 16.3104 40.2004C16.2748 40.3628 16.2757 40.5311 16.3132 40.6931C16.3508 40.8551 16.4239 41.0067 16.5273 41.1369C16.6307 41.2672 16.7618 41.3727 16.9111 41.446C17.0604 41.5192 17.2241 41.5583 17.3904 41.5604C17.5559 41.5843 17.7247 41.5712 17.8846 41.5219C18.0444 41.4727 18.1914 41.3887 18.3148 41.2758C18.4382 41.1629 18.535 41.024 18.5982 40.8691C18.6615 40.7143 18.6895 40.5474 18.6804 40.3803C18.6946 40.2173 18.6741 40.053 18.6203 39.8984C18.5665 39.7438 18.4805 39.6024 18.3681 39.4834C18.2557 39.3643 18.1194 39.2705 17.9681 39.2079C17.8168 39.1453 17.654 39.1155 17.4904 39.1204V39.0803ZM17.4904 39.0803C16.6504 38.9703 16.3804 39.5904 16.3104 40.2004C16.2748 40.3628 16.2757 40.5311 16.3132 40.6931C16.3508 40.8551 16.4239 41.0067 16.5273 41.1369C16.6307 41.2672 16.7618 41.3727 16.9111 41.446C17.0604 41.5192 17.2241 41.5583 17.3904 41.5604C17.5559 41.5843 17.7247 41.5712 17.8846 41.5219C18.0444 41.4727 18.1914 41.3887 18.3148 41.2758C18.4382 41.1629 18.535 41.024 18.5982 40.8691C18.6615 40.7143 18.6895 40.5474 18.6804 40.3803C18.6946 40.2173 18.6741 40.053 18.6203 39.8984C18.5665 39.7438 18.4805 39.6024 18.3681 39.4834C18.2557 39.3643 18.1194 39.2705 17.9681 39.2079C17.8168 39.1453 17.654 39.1155 17.4904 39.1204V39.0803ZM17.4904 39.0803C16.6504 38.9703 16.3804 39.5904 16.3104 40.2004C16.2748 40.3628 16.2757 40.5311 16.3132 40.6931C16.3508 40.8551 16.4239 41.0067 16.5273 41.1369C16.6307 41.2672 16.7618 41.3727 16.9111 41.446C17.0604 41.5192 17.2241 41.5583 17.3904 41.5604C17.5559 41.5843 17.7247 41.5712 17.8846 41.5219C18.0444 41.4727 18.1914 41.3887 18.3148 41.2758C18.4382 41.1629 18.535 41.024 18.5982 40.8691C18.6615 40.7143 18.6895 40.5474 18.6804 40.3803C18.6946 40.2173 18.6741 40.053 18.6203 39.8984C18.5665 39.7438 18.4805 39.6024 18.3681 39.4834C18.2557 39.3643 18.1194 39.2705 17.9681 39.2079C17.8168 39.1453 17.654 39.1155 17.4904 39.1204V39.0803ZM17.4904 39.0803C16.6504 38.9703 16.3804 39.5904 16.3104 40.2004C16.2748 40.3628 16.2757 40.5311 16.3132 40.6931C16.3508 40.8551 16.4239 41.0067 16.5273 41.1369C16.6307 41.2672 16.7618 41.3727 16.9111 41.446C17.0604 41.5192 17.2241 41.5583 17.3904 41.5604C17.5559 41.5843 17.7247 41.5712 17.8846 41.5219C18.0444 41.4727 18.1914 41.3887 18.3148 41.2758C18.4382 41.1629 18.535 41.024 18.5982 40.8691C18.6615 40.7143 18.6895 40.5474 18.6804 40.3803C18.6946 40.2173 18.6741 40.053 18.6203 39.8984C18.5665 39.7438 18.4805 39.6024 18.3681 39.4834C18.2557 39.3643 18.1194 39.2705 17.9681 39.2079C17.8168 39.1453 17.654 39.1155 17.4904 39.1204V39.0803Z" fill="#76CD26"/>
<path d="M36.898 30.4503C36.898 32.6603 36.898 34.8603 36.898 37.0703C36.898 38.0103 36.5379 38.3803 35.5979 38.3703C32.0379 38.3703 28.468 38.3703 24.908 38.3703C24.368 38.3703 23.738 38.3703 23.708 37.6103C23.678 36.8503 24.378 36.7603 24.948 36.7503C27.948 36.7503 30.948 36.7503 34.008 36.7503C34.858 36.7503 35.118 36.5703 35.108 35.6803C35.048 31.6803 35.108 27.7803 35.108 23.8303C35.108 23.3903 34.9879 22.8903 35.5679 22.6303C36.1479 22.3703 36.878 22.7003 36.888 23.6303C36.888 25.9103 36.888 28.2003 36.888 30.4803L36.898 30.4503Z" fill="#76CD26"/>
<path d="M17.8602 29.2905C17.5202 28.9905 17.1202 28.7505 17.9602 28.4905C18.3821 28.3558 18.7619 28.1139 19.0624 27.7886C19.3628 27.4632 19.5737 27.0655 19.6745 26.6342C19.7753 26.2029 19.7624 25.7529 19.6372 25.3281C19.512 24.9033 19.2788 24.5182 18.9602 24.2105C18.0202 23.2105 16.8302 23.5505 15.7002 23.4505C14.5702 23.3505 14.2402 23.8405 14.2502 24.8605C14.2502 26.8605 14.2502 28.8105 14.2502 30.7805C14.25 31.0497 14.2802 31.3181 14.3402 31.5805C14.35 31.6772 14.3793 31.7709 14.4263 31.856C14.4732 31.9411 14.5369 32.0158 14.6136 32.0756C14.6902 32.1354 14.7781 32.1791 14.8721 32.204C14.966 32.2289 15.064 32.2345 15.1602 32.2205C15.6102 32.2205 15.7702 31.9105 15.8102 31.5405C15.8502 31.1705 15.8602 30.5405 15.9002 29.7705C16.7702 30.5405 17.4902 31.1505 18.1802 31.7705C18.5902 32.1505 19.0202 32.4505 19.4702 31.9805C19.5596 31.8772 19.6269 31.7567 19.668 31.6265C19.709 31.4962 19.723 31.3589 19.7089 31.223C19.6948 31.0872 19.6531 30.9556 19.5863 30.8365C19.5194 30.7174 19.4289 30.6133 19.3202 30.5305C18.8702 30.1005 18.3402 29.7205 17.8602 29.2905ZM15.8602 26.0005C15.7002 25.2805 16.0402 25.0605 16.7402 25.0905C17.4402 25.1205 18.0802 25.3205 18.0802 26.0905C18.0802 26.8605 17.3602 27.0205 16.6502 27.0905C15.9402 27.1605 15.7702 26.6205 15.8502 26.0005H15.8602Z" fill="#76CD26"/>
<path d="M21.0508 27.8103V24.5703C21.0508 23.9403 21.2608 23.5703 21.9808 23.5703H25.5808C26.1008 23.5703 26.5108 23.7503 26.4708 24.3703C26.4676 24.4867 26.44 24.6011 26.3897 24.7061C26.3395 24.8111 26.2677 24.9043 26.179 24.9798C26.0904 25.0552 25.9868 25.1112 25.8752 25.144C25.7635 25.1768 25.6462 25.1858 25.5308 25.1703C24.8346 25.2053 24.137 25.2053 23.4408 25.1703C22.7008 25.1103 22.6308 25.5003 22.6508 26.0803C22.6708 26.6603 22.6508 27.0803 23.4008 27.0803C23.7835 27.0503 24.168 27.0503 24.5508 27.0803C24.658 27.0802 24.7641 27.1019 24.8626 27.144C24.9612 27.1862 25.0501 27.248 25.124 27.3257C25.1979 27.4033 25.2553 27.4952 25.2925 27.5957C25.3298 27.6962 25.3462 27.8032 25.3408 27.9103C25.3408 28.4903 24.9908 28.6403 24.5308 28.6903C24.2619 28.7254 23.9896 28.7254 23.7208 28.6903C22.9808 28.6103 22.6408 28.7803 22.6208 29.6903C22.6008 30.6003 23.1308 30.6303 23.7908 30.6103C24.4508 30.5903 24.8708 30.6103 25.4108 30.6103C25.9508 30.6103 26.4608 30.8903 26.4608 31.5403C26.4608 32.1903 26.0508 32.3603 25.4608 32.3403C24.3808 32.3403 23.2908 32.3403 22.2108 32.3403C21.4108 32.3403 21.0708 32.0103 21.0708 31.2503C21.0708 30.1303 21.0708 29.0203 21.0708 27.9003L21.0508 27.8103Z" fill="#76CD26"/>
<path d="M27.8398 27.9005C27.8398 26.8205 27.8398 25.7305 27.8398 24.6505C27.8398 23.8805 28.0998 23.4905 28.9198 23.5105C30.0398 23.5105 31.1598 23.5105 32.2898 23.5105C32.7798 23.5105 33.2898 23.5805 33.2398 24.2405C33.1898 24.9005 32.8398 25.1105 32.2398 25.1105C31.7008 25.1556 31.1589 25.1556 30.6198 25.1105C29.4198 24.9005 29.3898 25.5905 29.4498 26.4505C29.4498 26.8205 29.5898 27.0305 29.9898 27.0105C30.1827 26.9905 30.377 26.9905 30.5698 27.0105C31.1598 27.1005 32.0498 26.7405 32.0798 27.7905C32.1098 28.8405 31.1298 28.5605 30.5298 28.5805C29.9298 28.6005 29.4098 28.5805 29.4198 29.5805C29.4298 30.5805 29.7898 30.5805 30.5298 30.5805C31.2698 30.5805 31.7698 30.5805 32.3898 30.5805C33.0098 30.5805 33.2098 30.9705 33.2298 31.4705C33.2498 31.9705 32.9298 32.3105 32.3498 32.3005C31.1898 32.3005 30.0298 32.3005 28.8598 32.3005C28.0898 32.3005 27.8598 31.9005 27.8598 31.2205L27.8398 27.9005Z" fill="#76CD26"/>
<path d="M7.45923 27.7804C7.45923 26.7804 7.45923 25.7804 7.45923 24.7804C7.45923 23.7804 7.75922 23.4904 8.68922 23.5204C9.80922 23.5204 10.9292 23.5204 12.0592 23.5204C12.5492 23.5204 12.9192 23.7104 12.9292 24.2304C12.9398 24.3477 12.9246 24.466 12.8847 24.5768C12.8449 24.6877 12.7813 24.7886 12.6985 24.8723C12.6157 24.9561 12.5155 25.0208 12.4051 25.0619C12.2947 25.103 12.1767 25.1196 12.0592 25.1104C11.4092 25.1104 10.7492 25.1104 10.0592 25.1104C9.36922 25.1104 8.99922 25.1604 9.05922 26.0204C9.11922 26.8804 9.28922 27.0704 10.0592 27.0204C10.3918 26.9881 10.7267 26.9881 11.0592 27.0204C11.1667 27.0224 11.2725 27.047 11.3699 27.0924C11.4674 27.1378 11.5542 27.2032 11.6248 27.2842C11.6955 27.3652 11.7484 27.4601 11.7802 27.5628C11.8119 27.6654 11.8218 27.7736 11.8092 27.8804C11.8092 28.3704 11.5292 28.5704 11.0792 28.6004H10.9692C10.3492 28.7604 9.48923 28.2904 9.14923 28.9004C8.80923 29.5104 9.06922 30.1804 9.05922 30.8404C9.06423 30.917 9.06423 30.9938 9.05922 31.0704C9.05922 31.6004 9.05923 32.2404 8.26923 32.2104C7.47923 32.1804 7.45922 31.5704 7.44922 31.0204C7.44922 29.9504 7.45923 28.9004 7.45923 27.7804Z" fill="#76CD26"/>
<path d="M12.6486 19.0804C14.2786 19.0804 15.8986 19.0804 17.5186 19.0804C18.0986 19.0804 18.5986 19.1804 18.6186 19.9504C18.6386 20.7204 18.0586 20.7704 17.5286 20.7804H7.52855C6.96855 20.7804 6.38856 20.7804 6.39856 19.9504C6.40856 19.1204 6.93856 19.0804 7.51856 19.0804C9.24856 19.0704 10.9486 19.0804 12.6486 19.0804Z" fill="#76CD26"/>
<path d="M21.7704 20.8003C21.1904 20.6603 20.0804 21.1803 20.0704 19.9703C20.0604 18.7603 21.1904 19.1203 21.9304 19.0303C22.1635 19.0153 22.3973 19.0153 22.6304 19.0303C23.2804 19.0303 23.7904 19.2703 23.7504 20.0303C23.7104 20.7903 23.1204 20.7903 22.5704 20.7903L21.7704 20.8003Z" fill="#76CD26"/>
<path d="M18.6812 40.4204C18.6903 40.5874 18.6622 40.7544 18.599 40.9092C18.5358 41.0641 18.439 41.203 18.3156 41.3159C18.1922 41.4287 18.0452 41.5128 17.8854 41.562C17.7255 41.6113 17.5567 41.6244 17.3912 41.6004C17.2249 41.5984 17.0612 41.5593 16.9119 41.486C16.7626 41.4128 16.6315 41.3073 16.5281 41.177C16.4247 41.0468 16.3515 40.8952 16.314 40.7332C16.2765 40.5712 16.2755 40.4029 16.3112 40.2404C16.3812 39.6304 16.6512 39.0104 17.4912 39.1204C17.6586 39.1149 17.8252 39.1456 17.9795 39.2105C18.1339 39.2754 18.2723 39.373 18.3854 39.4965C18.4985 39.6201 18.5834 39.7666 18.6345 39.9261C18.6856 40.0856 18.7015 40.2542 18.6812 40.4204Z" fill="#76CD26"/>
<path d="M18.6812 40.4204C18.6903 40.5874 18.6622 40.7544 18.599 40.9092C18.5358 41.0641 18.439 41.203 18.3156 41.3159C18.1922 41.4287 18.0452 41.5128 17.8854 41.562C17.7255 41.6113 17.5567 41.6244 17.3912 41.6004C17.2249 41.5984 17.0612 41.5593 16.9119 41.486C16.7626 41.4128 16.6315 41.3073 16.5281 41.177C16.4247 41.0468 16.3515 40.8952 16.314 40.7332C16.2765 40.5712 16.2755 40.4029 16.3112 40.2404C16.3812 39.6304 16.6512 39.0104 17.4912 39.1204C17.6586 39.1149 17.8252 39.1456 17.9795 39.2105C18.1339 39.2754 18.2723 39.373 18.3854 39.4965C18.4985 39.6201 18.5834 39.7666 18.6345 39.9261C18.6856 40.0856 18.7015 40.2542 18.6812 40.4204Z" fill="#76CD26"/>
<path d="M45.5783 40.2605C45.6068 40.4234 45.6004 40.5906 45.5596 40.7509C45.5188 40.9113 45.4444 41.0611 45.3414 41.1906C45.2384 41.32 45.1091 41.4262 44.962 41.502C44.815 41.5779 44.6535 41.6216 44.4883 41.6305C44.3424 41.6517 44.1942 41.6517 44.0483 41.6305C43.8213 41.5543 43.6226 41.4114 43.4781 41.2205C43.3335 41.0296 43.25 40.7996 43.2383 40.5605C43.2383 39.7805 43.4883 39.2105 44.2383 39.1205H44.3583C44.5152 39.1064 44.6734 39.1255 44.8225 39.1767C44.9715 39.2279 45.1081 39.31 45.2232 39.4176C45.3384 39.5252 45.4295 39.6559 45.4907 39.8012C45.5519 39.9464 45.5817 40.1029 45.5783 40.2605Z" fill="#76CD26"/>
</svg>
