<svg width="60" height="61" viewBox="0 0 60 61" fill="none" xmlns="http://www.w3.org/2000/svg">
<path d="M54.2437 39.9954C52.0937 37.8554 49.9837 35.6754 47.8037 33.5454C47.521 33.3505 47.3165 33.0617 47.2268 32.7302C47.137 32.3988 47.1678 32.0462 47.3137 31.7354C48.9149 27.7049 48.9931 23.2293 47.5337 19.1454C45.1137 12.4954 40.4837 8.21537 33.5337 6.89537C25.8637 5.44537 19.5337 8.00538 14.7437 14.2154C14.4437 14.6154 14.0437 15.0854 14.5337 15.4754C15.0237 15.8654 15.3537 15.3854 15.6637 14.9754C16.9281 13.2337 18.4885 11.7275 20.2737 10.5254C23.2849 8.62381 26.7925 7.6582 30.3526 7.75077C33.9128 7.84333 37.3654 8.98989 40.2737 11.0454C46.7337 15.7154 49.6037 25.3854 45.4637 32.8854C42.5137 38.2454 38.1637 41.4554 32.0837 42.2654C29.4932 42.6722 26.843 42.4523 24.3549 41.6241C21.8669 40.796 19.6136 39.3836 17.7837 37.5054C13.2837 33.0254 11.4837 27.5054 13.0337 21.1554C13.1237 20.7654 13.1537 20.3654 13.2137 19.9754C13.2737 19.5854 13.2937 19.2154 12.8237 19.1254C12.3537 19.0354 12.1637 19.3754 12.0337 19.7954C10.827 23.7732 11.0391 28.0466 12.6337 31.8854C12.7742 32.1018 12.8256 32.3642 12.7772 32.6176C12.7287 32.8711 12.5841 33.096 12.3737 33.2454C10.2137 35.3354 8.12373 37.4954 5.96373 39.5954C5.53901 39.9168 5.23162 40.3688 5.08888 40.8819C4.94615 41.395 4.97597 41.9408 5.17372 42.4354C5.63372 43.6054 6.64372 43.6954 7.70372 43.6854C9.70372 43.6854 11.7837 43.6854 13.8237 43.6854C14.8937 43.6854 15.3437 44.1154 15.3137 45.2054C15.2537 47.2854 15.2637 49.3654 15.3137 51.4454C15.2589 51.7948 15.2884 52.1522 15.3998 52.4879C15.5111 52.8237 15.701 53.1279 15.9537 53.3754C17.1837 54.3754 18.2537 54.2854 19.6337 52.8854C22.3637 50.1054 25.1237 47.3554 27.8237 44.5654C28.109 44.2717 28.4513 44.0394 28.8297 43.883C29.2081 43.7266 29.6145 43.6493 30.0238 43.6559C30.4332 43.6624 30.8369 43.7527 31.2101 43.9212C31.5833 44.0896 31.918 44.3327 32.1937 44.6354C34.8837 47.5154 37.7237 50.2454 40.5337 53.0054C41.2537 53.7154 42.0337 54.4354 43.2237 53.9154C43.7299 53.6785 44.1447 53.2824 44.4047 52.7877C44.6648 52.2929 44.7557 51.7267 44.6637 51.1754C44.6637 49.2654 44.6637 47.3654 44.5837 45.4554C44.5837 44.2754 44.9537 43.6054 46.2637 43.6754C47.2637 43.7354 48.2637 43.6754 49.3237 43.6754H52.7837C53.2317 43.6936 53.6738 43.5688 54.046 43.3188C54.4182 43.0689 54.7011 42.7069 54.8537 42.2854C55.0094 41.8885 55.0342 41.4523 54.9244 41.0403C54.8147 40.6283 54.5762 40.2622 54.2437 39.9954ZM19.4637 51.2054C19.1137 51.5354 18.7737 51.8954 18.4637 52.2054C18.1537 52.5154 17.7037 52.9954 17.0837 52.7454C16.4637 52.4954 16.4737 51.9454 16.4737 51.4054C16.4737 49.4954 16.3637 47.5854 16.4737 45.6854C16.6437 43.1654 15.1437 42.3054 13.1037 42.3954C11.2437 42.4854 9.37372 42.3954 7.51372 42.3954C7.02372 42.3954 6.51373 42.3954 6.21373 41.9154C5.91373 41.4354 6.28372 40.8654 6.64372 40.4954C8.64372 38.4954 10.7137 36.4954 12.7037 34.4954C13.2737 33.9054 13.6237 34.0654 13.9537 34.6354C16.2879 38.6482 20.0703 41.6146 24.5237 42.9254C25.2737 43.1754 26.0637 43.2954 27.2837 43.5854L19.4637 51.2054ZM53.6937 41.8454C53.4737 42.3654 52.9637 42.4454 52.4737 42.4454C50.3837 42.4454 48.3037 42.4454 46.2237 42.4454C44.1437 42.4454 43.3637 43.3354 43.3437 45.2654C43.3237 47.1954 43.3437 49.1554 43.3437 51.1054C43.3437 51.7454 43.3437 52.4054 42.7337 52.7654C42.1237 53.1254 41.6637 52.4954 41.3037 52.1354C38.5237 49.4054 35.7837 46.6454 33.0337 43.8854C32.9537 43.8054 32.9437 43.6454 32.8837 43.4754C35.8622 42.997 38.6778 41.7952 41.0837 39.9754C42.9767 38.5556 44.5849 36.7914 45.8237 34.7754C46.1337 34.2654 46.4337 33.7754 47.1337 34.5054C49.1337 36.6054 51.1837 38.6454 53.2237 40.7054C53.5437 41.0354 53.9137 41.3354 53.6937 41.8454Z" fill="#539818" stroke="#76CD26" stroke-width="0.532548" stroke-miterlimit="10"/>
<path d="M33.3017 23.1954C32.0697 22.4158 30.7713 21.7465 29.4216 21.1954C28.8316 20.9154 28.3416 20.6154 28.5416 19.9454C28.7416 19.2754 29.4516 19.2054 30.0716 19.4354C30.6916 19.6654 31.0716 19.9154 31.6416 20.1054C32.0154 20.2572 32.4273 20.2886 32.8198 20.1954C33.2123 20.1022 33.566 19.889 33.8317 19.5854C34.0974 19.2806 34.2644 18.9024 34.3108 18.5007C34.3573 18.099 34.2808 17.6927 34.0916 17.3354C33.7368 16.7156 33.1622 16.2517 32.4816 16.0354C31.9886 15.8329 31.5697 15.4838 31.2816 15.0354C30.7916 14.2654 29.2817 14.0354 28.8616 14.7754C28.4416 15.5154 27.8616 15.5154 27.2616 15.7054C26.7006 15.9023 26.185 16.2101 25.7454 16.6105C25.3059 17.0109 24.9515 17.4957 24.7032 18.036C24.455 18.5763 24.3181 19.161 24.3006 19.7554C24.2832 20.3497 24.3856 20.9414 24.6016 21.4954C25.1943 22.8333 26.2637 23.9028 27.6016 24.4954C28.6916 25.0654 29.7916 25.6354 30.8416 26.2654C31.3916 26.5954 31.8416 27.1054 31.5616 27.8054C31.4505 28.1708 31.2167 28.4867 30.8998 28.6999C30.5828 28.913 30.202 29.0103 29.8216 28.9754C29.0215 28.9439 28.2561 28.6405 27.6516 28.1154C27.3064 27.831 26.8846 27.6554 26.4396 27.6109C25.9946 27.5664 25.5463 27.655 25.1516 27.8654C24.8261 28.0133 24.5575 28.263 24.3862 28.5768C24.2149 28.8906 24.1501 29.2516 24.2016 29.6054C24.1637 29.8478 24.1858 30.0958 24.266 30.3277C24.3462 30.5595 24.482 30.7682 24.6616 30.9354C25.3356 31.5769 26.136 32.0707 27.0116 32.3854C28.1016 32.6154 28.7117 33.0754 28.5217 34.3154C28.5036 34.4628 28.5154 34.6124 28.5562 34.7552C28.5971 34.898 28.6662 35.0312 28.7594 35.1468C28.8527 35.2625 28.9682 35.3582 29.0991 35.4284C29.23 35.4986 29.3737 35.5417 29.5217 35.5554C29.8372 35.6668 30.18 35.6745 30.5002 35.5774C30.8204 35.4802 31.1012 35.2833 31.3017 35.0154C31.6463 34.5464 31.7967 33.9625 31.7216 33.3854C31.6922 33.2767 31.686 33.1631 31.7034 33.0519C31.7209 32.9406 31.7617 32.8344 31.823 32.74C31.8844 32.6456 31.9649 32.5652 32.0595 32.5041C32.154 32.443 32.2604 32.4026 32.3716 32.3854C34.6716 31.6854 35.4616 29.8354 35.6016 27.7054C35.6608 26.8161 35.4782 25.9273 35.0733 25.1333C34.6684 24.3394 34.0562 23.6697 33.3017 23.1954ZM34.3617 27.7654C34.4245 28.5624 34.2142 29.3571 33.7653 30.0187C33.3163 30.6803 32.6555 31.1693 31.8916 31.4054C31.3896 31.5205 30.9513 31.825 30.6681 32.2554C30.3849 32.6857 30.2787 33.2087 30.3716 33.7154C30.3716 34.0054 30.4817 34.4354 30.0517 34.4654C29.6217 34.4954 29.5516 34.0254 29.6016 33.6954C29.7916 32.3354 29.0416 31.7954 27.8616 31.5154C27.1697 31.3545 26.5255 31.0324 25.9816 30.5754C25.5616 30.2154 25.0516 29.8954 25.4416 29.2954C25.8316 28.6954 26.5116 28.8354 26.9716 29.1754C27.6145 29.7045 28.3885 30.05 29.2117 30.1754C30.9517 30.3654 32.1316 29.7854 32.6416 28.3754C32.8332 27.755 32.7939 27.0864 32.5311 26.4928C32.2683 25.8991 31.7997 25.4206 31.2117 25.1454C30.1317 24.4754 28.9717 23.9354 27.8317 23.3554C25.3117 22.0554 24.7216 19.4454 26.5316 17.6054C26.9124 17.1673 27.4374 16.8799 28.0116 16.7954C28.4316 16.7954 28.5616 16.7954 28.7916 16.6654C29.3216 16.3254 29.1016 15.6154 29.5916 15.3454C29.7212 15.2717 29.8676 15.233 30.0166 15.233C30.1657 15.233 30.3121 15.2717 30.4416 15.3454C30.8416 15.6154 30.5917 16.0954 30.9917 16.5554C31.2517 16.8554 31.4116 16.6954 32.1716 17.1454C32.6416 17.4154 33.0216 17.6554 33.0916 18.0454C33.1137 18.2293 33.0751 18.4154 32.9816 18.5754C32.6016 19.3454 31.9016 19.0054 31.3916 18.6754C31.0012 18.3804 30.5424 18.189 30.0581 18.1191C29.5738 18.0491 29.0796 18.1029 28.6216 18.2754C28.2354 18.3851 27.8959 18.6187 27.6556 18.9404C27.4152 19.2621 27.2873 19.6539 27.2916 20.0554C27.322 20.5417 27.4932 21.0087 27.7844 21.3993C28.0756 21.79 28.4743 22.0874 28.9317 22.2554C30.0217 22.8254 31.1716 23.2554 32.2616 23.8554C32.9678 24.2135 33.5475 24.7791 33.9229 25.4763C34.2983 26.1734 34.4514 26.9687 34.3617 27.7554V27.7654Z" fill="#020203" stroke="#76CD26" stroke-width="0.532548" stroke-miterlimit="10"/>
<path d="M29.9223 10.2254C22.1023 10.2254 14.8422 16.8054 15.1222 25.0054C14.7622 33.2354 22.0123 39.9254 29.7723 39.9554C31.7559 40.0159 33.7316 39.6787 35.5829 38.9636C37.4342 38.2486 39.1237 37.1702 40.5517 35.7921C41.9797 34.4139 43.1174 32.7638 43.8978 30.9391C44.6781 29.1143 45.0853 27.1519 45.0953 25.1673C45.1053 23.1827 44.718 21.2162 43.9561 19.3837C43.1942 17.5512 42.0732 15.8897 40.6592 14.4972C39.2451 13.1047 37.5666 12.0094 35.7226 11.2757C33.8786 10.542 31.9064 10.1849 29.9223 10.2254ZM30.0423 38.7554C27.342 38.7672 24.699 37.9774 22.448 36.4858C20.197 34.9943 18.4394 32.8682 17.3978 30.3769C16.3563 27.8856 16.0776 25.1411 16.5971 22.4913C17.1166 19.8415 18.4109 17.4054 20.3161 15.4918C22.2213 13.5783 24.6516 12.2732 27.2991 11.742C29.9466 11.2108 32.6922 11.4774 35.1881 12.508C37.684 13.5386 39.8178 15.2868 41.3193 17.5312C42.8207 19.7756 43.6222 22.4151 43.6222 25.1154C43.6196 28.7217 42.19 32.1805 39.6455 34.7362C37.1011 37.292 33.6486 38.7369 30.0423 38.7554Z" fill="#539818" stroke="#76CD26" stroke-width="0.532548" stroke-miterlimit="10"/>
<path d="M14.3437 17.0254C14.1837 17.6054 14.1137 18.2454 13.3937 18.3354C13.3144 18.3432 13.2343 18.3316 13.1605 18.3015C13.0866 18.2714 13.0213 18.2237 12.97 18.1626C12.9188 18.1015 12.8832 18.0289 12.8665 17.9509C12.8497 17.873 12.8521 17.7921 12.8737 17.7154C13.0137 17.1854 13.0237 16.4854 13.7337 16.3454C14.1737 16.2654 14.2937 16.6754 14.3437 17.0254Z" fill="#539818" stroke="#76CD26" stroke-width="0.532548" stroke-miterlimit="10"/>
<path d="M33.3017 23.1954C32.0697 22.4158 30.7713 21.7465 29.4216 21.1954C28.8316 20.9154 28.3416 20.6154 28.5416 19.9454C28.7416 19.2754 29.4516 19.2054 30.0716 19.4354C30.6916 19.6654 31.0716 19.9154 31.6416 20.1054C32.0154 20.2572 32.4273 20.2886 32.8198 20.1954C33.2123 20.1022 33.566 19.889 33.8317 19.5854C34.0974 19.2806 34.2644 18.9024 34.3108 18.5007C34.3573 18.099 34.2808 17.6927 34.0916 17.3354C33.7368 16.7156 33.1622 16.2517 32.4816 16.0354C31.9886 15.8329 31.5697 15.4838 31.2816 15.0354C30.7916 14.2654 29.2817 14.0354 28.8616 14.7754C28.4416 15.5154 27.8616 15.5154 27.2616 15.7054C26.7006 15.9023 26.185 16.2101 25.7454 16.6105C25.3059 17.0109 24.9515 17.4957 24.7032 18.036C24.455 18.5763 24.3181 19.161 24.3006 19.7554C24.2832 20.3497 24.3856 20.9414 24.6016 21.4954C25.1943 22.8333 26.2637 23.9028 27.6016 24.4954C28.6916 25.0654 29.7916 25.6354 30.8416 26.2654C31.3916 26.5954 31.8416 27.1054 31.5616 27.8054C31.4505 28.1708 31.2167 28.4867 30.8998 28.6999C30.5828 28.913 30.202 29.0103 29.8216 28.9754C29.0215 28.9439 28.2561 28.6405 27.6516 28.1154C27.3064 27.831 26.8846 27.6554 26.4396 27.6109C25.9946 27.5664 25.5463 27.655 25.1516 27.8654C24.8261 28.0133 24.5575 28.263 24.3862 28.5768C24.2149 28.8906 24.1501 29.2516 24.2016 29.6054C24.1637 29.8478 24.1858 30.0958 24.266 30.3277C24.3462 30.5595 24.482 30.7682 24.6616 30.9354C25.3356 31.5769 26.136 32.0707 27.0116 32.3854C28.1016 32.6154 28.7117 33.0754 28.5217 34.3154C28.5036 34.4628 28.5154 34.6124 28.5562 34.7552C28.5971 34.898 28.6662 35.0312 28.7594 35.1468C28.8527 35.2625 28.9682 35.3582 29.0991 35.4284C29.23 35.4986 29.3737 35.5417 29.5217 35.5554C29.8372 35.6668 30.18 35.6745 30.5002 35.5774C30.8204 35.4802 31.1012 35.2833 31.3017 35.0154C31.6463 34.5464 31.7967 33.9625 31.7216 33.3854C31.6922 33.2767 31.686 33.1631 31.7034 33.0519C31.7209 32.9406 31.7617 32.8344 31.823 32.74C31.8844 32.6456 31.9649 32.5652 32.0595 32.5041C32.154 32.443 32.2604 32.4026 32.3716 32.3854C34.6716 31.6854 35.4616 29.8354 35.6016 27.7054C35.6608 26.8161 35.4782 25.9273 35.0733 25.1333C34.6684 24.3394 34.0562 23.6697 33.3017 23.1954ZM34.3617 27.7654C34.4245 28.5624 34.2142 29.3571 33.7653 30.0187C33.3163 30.6803 32.6555 31.1693 31.8916 31.4054C31.3896 31.5205 30.9513 31.825 30.6681 32.2554C30.3849 32.6857 30.2787 33.2087 30.3716 33.7154C30.3716 34.0054 30.4817 34.4354 30.0517 34.4654C29.6217 34.4954 29.5516 34.0254 29.6016 33.6954C29.7916 32.3354 29.0416 31.7954 27.8616 31.5154C27.1697 31.3545 26.5255 31.0324 25.9816 30.5754C25.5616 30.2154 25.0516 29.8954 25.4416 29.2954C25.8316 28.6954 26.5116 28.8354 26.9716 29.1754C27.6145 29.7045 28.3885 30.05 29.2117 30.1754C30.9517 30.3654 32.1316 29.7854 32.6416 28.3754C32.8332 27.755 32.7939 27.0864 32.5311 26.4928C32.2683 25.8991 31.7997 25.4206 31.2117 25.1454C30.1317 24.4754 28.9717 23.9354 27.8317 23.3554C25.3117 22.0554 24.7216 19.4454 26.5316 17.6054C26.9124 17.1673 27.4374 16.8799 28.0116 16.7954C28.4316 16.7954 28.5616 16.7954 28.7916 16.6654C29.3216 16.3254 29.1016 15.6154 29.5916 15.3454C29.7212 15.2717 29.8676 15.233 30.0166 15.233C30.1657 15.233 30.3121 15.2717 30.4416 15.3454C30.8416 15.6154 30.5917 16.0954 30.9917 16.5554C31.2517 16.8554 31.4116 16.6954 32.1716 17.1454C32.6416 17.4154 33.0216 17.6554 33.0916 18.0454C33.1137 18.2293 33.0751 18.4154 32.9816 18.5754C32.6016 19.3454 31.9016 19.0054 31.3916 18.6754C31.0012 18.3804 30.5424 18.189 30.0581 18.1191C29.5738 18.0491 29.0796 18.1029 28.6216 18.2754C28.2354 18.3851 27.8959 18.6187 27.6556 18.9404C27.4152 19.2621 27.2873 19.6539 27.2916 20.0554C27.322 20.5417 27.4932 21.0087 27.7844 21.3993C28.0756 21.79 28.4743 22.0874 28.9317 22.2554C30.0217 22.8254 31.1716 23.2554 32.2616 23.8554C32.9678 24.2135 33.5475 24.7791 33.9229 25.4763C34.2983 26.1734 34.4514 26.9687 34.3617 27.7554V27.7654Z" fill="#F9F9FB" stroke="#76CD26" stroke-width="0.532548" stroke-miterlimit="10"/>
<path d="M33.3017 23.1954C32.0697 22.4158 30.7713 21.7465 29.4216 21.1954C28.8316 20.9154 28.3416 20.6154 28.5416 19.9454C28.7416 19.2754 29.4516 19.2054 30.0716 19.4354C30.6916 19.6654 31.0716 19.9154 31.6416 20.1054C32.0154 20.2572 32.4273 20.2886 32.8198 20.1954C33.2123 20.1022 33.566 19.889 33.8317 19.5854C34.0974 19.2806 34.2644 18.9024 34.3108 18.5007C34.3573 18.099 34.2808 17.6927 34.0916 17.3354C33.7368 16.7156 33.1622 16.2517 32.4816 16.0354C31.9886 15.8329 31.5697 15.4838 31.2816 15.0354C30.7916 14.2654 29.2817 14.0354 28.8616 14.7754C28.4416 15.5154 27.8616 15.5154 27.2616 15.7054C26.7006 15.9023 26.185 16.2101 25.7454 16.6105C25.3059 17.0109 24.9515 17.4957 24.7032 18.036C24.455 18.5763 24.3181 19.161 24.3006 19.7554C24.2832 20.3497 24.3856 20.9414 24.6016 21.4954C25.1943 22.8333 26.2637 23.9028 27.6016 24.4954C28.6916 25.0654 29.7916 25.6354 30.8416 26.2654C31.3916 26.5954 31.8416 27.1054 31.5616 27.8054C31.4505 28.1708 31.2167 28.4867 30.8998 28.6999C30.5828 28.913 30.202 29.0103 29.8216 28.9754C29.0215 28.9439 28.2561 28.6405 27.6516 28.1154C27.3064 27.831 26.8846 27.6554 26.4396 27.6109C25.9946 27.5664 25.5463 27.655 25.1516 27.8654C24.8261 28.0133 24.5575 28.263 24.3862 28.5768C24.2149 28.8906 24.1501 29.2516 24.2016 29.6054C24.1637 29.8478 24.1858 30.0958 24.266 30.3277C24.3462 30.5595 24.482 30.7682 24.6616 30.9354C25.3356 31.5769 26.136 32.0707 27.0116 32.3854C28.1016 32.6154 28.7117 33.0754 28.5217 34.3154C28.5036 34.4628 28.5154 34.6124 28.5562 34.7552C28.5971 34.898 28.6662 35.0312 28.7594 35.1468C28.8527 35.2625 28.9682 35.3582 29.0991 35.4284C29.23 35.4986 29.3737 35.5417 29.5217 35.5554C29.8372 35.6668 30.18 35.6745 30.5002 35.5774C30.8204 35.4802 31.1012 35.2833 31.3017 35.0154C31.6463 34.5464 31.7967 33.9625 31.7216 33.3854C31.6922 33.2767 31.686 33.1631 31.7034 33.0519C31.7209 32.9406 31.7617 32.8344 31.823 32.74C31.8844 32.6456 31.9649 32.5652 32.0595 32.5041C32.154 32.443 32.2604 32.4026 32.3716 32.3854C34.6716 31.6854 35.4616 29.8354 35.6016 27.7054C35.6608 26.8161 35.4782 25.9273 35.0733 25.1333C34.6684 24.3394 34.0562 23.6697 33.3017 23.1954ZM34.3617 27.7654C34.4245 28.5624 34.2142 29.3571 33.7653 30.0187C33.3163 30.6803 32.6555 31.1693 31.8916 31.4054C31.3896 31.5205 30.9513 31.825 30.6681 32.2554C30.3849 32.6857 30.2787 33.2087 30.3716 33.7154C30.3716 34.0054 30.4817 34.4354 30.0517 34.4654C29.6217 34.4954 29.5516 34.0254 29.6016 33.6954C29.7916 32.3354 29.0416 31.7954 27.8616 31.5154C27.1697 31.3545 26.5255 31.0324 25.9816 30.5754C25.5616 30.2154 25.0516 29.8954 25.4416 29.2954C25.8316 28.6954 26.5116 28.8354 26.9716 29.1754C27.6145 29.7045 28.3885 30.05 29.2117 30.1754C30.9517 30.3654 32.1316 29.7854 32.6416 28.3754C32.8332 27.755 32.7939 27.0864 32.5311 26.4928C32.2683 25.8991 31.7997 25.4206 31.2117 25.1454C30.1317 24.4754 28.9717 23.9354 27.8317 23.3554C25.3117 22.0554 24.7216 19.4454 26.5316 17.6054C26.9124 17.1673 27.4374 16.8799 28.0116 16.7954C28.4316 16.7954 28.5616 16.7954 28.7916 16.6654C29.3216 16.3254 29.1016 15.6154 29.5916 15.3454C29.7212 15.2717 29.8676 15.233 30.0166 15.233C30.1657 15.233 30.3121 15.2717 30.4416 15.3454C30.8416 15.6154 30.5917 16.0954 30.9917 16.5554C31.2517 16.8554 31.4116 16.6954 32.1716 17.1454C32.6416 17.4154 33.0216 17.6554 33.0916 18.0454C33.1137 18.2293 33.0751 18.4154 32.9816 18.5754C32.6016 19.3454 31.9016 19.0054 31.3916 18.6754C31.0012 18.3804 30.5424 18.189 30.0581 18.1191C29.5738 18.0491 29.0796 18.1029 28.6216 18.2754C28.2354 18.3851 27.8959 18.6187 27.6556 18.9404C27.4152 19.2621 27.2873 19.6539 27.2916 20.0554C27.322 20.5417 27.4932 21.0087 27.7844 21.3993C28.0756 21.79 28.4743 22.0874 28.9317 22.2554C30.0217 22.8254 31.1716 23.2554 32.2616 23.8554C32.9678 24.2135 33.5475 24.7791 33.9229 25.4763C34.2983 26.1734 34.4514 26.9687 34.3617 27.7554V27.7654Z" fill="#539818" stroke="#76CD26" stroke-width="0.532548" stroke-miterlimit="10"/>
</svg>
