<svg width="60" height="61" viewBox="0 0 60 61" fill="none" xmlns="http://www.w3.org/2000/svg">
<path d="M43.7689 21.37C43.7689 20.16 43.3889 19.61 42.0789 19.62C37.3689 19.62 32.6589 19.55 27.9489 19.5C27.3441 19.4587 26.7409 19.6017 26.2189 19.91C23.8289 21.41 21.4089 22.91 19.0789 24.45C18.2789 24.99 17.1889 25.33 17.1789 26.77C17.1789 32.03 17.0389 37.29 16.8789 42.55C16.8789 43.77 17.2989 44.07 18.4089 44.05C21.1589 44 23.9089 44.05 26.6589 44.05H34.9089C35.4089 44.05 35.9089 44.12 36.3289 43.67C38.5689 41.3 40.8389 38.95 43.0689 36.57C43.3067 36.3162 43.4912 36.0173 43.6115 35.691C43.7317 35.3646 43.7853 35.0174 43.7689 34.67C43.7289 30.23 43.7289 25.7967 43.7689 21.37ZM34.2389 21.23C31.1789 23.76 28.9489 25.61 28.6689 25.87C28.579 25.9554 28.5016 26.053 28.4389 26.16C28.3292 26.3525 28.2675 26.5686 28.2589 26.79C28.1289 29.62 28.2589 31.97 28.2589 31.97C28.2589 32.64 28.1589 32.97 27.4189 32.54C26.6789 32.11 25.7289 32.27 24.7289 32.96C24.7289 30.87 24.7289 29.1 24.7289 27.33C24.7153 27.111 24.753 26.8919 24.8389 26.69C24.9623 26.4366 25.1569 26.2246 25.3989 26.08C25.7289 25.86 27.1089 24.69 29.8689 22.37L31.2989 21.16H32.5189C32.9389 21.14 33.5289 21.16 34.2389 21.23ZM29.3589 21.23C28.0289 22.35 27.0089 23.23 26.2889 23.91C25.7055 24.5078 24.9992 24.9719 24.2189 25.27L23.9989 25.34C23.0972 25.5854 22.1426 25.5541 21.2589 25.25C23.1489 24.01 24.1789 23.25 24.7789 22.82C25.1189 22.56 25.4789 22.32 25.7789 22.05C26.4989 21.47 26.7089 21.19 27.2089 21.05C27.517 21.0017 27.8308 21.0017 28.1389 21.05C28.5504 21.0707 28.9589 21.131 29.3589 21.23ZM34.8389 30.65C34.8389 34.23 34.6989 37.82 34.6889 41.4C34.6889 42.28 34.4689 42.59 33.5289 42.56C31.2489 42.48 28.9689 42.56 26.6789 42.56C24.3889 42.56 22.0189 42.56 19.6789 42.56C18.9189 42.56 18.6789 42.4 18.6789 41.56C18.7889 37 18.8389 32.44 18.8789 27.87C18.8789 27.18 19.0489 26.87 19.8189 26.87C23.1189 26.76 23.1089 26.73 23.1089 30.07C23.1089 31.33 23.1089 32.58 23.1089 33.84C23.1089 35.1 23.6489 35.45 24.6289 34.84C25.1642 34.4666 25.8012 34.2664 26.4539 34.2664C27.1066 34.2664 27.7436 34.4666 28.2789 34.84C29.4089 35.48 29.9589 35.08 29.9789 33.73C29.9789 31.82 29.9789 29.91 29.9789 28C29.9789 27.17 30.1589 26.8 31.0489 26.9C32.2889 27.02 33.8989 26.39 34.6889 27.15C35.4789 27.91 34.8489 29.5 34.8389 30.65ZM35.8389 25.05C34.7089 25.82 33.3089 25.24 31.7689 25.41C32.9489 23.99 34.4489 23.32 35.5489 22.19C36.8589 20.84 38.5489 21.37 40.5489 21.31C38.7789 22.72 37.3889 24 35.8489 25.05H35.8389ZM39.7689 37.6C38.6 38.6431 37.4978 39.7586 36.4689 40.94C36.4689 36.38 36.4689 32.15 36.4689 27.94C36.4211 27.5551 36.4809 27.1645 36.6415 26.8115C36.8021 26.4585 37.0573 26.1568 37.3789 25.94C38.9089 24.84 40.3789 23.65 42.1089 22.3V26.8C42.1089 28.24 41.9889 29.69 42.1089 31.12C42.3889 33.69 41.9989 35.89 39.7789 37.6H39.7689Z" fill="#76CD26" stroke="#76CD26" stroke-width="0.559897" stroke-miterlimit="10"/>
<path d="M9.59066 29.98C9.59066 36.16 11.5906 41.18 15.7206 45.22C17.8877 47.4709 20.5607 49.1723 23.5174 50.1827C26.474 51.1932 29.6291 51.4837 32.7206 51.03C41.3906 49.92 46.9406 45.08 50.0406 37.15C50.4058 35.9498 50.6932 34.7273 50.9007 33.49C51.0307 32.96 51.1507 32.32 51.9007 32.44C52.6507 32.56 52.5806 33.25 52.5006 33.77C51.9919 37.3768 50.6197 40.8074 48.5006 43.77C45.9664 47.3246 42.408 50.0213 38.3006 51.5C34.2108 53.1287 29.7229 53.4774 25.4306 52.5C20.3236 51.3271 15.782 48.4183 12.5806 44.27C9.80962 40.782 8.20717 36.51 8.00063 32.06C8.00063 31.65 8.15062 31.06 7.80062 30.87C7.45062 30.68 7.17062 31.26 6.86062 31.47C6.39062 31.77 6.06064 31.82 5.64064 31.4C5.22064 30.98 5.37064 30.66 5.64064 30.32L7.85061 27.82C8.57061 27 9.26064 27.07 9.95064 27.82C10.6406 28.57 11.3206 29.34 12.0006 30.11C12.3806 30.54 12.5206 30.98 12.0006 31.43C11.4806 31.88 11.1307 31.59 10.7807 31.25C10.4307 30.91 10.2007 30.63 9.59066 29.98Z" fill="#76CD26" stroke="#76CD26" stroke-width="0.559897" stroke-miterlimit="10"/>
<path d="M52.4092 26.06C52.8892 25.5 53.2492 25.14 53.5392 24.73C53.5905 24.6239 53.6642 24.5302 53.7551 24.4551C53.846 24.3801 53.952 24.3255 54.0659 24.2951C54.1798 24.2648 54.2989 24.2593 54.4151 24.2791C54.5313 24.299 54.6418 24.3436 54.7392 24.41C54.8357 24.4792 54.9165 24.5681 54.9761 24.6708C55.0358 24.7735 55.073 24.8876 55.0852 25.0058C55.0975 25.1239 55.0846 25.2433 55.0473 25.3561C55.0101 25.4688 54.9494 25.5724 54.8692 25.66C54.0463 26.703 53.1719 27.7042 52.2492 28.66C52.0779 28.7852 51.8713 28.8526 51.6592 28.8526C51.447 28.8526 51.2405 28.7852 51.0692 28.66C50.1592 28.11 49.2692 27.52 48.3492 26.98C47.8292 26.66 47.5992 26.29 47.9192 25.71C48.2392 25.13 48.7092 25.33 49.1492 25.51C49.5892 25.69 49.9392 25.92 50.4892 26.21C50.0763 23.6403 49.0697 21.2023 47.5492 19.09C44.9146 15.2368 41.0653 12.377 36.6156 10.9669C32.166 9.5568 27.3722 9.67758 22.9992 11.31C19.4677 12.6334 16.3823 14.9283 14.0992 17.93C13.179 19.0857 12.3845 20.3361 11.7292 21.66C11.4692 22.21 11.0092 22.75 10.2892 22.34C9.56916 21.93 9.92921 21.34 10.2092 20.79C12.3315 16.4059 15.8486 12.8501 20.2092 10.68C24.8064 8.22614 30.147 7.55324 35.2092 8.78999C39.331 9.73428 43.1065 11.8126 46.1092 14.79C48.8798 17.4673 50.8767 20.8426 51.8892 24.56C51.9592 24.83 52.0492 25.1 52.1292 25.36C52.2092 25.62 52.2292 25.63 52.4092 26.06Z" fill="#76CD26" stroke="#76CD26" stroke-width="0.559897" stroke-miterlimit="10"/>
</svg>
