<svg width="60" height="61" viewBox="0 0 60 61" fill="none" xmlns="http://www.w3.org/2000/svg">
<path d="M17.4904 39.6204C16.6504 39.5104 16.3804 40.1303 16.3104 40.7403C16.2748 40.9028 16.2757 41.0711 16.3132 41.2331C16.3508 41.3951 16.4239 41.5467 16.5273 41.6769C16.6307 41.8072 16.7618 41.9127 16.9111 41.986C17.0604 42.0592 17.2241 42.0983 17.3904 42.1003C17.5559 42.1243 17.7247 42.1112 17.8846 42.062C18.0444 42.0127 18.1914 41.9287 18.3148 41.8158C18.4382 41.7029 18.535 41.564 18.5982 41.4092C18.6615 41.2543 18.6895 41.0874 18.6804 40.9204C18.7007 40.7541 18.6848 40.5855 18.6337 40.426C18.5827 40.2665 18.4977 40.12 18.3846 39.9965C18.2715 39.8729 18.1331 39.7754 17.9787 39.7104C17.8244 39.6455 17.6578 39.6148 17.4904 39.6204ZM17.4904 39.6204C16.6504 39.5104 16.3804 40.1303 16.3104 40.7403C16.2748 40.9028 16.2757 41.0711 16.3132 41.2331C16.3508 41.3951 16.4239 41.5467 16.5273 41.6769C16.6307 41.8072 16.7618 41.9127 16.9111 41.986C17.0604 42.0592 17.2241 42.0983 17.3904 42.1003C17.5559 42.1243 17.7247 42.1112 17.8846 42.062C18.0444 42.0127 18.1914 41.9287 18.3148 41.8158C18.4382 41.7029 18.535 41.564 18.5982 41.4092C18.6615 41.2543 18.6895 41.0874 18.6804 40.9204C18.7007 40.7541 18.6848 40.5855 18.6337 40.426C18.5827 40.2665 18.4977 40.12 18.3846 39.9965C18.2715 39.8729 18.1331 39.7754 17.9787 39.7104C17.8244 39.6455 17.6578 39.6148 17.4904 39.6204ZM17.4904 39.6204C16.6504 39.5104 16.3804 40.1303 16.3104 40.7403C16.2748 40.9028 16.2757 41.0711 16.3132 41.2331C16.3508 41.3951 16.4239 41.5467 16.5273 41.6769C16.6307 41.8072 16.7618 41.9127 16.9111 41.986C17.0604 42.0592 17.2241 42.0983 17.3904 42.1003C17.5559 42.1243 17.7247 42.1112 17.8846 42.062C18.0444 42.0127 18.1914 41.9287 18.3148 41.8158C18.4382 41.7029 18.535 41.564 18.5982 41.4092C18.6615 41.2543 18.6895 41.0874 18.6804 40.9204C18.7007 40.7541 18.6848 40.5855 18.6337 40.426C18.5827 40.2665 18.4977 40.12 18.3846 39.9965C18.2715 39.8729 18.1331 39.7754 17.9787 39.7104C17.8244 39.6455 17.6578 39.6148 17.4904 39.6204ZM17.4904 39.6204C16.6504 39.5104 16.3804 40.1303 16.3104 40.7403C16.2748 40.9028 16.2757 41.0711 16.3132 41.2331C16.3508 41.3951 16.4239 41.5467 16.5273 41.6769C16.6307 41.8072 16.7618 41.9127 16.9111 41.986C17.0604 42.0592 17.2241 42.0983 17.3904 42.1003C17.5559 42.1243 17.7247 42.1112 17.8846 42.062C18.0444 42.0127 18.1914 41.9287 18.3148 41.8158C18.4382 41.7029 18.535 41.564 18.5982 41.4092C18.6615 41.2543 18.6895 41.0874 18.6804 40.9204C18.7007 40.7541 18.6848 40.5855 18.6337 40.426C18.5827 40.2665 18.4977 40.12 18.3846 39.9965C18.2715 39.8729 18.1331 39.7754 17.9787 39.7104C17.8244 39.6455 17.6578 39.6148 17.4904 39.6204ZM55.2104 28.0004C53.4104 25.3304 51.5904 22.6704 49.8304 20.0004C49.6779 19.7377 49.4516 19.5257 49.1796 19.3905C48.9076 19.2554 48.6018 19.2032 48.3004 19.2403C44.9304 19.2403 41.5604 19.2403 38.1904 19.2403C37.0704 19.2403 36.7604 18.8903 36.9204 17.8803C36.9304 17.7272 36.9304 17.5735 36.9204 17.4204C36.9204 15.5404 36.9204 15.5004 34.9204 15.5004H7.06041C6.64041 15.5004 6.21042 15.5004 5.79042 15.5004C5.68277 15.4971 5.57565 15.5167 5.47616 15.5579C5.37667 15.5991 5.28708 15.6611 5.21333 15.7395C5.13958 15.818 5.08335 15.9113 5.04837 16.0131C5.01338 16.115 5.00045 16.2231 5.01042 16.3303C4.99751 16.437 5.00764 16.5451 5.04014 16.6475C5.07265 16.7499 5.12676 16.8441 5.19882 16.9237C5.27088 17.0033 5.35921 17.0666 5.45782 17.1091C5.55643 17.1517 5.66303 17.1726 5.77041 17.1704C6.15349 17.1903 6.53733 17.1903 6.92041 17.1704C15.8671 17.1704 24.8137 17.1704 33.7604 17.1704C35.2404 17.1704 35.2204 17.1703 35.2604 18.6903C35.2604 19.4503 34.9304 20.3803 36.0104 20.7703C36.1845 20.8538 36.379 20.885 36.5704 20.8604C38.9504 20.8104 41.3204 20.8604 43.6904 20.9704C43.0562 20.9875 42.4242 21.0544 41.8004 21.1704C41.0704 21.3304 41.1304 21.9203 41.1304 22.4603C41.1304 24.4603 41.1304 26.4004 41.1304 28.3704C41.1304 29.4304 41.4804 29.8204 42.5404 29.8104C45.7104 29.8104 48.8904 29.8104 52.0604 29.8104C53.9504 29.8104 53.9204 29.8103 53.9504 31.6903C53.9504 32.4403 53.8304 32.7904 52.9504 32.7804C51.1204 32.7804 51.1204 32.7803 51.1504 34.6603C51.1504 35.1603 51.0704 35.7404 51.7504 35.8604C52.4304 35.9804 52.7504 35.5303 52.7504 34.9103C52.7504 34.2903 53.0804 34.5004 53.3904 34.4804C53.7004 34.4604 53.9204 34.6604 53.9104 35.0403C53.9104 35.8503 53.9104 36.6604 53.9104 37.4704C53.9104 39.8704 54.2004 40.0404 51.4004 40.0604C51.0138 40.1247 50.6173 40.0352 50.2958 39.8109C49.9744 39.5866 49.7535 39.2454 49.6804 38.8604C49.4124 37.9664 48.8927 37.1685 48.1834 36.5621C47.4741 35.9556 46.6051 35.5662 45.6804 35.4403C44.3489 35.1371 42.9517 35.3656 41.7862 36.0773C40.6207 36.7889 39.779 37.9274 39.4404 39.2504C39.394 39.5076 39.2486 39.7364 39.0355 39.8878C38.8225 40.0392 38.5586 40.1011 38.3004 40.0604C33.4604 40.0604 28.6304 40.0604 23.7904 40.0604C23.0504 40.0604 22.7904 39.8004 22.6204 39.1504C22.365 38.0525 21.7042 37.0917 20.7704 36.4603C18.6104 34.8703 16.4004 35.0303 14.1804 36.3303C13.2188 37.1487 12.5226 38.2349 12.1804 39.4504C12.0304 39.9704 11.7604 40.0804 11.2804 40.0403C10.8004 40.0003 10.8504 39.5903 10.8504 39.2703C10.8504 38.2703 10.9704 37.2704 9.4504 37.4004C9.1504 37.4004 9.17041 37.0904 9.17041 36.8704C9.17041 36.4704 9.49041 36.5004 9.75041 36.5004C10.6804 36.5004 11.6004 36.5004 12.5204 36.5004C12.9799 36.5409 13.4424 36.4723 13.8704 36.3003C14.0604 35.0003 13.8704 34.7604 12.6104 34.7504C10.5171 34.7504 8.42709 34.7504 6.34042 34.7504C5.75042 34.7504 5.02041 34.6903 5.00041 35.6303C4.98041 36.5703 5.70041 36.5604 6.30041 36.4804C7.37041 36.3304 7.65041 36.7604 7.55041 37.7504C7.49041 38.3004 7.44042 39.0604 8.26042 39.0904C9.08042 39.1204 9.11041 39.5304 9.07042 40.0904C8.98042 41.1504 9.46041 41.7903 10.5504 41.6003C11.6404 41.4103 12.1804 42.0104 12.5504 43.0004C12.9978 43.9676 13.7219 44.7806 14.6312 45.3364C15.5405 45.8923 16.5941 46.1661 17.659 46.1233C18.7239 46.0805 19.7522 45.723 20.6139 45.0959C21.4756 44.4689 22.1321 43.6004 22.5004 42.6003C22.5497 42.2882 22.7202 42.008 22.9748 41.8208C23.2295 41.6336 23.5477 41.5543 23.8604 41.6003C28.5271 41.6603 33.2137 41.6603 37.9204 41.6003C38.9204 41.6003 39.4204 41.8103 39.6004 42.8003C39.7944 43.5149 40.2113 44.149 40.7904 44.6104C41.387 45.2168 42.12 45.6717 42.9283 45.937C43.7366 46.2022 44.5967 46.2701 45.4366 46.135C46.2765 45.9999 47.0719 45.6658 47.7563 45.1604C48.4406 44.6551 48.9941 43.9933 49.3704 43.2304C49.9604 41.9604 50.5604 41.4004 51.9004 41.6504C52.0531 41.6704 52.2077 41.6704 52.3604 41.6504C54.6704 41.5704 55.5504 40.6503 55.5604 38.3303C55.5604 35.3303 55.5604 32.3304 55.5604 29.3904C55.5737 28.9037 55.4526 28.4227 55.2104 28.0004ZM43.5204 28.1603C43.0004 28.1603 42.7404 28.0404 42.7604 27.4504C42.8004 26.2104 42.8004 24.9704 42.7604 23.7304C42.7604 23.1604 42.9804 23.0104 43.5104 23.0104C45.4104 23.0104 47.3104 23.0104 49.2104 23.0104C49.4023 22.9871 49.5969 23.0167 49.7731 23.096C49.9494 23.1753 50.1006 23.3013 50.2104 23.4603C51.2104 24.9703 52.2104 26.4604 53.2604 28.1404C49.8704 28.1504 46.7004 28.1403 43.5204 28.1603ZM17.4304 44.5803C16.9379 44.5985 16.4469 44.515 15.988 44.3351C15.5291 44.1552 15.1122 43.8827 14.7632 43.5347C14.4142 43.1867 14.1407 42.7705 13.9595 42.3121C13.7784 41.8537 13.6936 41.3629 13.7104 40.8704C13.7011 40.3782 13.7903 39.8892 13.9728 39.4321C14.1553 38.9749 14.4274 38.559 14.7731 38.2086C15.1188 37.8582 15.5311 37.5806 15.9858 37.3919C16.4404 37.2033 16.9282 37.1076 17.4204 37.1104C18.4319 37.1096 19.4044 37.5009 20.1335 38.202C20.8626 38.9032 21.2916 39.8596 21.3304 40.8704C21.3241 41.3719 21.2175 41.8671 21.0169 42.3268C20.8162 42.7866 20.5257 43.2015 20.1622 43.5472C19.7988 43.8929 19.3699 44.1625 18.9007 44.3399C18.4316 44.5173 17.9317 44.5991 17.4304 44.5803ZM44.5804 44.5803C43.8433 44.5607 43.1283 44.3242 42.525 43.9003C41.9216 43.4765 41.4565 42.8842 41.188 42.1975C40.9194 41.5107 40.8593 40.7601 41.0151 40.0394C41.1709 39.3187 41.5357 38.6599 42.0639 38.1454C42.5921 37.6309 43.2603 37.2835 43.9848 37.1468C44.7094 37.01 45.4582 37.0899 46.1376 37.3764C46.817 37.6629 47.3969 38.1434 47.8047 38.7577C48.2125 39.3721 48.4302 40.093 48.4304 40.8303C48.4402 41.3359 48.3469 41.8381 48.1561 42.3063C47.9653 42.7745 47.6811 43.199 47.3208 43.5537C46.9605 43.9084 46.5317 44.1859 46.0605 44.3693C45.5893 44.5527 45.0857 44.6381 44.5804 44.6204V44.5803ZM17.4904 39.5803C16.6504 39.4703 16.3804 40.0904 16.3104 40.7004C16.2748 40.8628 16.2757 41.0311 16.3132 41.1931C16.3508 41.3551 16.4239 41.5067 16.5273 41.6369C16.6307 41.7672 16.7618 41.8727 16.9111 41.946C17.0604 42.0192 17.2241 42.0583 17.3904 42.0604C17.5559 42.0843 17.7247 42.0712 17.8846 42.0219C18.0444 41.9727 18.1914 41.8887 18.3148 41.7758C18.4382 41.6629 18.535 41.524 18.5982 41.3691C18.6615 41.2143 18.6895 41.0474 18.6804 40.8803C18.6946 40.7173 18.6741 40.553 18.6203 40.3984C18.5665 40.2438 18.4805 40.1024 18.3681 39.9834C18.2557 39.8643 18.1194 39.7705 17.9681 39.7079C17.8168 39.6453 17.654 39.6155 17.4904 39.6204V39.5803ZM17.4904 39.5803C16.6504 39.4703 16.3804 40.0904 16.3104 40.7004C16.2748 40.8628 16.2757 41.0311 16.3132 41.1931C16.3508 41.3551 16.4239 41.5067 16.5273 41.6369C16.6307 41.7672 16.7618 41.8727 16.9111 41.946C17.0604 42.0192 17.2241 42.0583 17.3904 42.0604C17.5559 42.0843 17.7247 42.0712 17.8846 42.0219C18.0444 41.9727 18.1914 41.8887 18.3148 41.7758C18.4382 41.6629 18.535 41.524 18.5982 41.3691C18.6615 41.2143 18.6895 41.0474 18.6804 40.8803C18.6946 40.7173 18.6741 40.553 18.6203 40.3984C18.5665 40.2438 18.4805 40.1024 18.3681 39.9834C18.2557 39.8643 18.1194 39.7705 17.9681 39.7079C17.8168 39.6453 17.654 39.6155 17.4904 39.6204V39.5803ZM17.4904 39.5803C16.6504 39.4703 16.3804 40.0904 16.3104 40.7004C16.2748 40.8628 16.2757 41.0311 16.3132 41.1931C16.3508 41.3551 16.4239 41.5067 16.5273 41.6369C16.6307 41.7672 16.7618 41.8727 16.9111 41.946C17.0604 42.0192 17.2241 42.0583 17.3904 42.0604C17.5559 42.0843 17.7247 42.0712 17.8846 42.0219C18.0444 41.9727 18.1914 41.8887 18.3148 41.7758C18.4382 41.6629 18.535 41.524 18.5982 41.3691C18.6615 41.2143 18.6895 41.0474 18.6804 40.8803C18.6946 40.7173 18.6741 40.553 18.6203 40.3984C18.5665 40.2438 18.4805 40.1024 18.3681 39.9834C18.2557 39.8643 18.1194 39.7705 17.9681 39.7079C17.8168 39.6453 17.654 39.6155 17.4904 39.6204V39.5803ZM17.4904 39.5803C16.6504 39.4703 16.3804 40.0904 16.3104 40.7004C16.2748 40.8628 16.2757 41.0311 16.3132 41.1931C16.3508 41.3551 16.4239 41.5067 16.5273 41.6369C16.6307 41.7672 16.7618 41.8727 16.9111 41.946C17.0604 42.0192 17.2241 42.0583 17.3904 42.0604C17.5559 42.0843 17.7247 42.0712 17.8846 42.0219C18.0444 41.9727 18.1914 41.8887 18.3148 41.7758C18.4382 41.6629 18.535 41.524 18.5982 41.3691C18.6615 41.2143 18.6895 41.0474 18.6804 40.8803C18.6946 40.7173 18.6741 40.553 18.6203 40.3984C18.5665 40.2438 18.4805 40.1024 18.3681 39.9834C18.2557 39.8643 18.1194 39.7705 17.9681 39.7079C17.8168 39.6453 17.654 39.6155 17.4904 39.6204V39.5803ZM17.4904 39.5803C16.6504 39.4703 16.3804 40.0904 16.3104 40.7004C16.2748 40.8628 16.2757 41.0311 16.3132 41.1931C16.3508 41.3551 16.4239 41.5067 16.5273 41.6369C16.6307 41.7672 16.7618 41.8727 16.9111 41.946C17.0604 42.0192 17.2241 42.0583 17.3904 42.0604C17.5559 42.0843 17.7247 42.0712 17.8846 42.0219C18.0444 41.9727 18.1914 41.8887 18.3148 41.7758C18.4382 41.6629 18.535 41.524 18.5982 41.3691C18.6615 41.2143 18.6895 41.0474 18.6804 40.8803C18.6946 40.7173 18.6741 40.553 18.6203 40.3984C18.5665 40.2438 18.4805 40.1024 18.3681 39.9834C18.2557 39.8643 18.1194 39.7705 17.9681 39.7079C17.8168 39.6453 17.654 39.6155 17.4904 39.6204V39.5803Z" fill="#76CD26"/>
<path d="M36.898 30.9503C36.898 33.1603 36.898 35.3603 36.898 37.5703C36.898 38.5103 36.5379 38.8803 35.5979 38.8703C32.0379 38.8703 28.468 38.8703 24.908 38.8703C24.368 38.8703 23.738 38.8703 23.708 38.1103C23.678 37.3503 24.378 37.2603 24.948 37.2503C27.948 37.2503 30.948 37.2503 34.008 37.2503C34.858 37.2503 35.118 37.0703 35.108 36.1803C35.048 32.1803 35.108 28.2803 35.108 24.3303C35.108 23.8903 34.9879 23.3903 35.5679 23.1303C36.1479 22.8703 36.878 23.2003 36.888 24.1303C36.888 26.4103 36.888 28.7003 36.888 30.9803L36.898 30.9503Z" fill="#76CD26"/>
<path d="M6.9181 19.5804C8.5481 19.5804 10.1681 19.5804 11.7881 19.5804C12.3681 19.5804 12.8681 19.6804 12.8881 20.4504C12.9081 21.2204 12.3281 21.2704 11.7981 21.2804H1.79809C1.23809 21.2804 0.658096 21.2804 0.668096 20.4504C0.678096 19.6204 1.20809 19.5804 1.78809 19.5804C3.51809 19.5704 5.2181 19.5804 6.9181 19.5804Z" fill="#76CD26"/>
<path d="M9.9181 24.5613C11.5481 24.5613 13.1681 24.5613 14.7881 24.5613C15.3681 24.5613 15.8681 24.6613 15.8881 25.4313C15.9081 26.2013 15.3281 26.2513 14.7981 26.2613H4.79809C4.23809 26.2613 3.6581 26.2613 3.6681 25.4313C3.6781 24.6013 4.20809 24.5613 4.78809 24.5613C6.51809 24.5513 8.2181 24.5613 9.9181 24.5613Z" fill="#76CD26"/>
<path d="M11.9181 30.5613C13.5481 30.5613 15.1681 30.5613 16.7881 30.5613C17.3681 30.5613 17.8681 30.6613 17.8881 31.4313C17.9081 32.2013 17.3281 32.2513 16.7981 32.2613H6.79809C6.23809 32.2613 5.6581 32.2613 5.6681 31.4313C5.6781 30.6013 6.20809 30.5613 6.78809 30.5613C8.51809 30.5513 10.2181 30.5613 11.9181 30.5613Z" fill="#76CD26"/>
<path d="M16.0399 21.3003C15.4599 21.1603 14.3499 21.6803 14.3399 20.4703C14.3299 19.2603 15.4599 19.6203 16.1999 19.5303C16.433 19.5153 16.6668 19.5153 16.8999 19.5303C17.5499 19.5303 18.0599 19.7703 18.0199 20.5303C17.9799 21.2903 17.3899 21.2903 16.8399 21.2903L16.0399 21.3003Z" fill="#76CD26"/>
<path d="M19.0399 26.2812C18.4599 26.1412 17.3499 26.6613 17.3399 25.4513C17.3299 24.2413 18.4599 24.6013 19.1999 24.5113C19.433 24.4962 19.6668 24.4962 19.8999 24.5113C20.5499 24.5113 21.0599 24.7513 21.0199 25.5113C20.9799 26.2713 20.3899 26.2712 19.8399 26.2712L19.0399 26.2812Z" fill="#76CD26"/>
<path d="M21.0399 32.2812C20.4599 32.1412 19.3499 32.6613 19.3399 31.4513C19.3299 30.2413 20.4599 30.6013 21.1999 30.5113C21.433 30.4962 21.6668 30.4962 21.8999 30.5113C22.5499 30.5113 23.0599 30.7513 23.0199 31.5113C22.9799 32.2713 22.3899 32.2712 21.8399 32.2712L21.0399 32.2812Z" fill="#76CD26"/>
<path d="M18.6812 40.9204C18.6903 41.0874 18.6622 41.2544 18.599 41.4092C18.5358 41.5641 18.439 41.703 18.3156 41.8159C18.1922 41.9287 18.0452 42.0128 17.8854 42.062C17.7255 42.1113 17.5567 42.1244 17.3912 42.1004C17.2249 42.0984 17.0612 42.0593 16.9119 41.986C16.7626 41.9128 16.6315 41.8073 16.5281 41.677C16.4247 41.5468 16.3515 41.3952 16.314 41.2332C16.2765 41.0712 16.2755 40.9029 16.3112 40.7404C16.3812 40.1304 16.6512 39.5104 17.4912 39.6204C17.6586 39.6149 17.8252 39.6456 17.9795 39.7105C18.1339 39.7754 18.2723 39.873 18.3854 39.9965C18.4985 40.1201 18.5834 40.2666 18.6345 40.4261C18.6856 40.5856 18.7015 40.7542 18.6812 40.9204Z" fill="#76CD26"/>
<path d="M18.6812 40.9204C18.6903 41.0874 18.6622 41.2544 18.599 41.4092C18.5358 41.5641 18.439 41.703 18.3156 41.8159C18.1922 41.9287 18.0452 42.0128 17.8854 42.062C17.7255 42.1113 17.5567 42.1244 17.3912 42.1004C17.2249 42.0984 17.0612 42.0593 16.9119 41.986C16.7626 41.9128 16.6315 41.8073 16.5281 41.677C16.4247 41.5468 16.3515 41.3952 16.314 41.2332C16.2765 41.0712 16.2755 40.9029 16.3112 40.7404C16.3812 40.1304 16.6512 39.5104 17.4912 39.6204C17.6586 39.6149 17.8252 39.6456 17.9795 39.7105C18.1339 39.7754 18.2723 39.873 18.3854 39.9965C18.4985 40.1201 18.5834 40.2666 18.6345 40.4261C18.6856 40.5856 18.7015 40.7542 18.6812 40.9204Z" fill="#76CD26"/>
<path d="M45.5783 40.7605C45.6068 40.9234 45.6004 41.0906 45.5596 41.2509C45.5188 41.4113 45.4444 41.5611 45.3414 41.6906C45.2384 41.82 45.1091 41.9262 44.962 42.002C44.815 42.0779 44.6535 42.1216 44.4883 42.1305C44.3424 42.1517 44.1942 42.1517 44.0483 42.1305C43.8213 42.0543 43.6226 41.9114 43.4781 41.7205C43.3335 41.5296 43.25 41.2996 43.2383 41.0605C43.2383 40.2805 43.4883 39.7105 44.2383 39.6205H44.3583C44.5152 39.6064 44.6734 39.6255 44.8225 39.6767C44.9715 39.7279 45.1081 39.81 45.2232 39.9176C45.3384 40.0252 45.4295 40.1559 45.4907 40.3012C45.5519 40.4464 45.5817 40.6029 45.5783 40.7605Z" fill="#76CD26"/>
</svg>
